<?xml version="1.0" standalone="no"?>
<!DOCTYPE svg PUBLIC "-//W3C//DTD SVG 1.1//EN" "http://www.w3.org/Graphics/SVG/1.1/DTD/svg11.dtd" >
<svg xmlns="http://www.w3.org/2000/svg" xmlns:xlink="http://www.w3.org/1999/xlink" version="1.1">
<metadata></metadata>
<defs>
<font id="amatica_scregular" horiz-adv-x="800" >
<font-face units-per-em="2048" ascent="1638" descent="-410" />
<missing-glyph horiz-adv-x="700" />
<glyph unicode="&#xfb01;" horiz-adv-x="1320" d="M163 2l41 -31q49 0 49 82q0 50 -6 147q-6 98 -6 146v232q0 100 37 100q12 0 34 -6q23 -6 34 -6q18 0 33.5 11.5t15.5 27.5q0 32 -103 32h-11q-23 0 -23 6v72q0 78 10 215q10 136 10 217q6 14 8 22q3 11 5 14t9 5q10 2 25 2q75 0 113 -20q73 0 73 35q0 18 -42.5 31.5 t-101 20.5t-101.5 7q-22 0 -39 -10.5t-17 -28.5q0 -127 -14 -412q-14 -286 -14 -413q0 -307 -19 -498zM767 1325q0 -35 39 -35l25 2l24 2q41 0 61 -6q10 -93 10 -237q0 -61 -5 -238q-5 -178 -5 -240q0 -66 8 -224q7 -139 7 -224q0 -7 -3 -24q-4 -15 -4 -19l-8 -8h-59 l-12 -11q-9 -6 -12 -11t-3 -13q12 -21 56 -21q9 0 17 1q7 1 17 1q8 -20 56 -20q13 0 35 12q24 11 38 11q12 0 34 -3q20 -4 34 -4q19 0 32 11.5t13 29.5q0 29 -61 29q-17 0 -30 -1t-30 -1q-45 0 -45 20l2 5q-6 9 -6 57q0 22 1 37l1 26q0 85 -7 225q-7 139 -7 224q0 81 3 244 q3 162 3 243q0 91 -6 109l10 6q43 0 59 -12l47 4q5 12 5 16q0 22 -36 35q-41 15 -94 19q-88 8 -155 8q-13 0 -31 -8.5t-18 -16.5z" />
<glyph unicode="&#xfb02;" horiz-adv-x="1260" d="M163 2l41 -31q49 0 49 82q0 50 -6 147q-6 98 -6 146v232q0 100 37 100q12 0 34 -6q23 -6 34 -6q18 0 33.5 11.5t15.5 27.5q0 32 -103 32h-11q-23 0 -23 6v72q0 78 10 215q10 136 10 217q6 14 8 22q3 11 5 14t9 5q10 2 25 2q75 0 113 -20q73 0 73 35q0 18 -42.5 31.5 t-101 20.5t-101.5 7q-22 0 -39 -10.5t-17 -28.5q0 -127 -14 -412q-14 -286 -14 -413q0 -307 -19 -498zM799 20q5 -47 34 -47q15 0 38 4q26 3 38 3l-4 2q100 0 170 -2q33 3 33 26q0 12 -10 23.5t-21 11.5h-6l-87 3q-76 3 -106 3q-9 0 -10 10q-2 12 -2 41v13l6 196 q-6 12 -6 29q0 5 1 8t1 8l-2 -2l6 17l-2 87l-2 87q0 23 3 84l3 88q0 124 -1 223t-1 223q0 45 1 81t1 81q0 -1 -5 1q-19 7 -29 7q-15 0 -15 -14l-5 -62q-5 -65 -5 -73q0 -164 -6 -533q-6 -370 -6 -559q0 -51 -4 -68z" />
<glyph horiz-adv-x="0" />
<glyph unicode="&#xd;" horiz-adv-x="682" />
<glyph unicode=" "  horiz-adv-x="700" />
<glyph unicode="&#x09;" horiz-adv-x="700" />
<glyph unicode="&#xa0;" horiz-adv-x="700" />
<glyph unicode="!" horiz-adv-x="520" d="M195 39q17 -33 33 -43q17 -11 26 -12q10 -1 13 -11q51 3 51 54q0 33 -16 54t-45 21q-20 0 -41 -21.5t-21 -41.5zM242 1493q0 -45 8 -159q7 -99 7 -163l-2 -175q-3 -115 -3 -175v-491l1 -4l1 -4h27l-6 10q16 38 16 121q0 28 -1 49q-1 20 -1 41q0 172 22 490q21 326 21 489 q0 26 -26 26q-22 0 -43 -17.5t-21 -37.5z" />
<glyph unicode="&#x22;" horiz-adv-x="680" d="M203 1262q5 -5 8 -5q12 0 27.5 44t27 102t11.5 94q0 32 -13.5 55t-34.5 23q-22 0 -22 -174v-17q0 -97 -4 -122zM414 1409q0 -111 26 -152q2 -2 7 -2q9 0 21.5 93.5t12.5 148.5q0 33 -7 55q-8 23 -19 23q-9 0 -17 -5q-12 -9 -18 -41q-3 -10 -4.5 -33t-1.5 -41v-46z" />
<glyph unicode="#" horiz-adv-x="820" d="M91 635q0 -43 61 -43q20 0 45 4t43 4q-24 -112 -49.5 -333.5t-25.5 -303.5q0 -8 11.5 -14t22.5 -6q16 0 31 113q14 103 31 293q18 199 26 251q24 8 72 8q111 0 166 -6q0 -68 -19 -191q-20 -131 -20 -192q0 -46 -13 -128q-14 -89 -14 -128q0 -20 37 -20l23 26 q0 125 27 356q25 229 30 285h80q33 14 33 27q0 39 -58 39q-11 0 -20 -1l-18 -1l-11 4q0 189 31 309l43 -2l43 -2q14 0 27 33l-27 28h-76l-4 11q0 83 37 235q35 151 37 232q-8 20 -25 20t-30 -16q-14 -182 -76 -482q-39 -14 -109 -14h-26q-58 0 -88 8q0 81 18 238 q18 158 18 237l-14 29q-31 0 -31 -45q0 -11 1 -20t1 -21q0 -110 -28 -294q-16 -107 -19 -134q-19 -6 -94 -6h-43l-16 -18q1 -37 80 -37l36 2l33 2q0 -30 -15.5 -166t-21.5 -148q-14 -2 -41 -2h-43q-69 0 -69 -20zM296 674q0 49 13 161.5t23 135.5q22 12 68 12q158 0 158 -20 q0 -19 -2 -57q-3 -37 -14 -118l-21 -118q-66 -8 -189 -8q-13 0 -34 4l-1 4z" />
<glyph unicode="$" horiz-adv-x="720" d="M179 1300q0 -57 21 -131q14 -49 30 -89.5t30 -71t18 -38.5l15 -31q21 -45 23 -58q17 -157 35.5 -376.5t18.5 -291.5q-26 -8 -58 -8q-36 0 -49 12t-20 38q-7 22 -27 34h-4q-19 0 -19 -21q0 -52 72 -102q29 4 102 4l7 -6v-135l-9 -6q0 -13 5.5 -27t13.5 -14q35 0 35 86 q0 25 -4 58q-5 42 -5 58q47 33 65 48t38 40q21 26 29 56t8 75q-10 127 -119 350q-45 88 -55 117q-13 30 -30 200t-17 239q0 27 -3 81q-4 48 -4 80l7 17q35 -4 54 -16.5t37 -40.5q16 -26 29 -39q8 -8 16.5 2.5t8.5 23.5q0 11 -51 62q-39 45 -78 45q-33 0 -33 75q0 28 2 46 l-16 18q-29 0 -29 -53q0 -20 4 -45t4 -43q-26 0 -47 -25.5t-31 -65.5q-20 -78 -20 -131zM226 1288q0 47 14.5 114.5t32.5 70.5q3 -79 19 -237q17 -166 18 -255q-6 3 -6 8q-78 171 -78 299zM372 776q25 -36 56.5 -115.5t54 -159t22.5 -114.5q0 -44 -28.5 -88t-68.5 -63l-2 4 q0 84 -17 268t-17 268z" />
<glyph unicode="%" horiz-adv-x="1244" d="M130 1180q0 -457 172 -457q49 0 83 27q34 26 52 61.5t29 90.5q9 46 11.5 78.5t2.5 78.5l-2 47l-2 47l4 6q0 210 -63 318q-37 75 -137 75h-4q-37 0 -67.5 -45t-46.5 -114q-15 -64 -23.5 -119t-8.5 -86v-8zM181 1178q0 7 5 27q4 16 4 26l5 43q8 74 24 140q9 38 25.5 60.5 t37.5 22.5q37 0 67 -20.5t47 -55.5t17 -75l4 -19q0 -40 8 -128t8 -128q0 -42 -4 -80.5t-15 -91.5q-12 -56 -42.5 -89.5t-73.5 -33.5q-34 0 -58.5 36t-35.5 94q-19 99 -19 159l-2 58zM413 31q0 -23 20 -37q25 2 37 35q11 31 17 64l6 28l41 178l231 1018l12 52l20 87 q9 42 9 49q0 12 -9 19.5t-22 7.5q-5 0 -9 -7q-3 -5 -9 -19q-11 -36 -13 -45l-4 -13q-115 -441 -256 -1061l-28 -113q-23 -92 -33 -146t-10 -97zM726 350q0 -29 8 -77t23 -104q16 -62 46.5 -102t67.5 -40q61 0 105 35t65 96q19 57 27 109t8 112l-4 6l2 47l2 47q0 25 -2 71 q-3 39 -13.5 90t-26.5 85q-19 39 -55 64.5t-81 25.5q-172 0 -172 -457v-8zM777 367l2 53l2 55q0 59 19 157q11 56 35 91t57 35q36 0 61 -24q24 -23 37 -54t22 -80q7 -40 9 -67t2 -64v-66q0 -41 -1 -58q-2 -67 -14 -118q-15 -62 -43 -95q-15 -18 -38.5 -28t-50.5 -10 q-26 0 -44 31q-17 28 -24 57.5t-15 83.5l-8 47q0 10 -4 27q-4 16 -4 27z" />
<glyph unicode="&#x26;" horiz-adv-x="920" d="M91 292q0 -71 33 -141q33 -75 95 -123.5t132 -48.5q67 0 114.5 18t117.5 66q42 -31 58 -40q26 -17 61.5 -29.5t66.5 -12.5q92 0 92 33l-22 18q-12 0 -38 -3q-25 -3 -38 -3q-88 0 -158 82q52 100 70 201.5t18 265.5h13q14 0 25 -1t24 -1q36 0 69 9.5t33 23.5 q0 12 -10.5 20.5t-24.5 10.5q-20 -8 -101 -16.5t-120 -8.5l-6 -10l4 -13l-2 -4q10 -15 31 -13h2q6 0 11 -6q5 -8 5 -26q0 -239 -78 -397q-47 14 -107 167q-39 97 -71 206t-50.5 198.5t-18.5 130.5q0 17 8.5 35t25.5 42q14 19 21 32q14 27 29.5 62.5t24.5 63.5q6 17 7 20 q19 59 39 112q-2 10 -2 25q0 21 3 61q3 41 3 61q0 27 -25 51.5t-61.5 39t-68.5 14.5q-23 0 -39 -25q-27 -42 -27 -104v-170q0 -55 7 -143q7 -90 7 -144l-35 -68l-20 -39q-4 -7 -14 -27l-27 -56q-23 -47 -27 -61l-19 -55q-15 -40 -18 -63l-4 -21l-7 -41q-7 -36 -9 -70.5 t-2 -84.5zM136 329q0 125 37.5 246.5t106.5 210.5q9 -27 17 -93l3 -24q4 -37 8 -59q27 -137 79.5 -269t113.5 -194q32 -32 41 -47q-2 -21 -33 -39.5t-72.5 -30.5t-70.5 -12q-59 0 -105 27.5t-73 75.5q-52 92 -52 208zM306 1339q0 16 19.5 45t33.5 29q76 0 76 -123 q0 -37 -20.5 -111t-49.5 -141.5t-51 -87.5q0 17 -3 45q-3 29 -3 45q0 24 4 35l-4 10zM763 389l2 -2q0 2 -2 2z" />
<glyph unicode="'" horiz-adv-x="480" d="M211 1262q5 -5 8 -5q12 0 27.5 44t27 102t11.5 94q0 32 -13.5 55t-34.5 23q-22 0 -22 -174v-17q0 -97 -4 -122z" />
<glyph unicode="(" horiz-adv-x="600" d="M171 879q0 -194 24 -405t69 -403.5t106 -328.5q0 -3 7 -18q7 -19 13 -28.5t9 -13.5q7 -12 15.5 -17t20.5 -5q16 0 31 25q-9 35 -42 97q-35 61 -42 79q-155 370 -155 1018q0 286 92 544q8 19 27 57q21 41 32 71.5t12 58.5l-20 16q-49 -1 -99 -169q-45 -154 -72.5 -326.5 t-27.5 -251.5z" />
<glyph unicode=")" horiz-adv-x="720" d="M227 -254q0 -11 9 -18t21 -7q29 0 66 76q37 78 71 195q49 171 85 327q63 266 63 498q0 46 -14 177q-42 353 -103 522q-40 109 -82 110l-20 -16q0 -28 11.5 -58.5t33.5 -70.5q20 -37 27 -58q92 -258 92 -606q0 -200 -48.5 -443.5t-127.5 -451.5q-15 -36 -32 -67l-37 -71 q-15 -30 -15 -38z" />
<glyph unicode="*" horiz-adv-x="880" d="M51 1153q0 -33 22 -33q10 0 17 1t16 1h232q11 0 22 -4q-7 -44 -85 -198q-77 -152 -77 -175l29 -30l27 4q12 21 31 71l12 33l80 189q15 41 24 53q56 -103 111 -234l8 -37q6 -35 17.5 -52t31.5 -17q11 0 20 8.5t9 20.5q0 23 -78 179q-78 152 -80 181q11 6 39 6h25 q32 0 117 -5t116 -5q47 0 47 29q0 14 -12 26.5t-27 12.5q-23 0 -88 -5q-58 -6 -88 -6q-62 0 -123 9l-2 2q21 46 50 136q32 99 55 144q26 43 26 55q0 10 -11 20.5t-22 10.5q-21 0 -51 -70q-27 -64 -58 -158q-27 -84 -38 -104q-21 15 -52 92q-8 18 -11 28q-27 63 -51 123 q-30 71 -44 71q-13 0 -22.5 -6t-9.5 -17q0 -12 62 -144.5t87 -178.5l-4 -4q-77 0 -138 1t-139 1q-9 0 -15.5 -7.5t-6.5 -17.5zM436 1118q0 2 2 2v-2h-2z" />
<glyph unicode="+" horiz-adv-x="820" d="M147 655q0 -43 60 -43q15 0 45 6q33 5 45 5q29 0 42 -2.5t19 -12.5t7 -18.5t1 -34.5l-2 -54l-2 -52v-64q0 -11 15 -20t28 -9q18 0 30.5 9t12.5 24q0 28 -9 77q-9 50 -9 87q0 31 6 45t21 18.5t47 4.5h10q22 0 64 -3q36 -4 61 -4q35 0 35 33q0 37 -64 37q-21 0 -61 -3 q-41 -3 -62 -3q-31 0 -44 10.5t-13 38.5q0 33 -4 81t-4 81l8 20q0 35 -37 35q-23 0 -32 -10t-9 -35q0 -27 5 -102q5 -77 5 -103q0 -16 -84 -16q-18 0 -54 3t-54 3q-14 0 -18.5 -6.5t-4.5 -22.5z" />
<glyph unicode="," horiz-adv-x="560" d="M164 -156q0 -10 7 -16.5t19 -6.5q13 0 28 9q43 29 80.5 74.5t60.5 92.5t23 81q0 82 -90 82q-33 0 -55 -16t-22 -48q0 -40 13.5 -61.5t45.5 -28.5q0 -19 -6 -35q-11 -28 -45 -62q-24 -24 -56 -52q-3 -6 -3 -13z" />
<glyph unicode="-" horiz-adv-x="720" d="M155 715q0 -15 13.5 -25t29.5 -10q57 0 142 9t147.5 23t62.5 27q0 14 -14.5 24.5t-30.5 10.5q-55 0 -139.5 -9t-147.5 -23t-63 -27z" />
<glyph unicode="." horiz-adv-x="520" d="M203 41q0 -18 13.5 -33.5t31.5 -15.5q57 0 57 51q0 18 -15.5 35.5t-33.5 17.5q-20 0 -36.5 -17.5t-16.5 -37.5z" />
<glyph unicode="/" horiz-adv-x="680" d="M155 31q0 -23 20 -37q25 2 37 35q11 31 17 64l6 28l41 178l231 1018l12 52l20 87q9 42 9 49q0 27 -30 27q-5 0 -9 -7q-3 -5 -9 -19q-11 -36 -13 -45l-4 -13q-115 -441 -256 -1061q-8 -38 -28 -114q-24 -91 -34 -145t-10 -97z" />
<glyph unicode="0" d="M187 1036q0 -213 5.5 -355t19.5 -288q30 -304 131 -381q7 -6 32.5 -16t33.5 -10q38 0 70 17q31 17 51 42.5t35 67.5q14 42 22 81.5t12 96.5q4 51 5 98.5t1 102.5q0 386 -46 723q-40 327 -224 327q-74 0 -102 -27q-18 -16 -26.5 -29.5t-11.5 -36.5q-4 -25 -5 -42.5 t-1 -42.5q0 -91 -1 -164t-1 -164zM233 1396q0 53 19 77.5t68 24.5q48 0 86 -30q34 -27 55 -73t39 -110q20 -73 27 -196q1 -19 1 -48q0 -62 12 -281q12 -220 12 -286q0 -58 -5 -152q-6 -95 -34 -193q-13 -46 -35 -71t-51 -25q-38 0 -69 40.5t-50 110.5q-40 146 -53 308 q-12 151 -12 254v200q0 79 -4 192q-5 142 -5 191v35q-1 15 -1 32z" />
<glyph unicode="1" horiz-adv-x="740" d="M139 1501q0 21 42 25q37 4 161 4q14 0 23.5 -10t9.5 -23v-63q0 -50 5 -193t5 -194q0 -11 11 -233l3 -57q13 -256 13 -397v-26l5 -112q4 -87 4 -120q0 -8 -1 -15l-2 -15l9 -6q15 0 46 3q32 3 46 3q63 0 63 -29t-45 -29q-56 0 -165 -4t-165 -4q-17 0 -24.5 8.5t-7.5 31.5 q0 6 5 12.5t11 6.5h58l59 -1q23 0 33 2.5t14 10.5t4 27q0 469 -46 1180l1 65l1 66q0 34 -6 47t-24 17t-64 4l-23 -2l-24 -2q-35 0 -35 22z" />
<glyph unicode="2" horiz-adv-x="720" d="M147 25q0 -18 15 -29.5t36 -11.5q52 0 153 9q101 8 146 9q18 0 18 27q0 32 -30 32q-134 -1 -246 -22q-11 0 -11 10q0 6 5 23q16 43 48 112l46 102l59 134q41 93 77 237.5t57.5 295t21.5 259.5q0 24 -3 75t-3 75l4 4q-2 60 -27 110t-68.5 79.5t-99.5 29.5q-34 0 -60 -33 q-25 -31 -36.5 -70t-11.5 -75q0 -15 1 -20q1 -8 7.5 -14.5t18.5 -6.5q27 0 35 74q3 32 20.5 62t44.5 42q127 0 127 -295q0 -249 -57 -480.5t-177 -494.5z" />
<glyph unicode="3" horiz-adv-x="680" d="M91 1403q1 -12 12 -20.5t23 -8.5q26 0 48 59q9 23 32.5 40.5t54.5 17.5q35 0 60 -30q25 -29 38.5 -69t21.5 -99q11 -81 11 -163q0 -48 -20 -99q-15 -37 -33 -63t-34 -44t-22 -25q-20 -23 -22 -31l10 -10v-8q18 -8 39 -8q6 0 11 1q4 1 9 1q38 -41 67 -96 q27 -55 41.5 -104.5t21.5 -116.5q7 -62 8.5 -104.5t1.5 -125.5q0 -260 -156 -260q-10 5 -26 18q-20 14 -34 21t-28 8l-16 -10q0 -34 40.5 -55t86.5 -21q37 0 68 14q30 14 49 35.5t33 55.5q14 33 21 62.5t11 71.5q6 66 6 130q0 54 -2 70.5t-14 70.5q-7 30 -14 80 q-10 63 -18 99.5t-22 77.5q-32 92 -112 124q7 8 34 51q24 41 33 47q37 64 37 115q0 269 -82 387l-6 2q-16 22 -41 35.5t-51 13.5q-61 0 -101.5 -34t-74.5 -103z" />
<glyph unicode="4" horiz-adv-x="660" d="M171 653l19 -41q-11 -58 -11 -65v-6q4 -4 12 -9q8 -7 17 -11q7 -3 27 -3q21 0 60 6t60 6q21 -10 21 -90l-2 -46l-2 -46q0 -40 7 -104q7 -66 7 -105q0 -38 -8 -73l2 -5v-73l31 -13l33 25v29l-7 14l7 25q-9 15 -9 49q0 25 2 35q-6 14 -12 145.5t-6 200.5q0 25 17 35.5 t41 8.5q5 -1 14 -1q19 0 31 6.5t12 19.5q0 23 -39 23q-16 0 -39 -4t-37 -4q-8 8 -14.5 125.5t-6.5 193.5q0 48 -6 145q-6 96 -6 144l-18 22q-16 0 -27.5 -6.5t-11.5 -17.5q0 -25 8 -84q6 -43 8 -80q15 -367 15 -442q-12 -6 -47.5 -12.5t-55.5 -6.5t-20 39q0 11 7 28 q7 15 7 27t-7 30t-7 30q0 86 12 258q12 173 12 258q0 25 -4 57l4 6q-6 35 -6 70q0 34 4 82t4 82q0 14 -11 21.5t-26 7.5q-24 0 -24 -27q0 -10 4 -25q4 -16 4 -26v-326q0 -74 -10 -201t-10 -200q0 -18 -9 -51q-10 -31 -10 -50z" />
<glyph unicode="5" horiz-adv-x="740" d="M155 1565q1 -65 26 -214q23 -149 23 -221q0 -48 -10 -104l2 -30q2 -26 4 -34q3 -13 14.5 -22.5t30.5 -9.5q6 0 22 9q17 9 23 9q2 0 3 -1t3 -1l9 6h47q48 0 81 -79q33 -83 46 -198q22 -196 22 -347q0 -30 -8 -78.5t-22 -101.5q-16 -56 -42.5 -93t-56.5 -37q-9 0 -26 9 q-19 8 -27 8q-39 0 -39 -23q0 -32 101 -32h16q31 16 57 44q25 28 41 56t28 68q11 41 16.5 72t8.5 76q4 61 4 142q0 73 -10 172q-11 114 -41 221.5t-67 135.5q-14 11 -55 19t-86 13l-36 5l3 2q-15 173 -27 344l-7 84q-7 66 -7 110l8 -2l14 4l82 -10l6 4h43l23 19q0 28 -58 28 h-4l-157 -2zM217 1335q0 2 2 2z" />
<glyph unicode="6" horiz-adv-x="700" d="M179 807q0 -217 31 -438q2 -13 4.5 -47.5t3.5 -51.5l4 -54q2 -42 12 -88.5t24 -78.5q15 -35 44.5 -56.5t67.5 -21.5q36 0 63 12q26 11 41 29t24 46q8 25 10.5 50t2.5 62v61q-1 10 -1 39l-1 40q-1 64 -11 167q0 7 -2 25q-5 52 -13.5 94t-22.5 102q-11 46 -28 82t-41 71 q-21 30 -50 46t-63 16q-22 0 -45 -16q1 60 10 193q9 129 33.5 255.5t54.5 151.5q9 7 25 13q22 9 33.5 18.5t11.5 21.5q0 6 -9 12.5t-16 6.5q-35 0 -64 -25t-49 -72q-22 -51 -36 -103.5t-22 -119.5q-11 -84 -16 -136t-7 -115q-3 -93 -3 -182v-9zM233 728v30q0 70 61 110 q38 0 67.5 -41t47.5 -114q35 -147 45 -308q8 -134 8 -231q0 -162 -76 -162q-42 0 -61 20q-12 13 -18 22t-9 24q-7 32 -10 60l-4 28q-51 290 -51 562z" />
<glyph unicode="7" horiz-adv-x="600" d="M163 1542l31 -20q19 0 60 3q40 3 61 3q71 0 71 -12q0 -73 -21 -209q-3 -18 -14 -95q-22 -185 -37 -331q-28 -259 -52.5 -424t-59.5 -314q-8 -31 -14 -46q-12 -36 -17.5 -58t-5.5 -43l25 -23q22 1 35.5 32.5t13.5 64.5q0 8 -2 16q13 18 55.5 293.5t85.5 596.5t51 419 q1 5 1 22l1 21q0 56 13 92q-5 15 -18.5 26t-27.5 11q-36 0 -108 -3q-73 -3 -109 -3z" />
<glyph unicode="8" horiz-adv-x="680" d="M147 1442q0 -127 94 -412l15 -45l15 -47q2 -9 8 -27q9 -33 9 -43q0 -28 -18 -77q-9 -22 -12 -35q-66 -258 -66 -570q0 -76 29 -162q15 -46 44 -74t66 -28q61 0 97 28t71 95q-2 6 -2 10q0 9 3 25q3 17 3 24q0 285 -135 691q-1 5 -9 22q-17 40 -17 51q0 5 30 140 q41 220 41 323q0 140 -39 228q-4 11 -14 20q-9 8 -17 12.5t-20 9.5l-20 9h-37q-32 0 -56.5 -14.5t-37.5 -40.5q-25 -50 -25 -113zM198 1438q0 93 47 131q9 -6 25 -6q7 0 12 1l10 1q30 0 48 -51q16 -46 21 -88t5 -91q0 -171 -61 -366q-18 11 -43 106.5t-44.5 207.5t-19.5 155 zM239 168q0 106 9.5 237.5t28 239.5t44.5 143q11 -19 20 -48.5t20 -77.5q9 -42 15 -64q78 -285 78 -479q0 -72 -30.5 -115t-92.5 -43q-28 0 -46.5 28.5t-20.5 63.5l2 6q-27 68 -27 109z" />
<glyph unicode="9" horiz-adv-x="740" d="M171 1316q0 -130 72 -237q36 -54 94 -90t128 -45l14 4l2 -110l2 -111q0 -73 -5 -285t-5 -286q0 -130 -19 -183l17 -20q35 0 35 57q0 13 -1 24q-1 10 -1 23q0 28 7 76t7 76q0 116 3 345q3 230 3 345q0 17 7 41t7 41l2 121q1 54 1 121q0 302 -15 327q-14 20 -56.5 36 t-76.5 16q-68 0 -118 -38t-77 -103t-27 -145zM225 1366q0 91 43 144t127 53q52 0 74 -31t22 -92q0 -266 -10 -439l-29 -4q-61 8 -113 66q-53 59 -83.5 141t-30.5 162z" />
<glyph unicode=":" horiz-adv-x="520" d="M195 250q0 -18 13.5 -33.5t31.5 -15.5q57 0 57 51q0 18 -15.5 35.5t-33.5 17.5q-20 0 -36.5 -17.5t-16.5 -37.5zM215 1024q0 -18 13.5 -33.5t31.5 -15.5q58 0 58 51q0 18 -16 35.5t-34 17.5q-20 0 -36.5 -17.5t-16.5 -37.5z" />
<glyph unicode=";" horiz-adv-x="560" d="M179 14l33 -16q38 2 78 52q38 48 62 108t24 100q0 32 -19.5 55t-48.5 23q-30 0 -54 -18.5t-24 -45.5q0 -25 17 -49.5t43 -40.5q0 -18 -6 -35q-11 -28 -45 -62q-24 -24 -56 -52zM265 1024q0 -18 13.5 -33.5t31.5 -15.5q58 0 58 51q0 18 -16 35.5t-34 17.5 q-20 0 -36.5 -17.5t-16.5 -37.5z" />
<glyph unicode="&#x3c;" horiz-adv-x="700" d="M147 698q0 -30 38 -80q38 -52 44 -69q9 -20 24 -50l21 -44l102 -213l36 -78q48 -111 81 -160h4l14 -2l13 -2q8 0 16.5 13t11.5 26l-18 14q-35 58 -175 344.5t-140 302.5q0 53 34 147t83 192q51 103 90.5 202t48.5 160l-27 20q-13 -1 -27 -26q-12 -22 -20.5 -45.5 t-18.5 -62.5l-12 -40q-11 -36 -69 -166q-54 -120 -106 -244q-48 -114 -48 -139z" />
<glyph unicode="=" horiz-adv-x="760" d="M123 626q0 -10 6 -19t14 -9q395 0 395 -4q14 0 14 16q0 9 -5 17t-11 8l-320 2h-83q-10 0 -10 -11zM145 743q0 -22 30 -22h198q216 0 217 6q2 4 2 10q0 11 -9.5 18t-21.5 7h-231q-180 0 -182 -6q-3 -7 -3 -13z" />
<glyph unicode="&#x3e;" horiz-adv-x="700" d="M139 39q2 -12 11.5 -25.5t17.5 -13.5l14 2l16 2l32 64l11 22l176 365l21 43q16 31 24 51q7 18 45 69q37 50 37 80q0 26 -48 140t-105 243q-57 126 -70 166l-11 41l-17 58q-8 27 -22.5 49.5t-27.5 25.5l-26 -20q9 -61 49 -161t91 -201q49 -99 82.5 -192.5t33.5 -146.5 q0 -16 -136.5 -292t-179.5 -355z" />
<glyph unicode="?" horiz-adv-x="640" d="M187 1410q0 -50 15 -127q3 -10 15 -10q11 0 36 10q-15 94 -15 123q0 127 72 127h23q30 0 48 -51q16 -46 20.5 -87t4.5 -92q0 -69 -12.5 -147t-38.5 -187q-24 -99 -33 -150q-39 -252 -39 -559q5 -24 23 -24q8 0 22 7q1 1 3 -1l-2 115q0 156 19.5 301.5t46.5 238.5 q28 97 46.5 204t18.5 204q0 58 -11.5 122.5t-31.5 105.5q-24 45 -111 45q-32 0 -56.5 -14.5t-37.5 -40.5q-25 -50 -25 -113zM261 41q0 -18 13.5 -33.5t31.5 -15.5q57 0 57 51q0 18 -15.5 35.5t-33.5 17.5q-20 0 -36.5 -17.5t-16.5 -37.5z" />
<glyph unicode="@" horiz-adv-x="1140" d="M131 1024q0 -70 11 -216.5t27 -277.5t30 -170q2 -7 11 -25q15 -31 16 -56q110 -240 259 -240q48 0 112 16t128 44q66 29 115.5 74.5t64.5 94.5l-18 19q-7 -1 -45 -39q-83 -87 -167.5 -124.5t-196.5 -37.5q-41 0 -80.5 35t-70.5 86t-49 100q-22 60 -28 97t-13 134 q-5 68 -9 112.5t-10 100.5q-2 22 -4 32l-6 63q-3 29 -6 79t-3 89q0 19 -4 26q8 21 8 66q0 32 -4 80q6 15 11 35t6 26q4 20 8 67l2 36l2 30q3 59 7 87q3 39 12 83t20 72q13 33 34.5 63t47.5 48q29 19 70 30t90 11q77 0 130 -23t91 -71.5t69 -129.5q114 -301 114 -635 q0 -290 -79 -290q-17 0 -43 51l-23 10l-11 108l-20 180q-26 231 -49 352q-13 67 -24 79q-51 59 -134 59q-42 0 -73 -16q-33 -16 -54.5 -40.5t-36.5 -64.5q-16 -39 -23.5 -75.5t-12.5 -88.5q-7 -79 -7 -173v-52q0 -58 1 -83q1 -40 6 -91.5t13 -91.5q9 -44 24.5 -86t35.5 -69 q21 -30 53 -48t70 -18q62 0 118.5 42.5t83.5 106.5q14 -5 44 -27q30 -24 59 -24q152 0 152 338q0 75 -31 271l-5 33l-19 123q-9 51 -27 125t-35 115q-23 54 -56 107.5t-68 81.5q-42 33 -100 53.5t-123 20.5q-74 0 -128 -15q-56 -16 -91.5 -42.5t-61.5 -72.5 q-25 -45 -40 -93.5t-32 -130.5q-35 -172 -35 -455zM405 831v263q0 33 2 79q2 40 9 86t19 74q13 33 38 54.5t57 21.5q22 0 41 -8q18 -9 27.5 -18.5t17.5 -30.5q7 -18 10 -33t5 -22l4 -22l7 -42l8 -40l8 -43q4 -15 8.5 -39.5t6.5 -43.5l5 -40q2 -13 5 -44l3 -40q1 -15 1 -44 v-154q0 -39 -22.5 -91.5t-57 -90t-66.5 -37.5q-45 0 -74.5 27.5t-41.5 79.5q-12 49 -16 91t-4 107z" />
<glyph unicode="A" d="M123 39q0 2 1 3v3l24 102l42 189l30 135q31 133 78 406q51 293 74 397q17 76 37 145q13 47 30 83q16 34 29 34q32 0 47 -20q11 -18 32.5 -205t37.5 -371l28 -340q0 -88 12 -267q11 -187 11 -267v-9q0 -27 -6 -40q-7 -17 -39 -17q-15 0 -27 10t-12 25v268q0 16 -51.5 31.5 t-119 25t-105.5 9.5q-6 0 -26 -77q-17 -67 -37 -154t-26 -118q-4 -15 -22 -15q-16 0 -29 10t-13 24zM277 426q87 -29 207 -29h12q6 -1 14 -1q40 0 40 20q0 127 -14 347t-30 388q-8 88 -25 238l-4 22q-4 15 -4 25q-16 -46 -29.5 -113t-34.5 -201q-47 -301 -84 -458 q-4 -23 -18 -70q-15 -52 -22.5 -88.5t-7.5 -67.5v-12z" />
<glyph unicode="B" horiz-adv-x="740" d="M179 1389q0 -162 7 -427t7 -427q0 -67 -5 -259q-5 -193 -5 -260q0 -28 76 -28h4q17 0 41 10q23 8 40 10q63 28 106 57q44 30 70 62.5t40 77.5t19 95.5t5 132.5q0 93 -19 165t-61.5 137.5t-116.5 138.5q132 179 132 340q0 95 -33 168t-98 113.5t-156 40.5q-53 0 -53 -147z M242 1378q0 88 53 88q44 0 83.5 -29.5t63 -76t23.5 -92.5q0 -54 -14.5 -118.5t-40.5 -123.5q-27 -62 -68.5 -101.5t-85.5 -39.5l-6 2q0 101 -4 246t-4 245zM250 788q12 1 47 12q30 9 54 11q176 -74 176 -440q0 -79 -34.5 -149t-93 -112t-126.5 -42l-6 1q-3 1 -7 1 q0 432 -10 718z" />
<glyph unicode="C" horiz-adv-x="780" d="M171 1090q0 -57 1 -104q1 -48 1 -109q0 -84 12 -256.5t30 -321.5t34 -184q17 -37 52.5 -71.5t78 -55.5t80.5 -21q73 0 144 29q37 15 60 42.5t23 63.5q0 30 -19 30q-21 0 -38 -26q-50 -59 -143 -59q-54 0 -101.5 21t-72.5 59q-19 28 -38.5 170.5t-32.5 310.5t-13 252 l-2 107l-2 114q0 64 5 124q5 58 20.5 114t39.5 91q27 39 72.5 62t103.5 23q19 0 56 -14q35 -15 47 -15q32 0 32 23q0 20 -19 37.5t-47 28t-52 10.5q-61 0 -106 -13q-48 -13 -80 -34.5t-55 -56.5q-24 -35 -37.5 -72t-20.5 -89q-7 -51 -10 -98t-3 -112z" />
<glyph unicode="D" horiz-adv-x="820" d="M139 1497q0 -19 14 -56q13 -36 15 -50q7 -49 12 -286v-26q3 -214 4 -221l14 -559l6 -180q2 -15 -15 -41q-17 -28 -17 -41q0 -18 24.5 -29.5t50.5 -11.5q19 0 72 38t111 103.5t96 146.5q61 130 94.5 278t33.5 275v65q-1 33 -5 88t-10 99q-6 50 -19.5 108t-29.5 104 q-18 50 -45.5 97t-59.5 77q-35 33 -82 52t-100 19h-10q-154 0 -154 -49zM219 1450q0 23 43 23q330 0 330 -599q0 -67 -6 -141q-7 -81 -28.5 -179t-51.5 -176q-35 -88 -94.5 -163t-133.5 -115h-10v230q0 130 -15 389q-16 252 -16 391q0 57 -9 169q-9 113 -9 171z" />
<glyph unicode="E" horiz-adv-x="620" d="M187 1485q4 -128 4 -228l2 -845l-2 -299v-4q0 -21 1 -38v-38q0 -28 20 -36.5t68 -8.5h87q79 0 100 8q19 7 19 39q0 27 -38 27h-18h-87l-87 -1v76q0 137 -4 325q-4 187 -4 304q0 10 8 10h117q17 0 24 7.5t7 26.5q0 30 -34 30q-42 0 -111 -4h-2h-2q-4 0 -4 4v256v174 q-1 77 -1 174q0 15 4.5 19.5t19.5 4.5l33 -2l33 -2q25 0 34 1q14 1 27 11.5t13 26.5q0 28 -21 35q-10 3 -19.5 3.5t-22.5 0.5h-127q-17 0 -27 -16t-10 -41z" />
<glyph unicode="F" horiz-adv-x="580" d="M163 1512l8 -157q8 -162 14.5 -328.5t6.5 -207.5q0 -160 20 -493l6 -125v-152q0 -53 33 -53q45 0 45 38q0 12 -6 27l6 11q0 121 -19 345q-20 235 -20 345q0 20 43 24q7 1 45.5 4t60 12.5t21.5 24.5q0 14 -10 27.5t-22 13.5q-22 0 -69 -12q-46 -12 -69 -12q0 24 -15 301 q-15 276 -15 298q0 27 4.5 33.5t20.5 6.5l53 -1l47 -1q38 0 38 20q0 19 -9 33t-25 14q-33 0 -56 1h-46q-54 0 -71 -4q-20 -5 -20 -20v-13z" />
<glyph unicode="G" horiz-adv-x="920" d="M171 877q0 -470 73 -689q74 -221 229 -221q87 0 206 68l-1 -5l-1 -5q0 -45 49 -45q27 0 27 32q0 58 -20 183q-21 122 -21 182q0 38 -16 62t-48 24q-40 0 -96.5 -14t-56.5 -31q0 -35 47 -35q18 0 42 4t40 4t28 -34q12 -39 16 -85q9 -86 9 -145q-66 -102 -174 -102 q-64 0 -111 46q-47 44 -75.5 112.5t-46.5 169.5q-17 91 -23.5 176t-6.5 186q0 90 1 112l2 135q2 104 11 181q13 118 32 182q12 42 30 80t38 61q22 26 52 41t64 15q7 0 29 -5q19 -6 29 -6q30 0 30 25q0 35 -61 35q-49 0 -94 -17q-44 -17 -75 -44.5t-56 -69.5 q-26 -45 -42 -86.5t-27 -95.5q-12 -58 -18 -102.5t-9 -101.5q-5 -77 -5 -177z" />
<glyph unicode="H" horiz-adv-x="740" d="M163 1532q0 -441 37 -934q5 -67 14 -299.5t9 -278.5q0 -28 32 -28q21 0 21 31q0 112 -17 370q-18 251 -18 370q27 7 145 7q21 0 39 1h39h13q20 -398 20 -712q0 -13 -1 -23q-1 -11 -1 -24q0 -17 6 -24.5t23 -7.5q13 0 20.5 12t7.5 28v29q0 73 -15 589q-15 515 -15 880 q0 12 -10 19.5t-25 7.5q-27 0 -27 -25q0 -127 10 -348q9 -232 9 -347l-2 -4q-35 0 -117 -8q-83 -8 -118 -8q-11 0 -11 53v100q0 61 -8 208q-9 138 -9 208v152q1 12 -6 19.5t-19 7.5q-26 0 -26 -21z" />
<glyph unicode="I" horiz-adv-x="660" d="M163 1513q0 -29 22 -29h70q6 -19 6 -130q0 -78 -1 -136l-1 -104l7 -195l9 -256q14 -397 14 -593h-80q-34 0 -34 -26q0 -13 10.5 -23.5t25.5 -10.5q76 0 124 -1q47 -1 112 -1q10 0 19 11t9 23q0 29 -46 29h-74q0 30 1 56t1 57q0 206 -25 646q-26 457 -26 644q0 5 3 8 q2 2 9.5 3.5t14.5 1.5h22q12 0 23 -1t26 -1q11 0 18 10t7 23q0 14 -10.5 21.5t-26.5 7.5q-48 0 -78 1h-58q-59 0 -76 -6q-17 -8 -17 -29z" />
<glyph unicode="J" horiz-adv-x="620" d="M158 1516q0 -12 8 -21.5t20 -9.5l61 2l62 2q0 -141 10 -370l1 -24q10 -299 10 -294q2 -81 12 -277q10 -187 10 -303q0 -223 -90 -313q-7 -7 -25 -18q-23 -15 -35.5 -27t-13.5 -23q0 -39 43 -39q52 35 86 78q35 43 54.5 84.5t29.5 100.5q10 56 12.5 104t2.5 137 q0 50 -22 493q-23 462 -23 691h46q34 0 45 5.5t11 25.5q0 13 -9.5 22.5t-23.5 9.5q-68 0 -109 1l-78 1q-60 0 -77 -7q-18 -7 -18 -31z" />
<glyph unicode="K" horiz-adv-x="820" d="M187 38q0 -37 6.5 -50.5t27.5 -13.5q20 0 26.5 13t6.5 47v729l29 48q8 12 15 24.5t15 24.5q4 10 11 20q12 20 17 28t6 11l14 -35q28 -81 144 -481l122 -422q4 -13 24 -13q15 0 25.5 8t10.5 22q0 7 -3 14q-15 55 -51 182.5t-71 249.5q-33 115 -83.5 268.5t-91.5 256.5 q-4 5 -4 13q0 3 2 11q6 10 76 180l12 30q73 179 103 245q5 10 20 36q28 45 33 83q0 14 -10 22t-25 8q-34 0 -145 -284q-13 -31 -77 -191q-66 -163 -110 -258h-2l4 248q3 239 3 341q0 58 -7 72q-7 15 -37 15q-17 0 -22 -24q-5 -28 -5 -73q0 -152 -4 -393q-5 -302 -5 -393 v-619z" />
<glyph unicode="L" horiz-adv-x="580" d="M171 1550q0 -128 11 -428q10 -273 10 -428q0 -107 10 -291t10 -290v-49l-1 -33q0 -18 9.5 -30.5t24.5 -12.5q122 0 165 1q10 0 17 1l14 1q11 0 18 12t7 28q0 37 -28 37h-126q-25 0 -28 1q-6 2 -6 6q-1 62 -12 255q-11 203 -11 280l-10 367q-8 198 -8 568q0 29 -36 29 q-12 0 -21 -6.5t-9 -17.5z" />
<glyph unicode="M" horiz-adv-x="980" d="M179 111q0 -107 58 -107q16 16 16 53q0 26 -5 98t-5 97q0 108 -3 325q-3 218 -3 326q0 217 8 414q7 -11 53 -234t94.5 -475t55.5 -306q4 -30 16 -47t27 -17q16 0 29.5 16t17.5 42q14 81 37 187q24 118 71.5 374.5t71.5 410.5q1 11 4 14l5 -84q3 -63 3 -98l-2 -115 l-2 -115q0 -98 8 -336q7 -209 7 -337v-187q0 -30 9 -43.5t36 -13.5q16 0 23 13t7 58q0 81 -5 206t-5 169q0 162 -16 462q-17 318 -17 464v203q0 17 -8 27.5t-20 10.5t-21.5 -11t-13.5 -32l-4 -28l-6 -33l-21 -115l-20 -106l-6 -33q-79 -428 -88 -469q-20 -113 -31 -180 l-32 -183q-44 265 -60 341q-37 170 -111 469.5t-92 357.5q-6 17 -21 17q-11 0 -20.5 -8.5t-9.5 -19.5v-179q0 -81 -3 -243t-3 -243q0 -116 -1 -208l-2 -207v-342z" />
<glyph unicode="N" horiz-adv-x="900" d="M179 1509q0 -12 1 -21q1 -10 1 -22l2 -193q1 -86 1 -194v-268q0 -119 3 -356l2 -357q0 -67 -4 -82l6 -16h47l14 16q0 77 -5 292t-5 292v741q0 59 2 85q73 -362 84 -410q26 -109 252 -922l6 -30q6 -34 8 -40q4 -18 16 -32.5t27 -14.5q52 0 52 60q0 40 5 162t5 161 q0 162 3 483l2 486v131l2 33q1 17 1 42q0 60 -16 60q-35 0 -42 -28l2 -289q0 -88 -1 -158l-2 -159q0 -145 -4 -356q-4 -212 -4 -357q0 -71 -13 -98q-44 133 -106 389q-142 530 -148 557q-17 73 -48 217l-10 47q-29 132 -34 153q-4 14 -19 26.5t-28 12.5q-29 0 -42 -9 t-13 -34z" />
<glyph unicode="O" horiz-adv-x="840" d="M171 942q0 -985 284 -985q78 0 122 74q24 42 39 81.5t24 95.5q11 69 15.5 112t7.5 103q3 87 3 189v6q0 275 -49 621q-5 39 -16 97q-10 45 -28.5 91t-41.5 74q-26 32 -67 51t-91 19q-53 0 -90 -34q-37 -33 -58.5 -83.5t-33.5 -130.5q-12 -73 -16 -139t-4 -159v-83z M232 831v100q0 87 6 208q4 70 14 129.5t27 124.5q15 60 42 92.5t62 32.5q40 0 73 -28.5t55 -81.5q25 -62 41.5 -121t25.5 -133l3 -27q17 -148 22 -260q3 -105 3 -205v-9q0 -83 -6 -214q-6 -138 -39 -282q-15 -67 -42 -105t-60 -38q-52 0 -94 72q-40 67 -64 164.5t-42 233.5 q-27 208 -27 347z" />
<glyph unicode="P" horiz-adv-x="660" d="M171 1536q0 -86 8 -270q10 -267 10 -508q0 -93 1 -166t1 -166q0 -62 3 -184q3 -121 3 -183q0 -71 25 -71q26 0 35.5 15t9.5 48q0 99 -8 337q-9 224 -9 337q77 17 138 99q58 78 88 174t30 188q0 69 -18.5 135t-53.5 121q-36 57 -95 90t-130 33q-11 0 -15 -2q-6 -2 -10 -8 q-5 -5 -8 -11zM222 1505q63 0 109.5 -29.5t71.5 -80.5q46 -96 46 -213q0 -201 -133 -334l-14 -15l-15 -16q-17 -15 -37 -16l-4 4q0 118 -12 350q-12 233 -12 350z" />
<glyph unicode="Q" horiz-adv-x="860" d="M179 765q0 -56 1 -99v-93q0 -39 2 -91q2 -48 8.5 -106.5t17.5 -98.5q12 -49 35 -97.5t52 -78.5q32 -34 80 -54t106 -20q7 -21 19 -98q13 -81 33 -125t57 -60q7 -2 29 -14q23 -13 32 -13q78 0 78 39q0 27 -64 27h-8q-33 0 -52 25q-17 21 -22 45.5t-10 77.5q-5 45 -8 55 l-10 29q-8 21 -10 38q127 181 127 541q0 478 -56 797q-8 45 -43.5 88.5t-85 70.5t-96.5 27q-74 0 -116 -77q-44 -81 -63 -194q-22 -134 -27 -262q-6 -125 -6 -279zM238 590v123q0 36 2 126q7 220 23 349q12 99 28 172t39 115q26 45 57 45q37 0 68 -15t52 -45q23 -33 39 -68 t25 -80q11 -62 16.5 -99.5t8.5 -88.5q4 -100 4 -183v-54q0 -423 -34 -614q-34 -193 -109 -193q-53 0 -94 41q-39 39 -62.5 95.5t-38.5 137.5q-24 119 -24 236z" />
<glyph unicode="R" horiz-adv-x="700" d="M187 20q0 -15 10 -24.5t25 -9.5q37 0 37 41v30l-4 789q9 2 27 13l21 11q24 -90 53 -239q34 -172 40 -199q20 -96 84 -322q20 -70 25 -90q10 -40 51 -40q14 0 22 12.5t8 31.5q0 13 -3 23l-220 855q14 14 33 54.5t29 69.5q41 109 41 205q0 59 -14 115.5t-40 104.5 q-28 49 -73 77t-100 28q-37 0 -37 -18v-264q0 -234 -7 -611q-8 -432 -8 -612v-31zM254 913v578q3 0 5 1h5q35 0 63 -31.5t44 -81.5q27 -92 27 -173q0 -46 -9.5 -103t-24.5 -85q-16 -28 -54.5 -66.5t-55.5 -38.5z" />
<glyph unicode="S" horiz-adv-x="700" d="M147 6q14 -24 38 -35q23 -11 41.5 -13.5t55.5 -2.5q61 0 113 36.5t83 96.5q29 57 44.5 120.5t15.5 121.5q0 94 -22 185q-17 72 -41 131.5t-66 144.5l-19 40q-39 79 -72 150q-35 73 -56 158t-21 166q0 48 15 94q16 51 52.5 86t82.5 35q15 0 34 -10q20 -11 33 -11t13 16 q0 13 -17 26.5t-40 22.5t-38 9q-65 0 -114 -47q-46 -46 -68.5 -108t-22.5 -130q0 -99 30 -198q23 -75 53 -140.5t79 -159.5l28 -54q47 -91 75 -193.5t28 -202.5q0 -44 -10 -98t-30 -109q-21 -59 -58.5 -96t-83.5 -37q-20 0 -55 16q-37 15 -58 15q-22 0 -22 -25z" />
<glyph unicode="T" horiz-adv-x="720" d="M54 1505q0 -15 13 -23t30 -8h231q5 0 5 -221q0 -100 -1 -133l-1 -59q0 -86 5 -328q5 -243 5 -327v-183q0 -146 -1 -183q0 -22 11 -37t31 -15q14 0 21 9q6 8 7.5 16.5t1.5 28.5v6l-1 151l-1 169v832v159l-1 119h-1l18 2l92 1h91q39 0 39 30q0 18 -9 26.5t-34 8.5l-225 -1 l-205 -1q-52 0 -82 -5q-26 -6 -32.5 -12t-6.5 -22z" />
<glyph unicode="U" horiz-adv-x="860" d="M155 1479q0 -10 1 -17v-14q0 -192 15.5 -535t25.5 -440l2 -34q2 -42 4 -65q3 -35 11 -85t19 -89q12 -45 33 -90t47 -76q27 -33 68 -53t88 -20q48 0 86 23q36 22 57 55.5t34 83.5q12 45 16 84t4 88q0 113 -3 339q-4 201 -4 349v184q-1 82 -1 185v155q0 22 -11.5 35 t-28.5 13t-28.5 -13t-11.5 -35q0 -46 5 -174q4 -103 4 -174l9 -262q9 -253 9 -383v-233q0 -28 -2 -68q-3 -35 -12 -70.5t-23 -57.5q-16 -26 -43.5 -42t-62.5 -16q-38 0 -70 32q-31 30 -51 72.5t-36 105.5q-26 96 -34 185q-15 142 -29 466t-14 564q0 9 1 16v15q0 25 -9 37 t-33 12q-32 0 -32 -53z" />
<glyph unicode="V" horiz-adv-x="740" d="M118 1512q0 14 9 25t20 11q8 0 14 -3q9 -4 18 -23q6 -13 9 -31l4 -29q9 -48 46 -265l103 -704l27 -194l26 -187q9 86 14 146l23 236q13 115 49 449l30 288l7 67q3 25 15 103q12 83 14 115q3 38 39 38l12 -8h-4l21 -16q0 -62 -17 -175l-12 -79q-9 -65 -40 -329 q-33 -275 -65.5 -570.5t-33.5 -349.5q-16 -45 -39 -45q-3 0 -9 2l-22 6q-34 139 -82 452l-112 732l-20 89q-44 184 -44 249zM390 101h7l-3 5z" />
<glyph unicode="W" horiz-adv-x="960" d="M83 1513q6 11 18.5 19t24.5 8q31 0 42 -11t11 -36v-18q-1 -9 -1 -21q0 -17 1 -22q56 -601 133 -1253h4q8 57 24 325q18 284 22 334q5 63 24 180q20 118 24 166l7 93l3 42q2 26 2 27q0 5 1 13t2 13q0 3 3.5 7t8.5 7q15 0 23.5 -3t13.5 -11t7 -14t4 -17l3 -18 q21 -106 88.5 -564t81.5 -603l6 -4l76 829q6 84 26 246q21 179 21 276q0 11 -1 20t-1 19q0 25 11.5 37t41.5 12q13 0 26 -10t13 -22q0 -21 -22 -39q2 -6 2 -13q0 -10 -4 -26.5t-4 -18.5q-21 -165 -55 -543q-34 -363 -42 -423q-8 -89 -17 -162l-23 -208q-1 -10 -4 -38 q-7 -55 -7 -65q0 -26 -7.5 -38t-29.5 -12q-32 0 -39 25q-6 19 -7 57l-3 31q-60 399 -148 1123l-6 4l-1 -2l-1 -2q-80 -888 -102 -1119v-36q0 -81 -35 -81q-39 0 -39 46q0 13 1 23t1 22v10q-6 50 -37 248l-18 112q-7 45 -39 320q-32 278 -63 505q-31 231 -45 254z" />
<glyph unicode="X" horiz-adv-x="680" d="M139 12q0 -8 11 -16t20 -8q5 0 15 2q2 1 9 3t11 9q7 12 9 20q3 10 5 26l2 13q14 79 65.5 316.5t59.5 251.5q17 -66 73 -350l10 -54l10 -59q11 -66 11 -113q0 -12 6 -18t11.5 -7t19.5 -1q33 0 33 43q0 18 -4 39l-5 25l-22 104l-108 553q0 23 3 48q4 43 17 112 q4 27 10.5 59t10.5 51q57 293 84 387q3 10 14 35q12 30 12 47q0 22 -37 22q-13 0 -23.5 -13.5t-16.5 -37.5q-11 -39 -17 -90q-3 -29 -4 -31q-69 -376 -80 -458q-13 79 -51 267q-37 176 -49 245q0 -1 -2 27q-1 8 -1 15.5t-1 14.5q-2 12 -12 21.5t-27 9.5t-33 -27 q2 -41 24 -113q23 -75 27 -94q9 -43 33 -142q26 -111 37.5 -184t11.5 -141q0 -14 -2 -48q-4 -45 -16 -105l-21 -103q-35 -166 -95 -395q-38 -135 -38 -158z" />
<glyph unicode="Y" horiz-adv-x="620" d="M139 1513q0 -35 30 -133q17 -59 32 -126.5t36 -174.5l27 -141q1 -3 3 -13.5t8 -32.5q21 -89 21 -116q0 -33 13 -94q12 -63 12 -96q0 -31 7 -83t7 -83q0 -51 -5 -198t-5 -197q0 -19 7.5 -34.5t21.5 -15.5q21 0 33 17.5t12 42.5q0 4 -1 7t-1 7l-6 6q4 121 4 414 q0 46 -7 123q-8 88 -8 123v16l13 31q0 12 -3 34q-3 23 -3 33q0 66 8.5 151.5t18.5 148.5q16 96 54 305q2 13 9 40q8 30 8 44q0 11 -5 16q-4 4 -8.5 5t-9.5 1h-8q-34 0 -60 -135q-27 -141 -41 -298q-17 -168 -20 -177q-17 23 -46 145t-54 260.5t-29 194.5l-24 16 q-17 0 -29 -9t-12 -24z" />
<glyph unicode="Z" horiz-adv-x="620" d="M155 8q11 -26 31 -26q50 0 122 4q71 4 121 4l19 18q0 41 -86 41q-18 0 -66 -5t-67 -5q0 31 22 82t25 74q31 189 82 580l26 199q36 269 35 265q4 25 9 90q5 75 12 122t20 75q0 37 -33 37q-36 0 -96 -10q-66 -11 -96 -11q-34 0 -49 4l-15 -16q0 -41 92 -41q18 0 70 5t68 5 q-1 -59 -17 -160l-6 -39l-4 -32q-19 -141 -78 -566l-16 -114q-11 -49 -26 -181q-14 -137 -36 -232t-63 -167z" />
<glyph unicode="[" horiz-adv-x="620" d="M147 -35q0 -24 80 -38.5t151 -14.5q35 0 35 20q0 25 -41 36q-44 11 -102 14q-63 3 -68 4l9 16v49q13 39 26 320l17 256l6 93q12 171 14 211q6 99 11 256t5 271q0 43 62 43q20 0 57 -6q38 -6 58 -6q12 0 22 6.5t10 15.5q0 13 -20 22q-31 13 -116 17q-40 2 -99 2l-41 -24 q2 -8 11 -22q9 -15 9 -25q0 -162 -26 -505q-27 -336 -27 -505q0 -85 -21 -253q-22 -164 -22 -253z" />
<glyph unicode="\" horiz-adv-x="680" d="M131 1505q0 -7 9 -49l20 -87l12 -52q23 -122 54 -260q40 -183 95 -413l23 -95l46 -193l13 -57l41 -178l6 -28q6 -33 17 -64q12 -33 37 -35q20 14 20 37q0 42 -10 95.5t-33 145.5q-13 47 -29 115q-141 620 -256 1061q-1 1 -3 13l-6 22q-8 31 -16 42q-4 7 -9 7 q-13 0 -22 -7.5t-9 -19.5z" />
<glyph unicode="]" horiz-adv-x="740" d="M227 1511q0 -20 48 -20h11q25 0 58 4t57 4q20 0 27.5 -9t7.5 -32q0 -46 6 -132l6 -122q8 -266 31 -693.5t37 -459.5v-49l8 -16q-4 -1 -67 -4q-59 -3 -102 -14q-42 -11 -42 -36q0 -20 35 -20q71 0 151 14.5t80 38.5q0 87 -20 273q-21 182 -21 272q0 162 -27 486 q-28 317 -28 485q0 10 9 25q9 14 11 22l-41 24q-59 0 -98 -2q-86 -4 -117 -17q-20 -9 -20 -22z" />
<glyph unicode="^" d="M186 389q0 -6 7.5 -12t15.5 -9l27 11q56 277 82 438q5 31 18 127q13 102 24.5 165t27.5 114q69 -472 116 -653l7 -35q13 -68 25 -110q9 -30 20.5 -47t25.5 -17q8 0 17 9t9 16t-11 53l-7 25q-18 67 -19 70l-18 63q-56 227 -69 316q-13 83 -22 155q-15 100 -19 155 q-8 86 -8 153l-23 19q-24 0 -40 -18.5t-24 -51.5q-14 -58 -18 -127q-1 -23 -4 -47q-10 -52 -25 -116l-8 -33q-15 -57 -22.5 -98t-25.5 -164q-24 -157 -28 -175q-31 -134 -31 -176zM390 1229v8l2 -4z" />
<glyph unicode="_" horiz-adv-x="880" d="M227 -15q0 -15 13 -25t29 -10h302q214 0 214 6h62q0 14 -14 24.5t-30 10.5h-294q-282 0 -282 -6z" />
<glyph unicode="`" horiz-adv-x="680" d="M32 1257q0 -41 70 -41q16 0 33 4q8 -5 105.5 -39.5t101.5 -34.5q7 0 15.5 5.5t8.5 11.5q0 17 -39 39q-34 19 -84 39q-54 21 -81 30q-10 3 -16.5 5t-8.5 3q-18 23 -79 23h-13q-13 -9 -13 -45z" />
<glyph unicode="a" horiz-adv-x="740" d="M123 25q0 -12 14 -23.5t27 -11.5q16 0 31 35q13 34 24 86q18 95 23 147l4 41q1 1 1 3t1 4q1 5 4 7t10 2q19 0 71 -5t75 -5q64 0 101 -10l34 -268q3 -22 7 -31t13 -11.5t31 -2.5q16 9 16 30v6q-89 703 -114 992l-12 108q-8 70 -11.5 118.5t-3.5 106.5q0 13 -11.5 22 t-25.5 9q-12 -12 -37 -12q-8 0 -14 1l-14 1q-5 -9 -13 -61q-5 -28 -10 -83l-4 -33l-8 -75q-10 -65 -36 -190q-27 -122 -36 -179l-22 -135l-12 -72q-7 -46 -14 -83l-23 -127q-28 -158 -62 -289l-2 -6zM264 376q0 65 47 298q5 20 111 547q63 -656 78 -871h-21q-57 0 -136 8 t-79 18z" />
<glyph unicode="b" horiz-adv-x="660" d="M171 84q0 -38 2 -64q0 -18 10.5 -30.5t28.5 -12.5q92 0 157 50q122 94 122 290v29l-2 53q-3 53 -8 108q-7 51 -31.5 107t-61.5 84q4 8 29 44q26 40 31 53h-2q33 90 33 243q0 93 -13.5 153t-50.5 118l2 6q0 12 -37 27.5t-82.5 27.5t-64.5 12q-24 0 -33.5 -13.5t-9.5 -39.5 v-12l8 -10q2 -54 2 -119q0 -81 -6 -245q-6 -163 -6 -245l2 -90l2 -92q0 -78 -10 -215q-11 -152 -11 -217zM241 150q0 76 12 98q-6 35 -6 94v47q0 133 10 279q43 0 77 -26q32 -26 50 -62t29 -90q10 -47 12.5 -82.5t2.5 -82.5v-22v-17l-1 -7q0 -52 -25 -104t-67.5 -85 t-91.5 -33l-1 40q-1 21 -1 53zM251 766v25q0 41 1 73q1 31 1 70q0 21 -1 40t-1 70q0 269 45 269q27 0 48.5 -17t32.5 -46q17 -46 22 -107l4 -4l3 -39q3 -48 3 -88q0 -273 -135 -273h-15l-4 14z" />
<glyph unicode="c" horiz-adv-x="720" d="M171 446q0 -76 4 -123q9 -154 51 -234q25 -46 53 -69t67 -35q34 -10 48 -18h68q26 10 52 29.5t26 34.5q0 22 -31 22q-21 -18 -51 -18q-49 0 -86 16.5t-60 48.5q-24 34 -39 68.5t-21 79.5q-6 46 -8.5 82t-2.5 84q0 83 4 206t4 207l4 11q0 41 3 89q3 53 13.5 123t25.5 120 q18 58 49 95.5t71 37.5h86l27 30q0 5 -2 13q-1 3 -6 8q-1 1 -9 5q-2 0 -11 3q-3 0 -5 1l-6 1h-82q-19 -10 -51 -22q-37 -15 -56 -29q-37 -28 -63 -93q-26 -63 -38.5 -126t-18.5 -157q-6 -86 -7.5 -131.5t-1.5 -125.5v-234z" />
<glyph unicode="d" d="M163 1311q0 -27 17 -41q8 -184 8 -385l-2 -242l-2 -242q0 -186 8 -356q0 -55 18 -55h142q63 34 109 79.5t70 90.5q21 40 36 99.5t20 111.5q17 182 29 247q-11 22 -11 62q0 11 1 20v17q0 27 1 48t1 48q0 156 -33 244q-8 20 -35 58q-30 41 -31 52l2 4q-23 17 -69 62 q-52 48 -82 63q-12 7 -48 13q-34 5 -48 12q-3 1 -21 19q-17 16 -31 16q-15 0 -32 -15t-17 -30zM247 883q0 379 23 379q58 0 109.5 -40t84.5 -104q31 -62 49.5 -126.5t20.5 -119.5l10 -206q0 -19 1 -35q1 -17 1 -39q0 -362 -145 -492l-16 -13q-4 -3 -7.5 -5.5t-6.5 -5.5 q-14 -10 -26 -27h-63l-6 27l-8 4l2 39q-23 331 -23 764z" />
<glyph unicode="e" horiz-adv-x="640" d="M179 76l7 -8q0 -14 -1 -26t-1 -26q3 -43 41 -43h169q89 0 89 37q0 27 -60 27l-39 -2l-37 -2q-49 0 -67 15.5t-21 62.5q-6 83 -6 163l2 146l2 145q0 115 -4 162v6l10 10h9l67 -10q13 -16 47 -16q19 0 30 15.5t11 37.5q-1 37 -80 37q-5 0 -35 -2l-34 -2q-29 0 -29 57 q0 64 4 159t4 159q0 50 -2 88l10 12q54 -2 166 -39q38 22 38 41t-38 31t-89 18q-47 5 -60 8q-10 13 -33 13q-32 0 -45.5 -14t-13.5 -44q0 -50 4 -122q4 -73 4 -123q0 -117 -7 -309t-7 -308q0 -35 5 -135t5 -135q0 -43 -15 -84z" />
<glyph unicode="f" horiz-adv-x="620" d="M163 2l41 -31q49 0 49 82q0 50 -6 147q-6 98 -6 146v232q0 100 37 100q12 0 34 -6q23 -6 34 -6q18 0 33.5 11.5t15.5 27.5q0 32 -103 32h-11q-23 0 -23 6v72q0 78 10 215q10 136 10 217q6 14 8 22q3 11 5 14t9 5q10 2 25 2q75 0 113 -20q73 0 73 35q0 18 -42.5 31.5 t-101 20.5t-101.5 7q-22 0 -39 -10.5t-17 -28.5q0 -127 -14 -412q-14 -286 -14 -413q0 -307 -19 -498z" />
<glyph unicode="g" horiz-adv-x="820" d="M155 623q0 -121 25 -321q17 -143 39 -207t67 -86.5t139 -22.5q103 0 209 106q0 64 -4 157t-4 157q0 26 12 77q11 53 11 76q0 14 -24 23q-22 8 -61 13q-61 5 -104 5q-49 0 -49 -35q0 -24 49 -24q14 0 23 1l16 1q51 0 72 -21v-113q0 -77 -5 -156q-3 -43 -11 -75t-22 -68 q-13 -31 -35 -48t-50 -17q-71 0 -112 35q-37 32 -51 82.5t-18 121.5q-6 86 -11 129.5t-19 65.5q-6 50 -6 150q0 74 3 158q2 59 6.5 107.5t13.5 117.5q8 60 21.5 107t34.5 94q18 42 45.5 64.5t61.5 22.5l20 -2l19 -2q15 0 28 9t13 22q0 29 -63 29q-12 0 -32 -2 q-93 -10 -139 -66t-61 -134t-24 -215l-2 -28l-11 -128q-10 -99 -10 -160z" />
<glyph unicode="h" horiz-adv-x="740" d="M179 1315q0 -69 8 -239q7 -150 7 -240q0 -117 -10 -136q6 -13 6 -200l-2 -187l-2 -188q0 -123 45 -123q17 0 25.5 15.5t8.5 37.5q0 57 -6 171t-6 171l-6 9q0 44 3 129q3 86 3 129l21 8q24 0 65 -10q46 -11 66 -11q23 0 41 6l32 -8q7 -41 7 -76l-7 -18l5 -8 q0 -116 10 -549q62 0 63 -21l13 23q-13 169 -13 406q0 170 -13 478q-13 306 -13 478l-18 7q-18 5 -19 5q-13 0 -24 -9.5t-11 -21.5q0 -88 14 -282q13 -182 13 -283q0 -37 -17 -52t-57 -15h-7q-157 0 -157 24q0 97 4 248q4 149 4 252q0 119 -41 119q-14 0 -24.5 -12 t-10.5 -27zM427 735h4l-4 4v-4z" />
<glyph unicode="i" horiz-adv-x="700" d="M147 1325q0 -35 39 -35l25 2l24 2q42 0 61 -6q10 -93 10 -237q0 -61 -5 -238q-5 -178 -5 -240q0 -66 8 -224q7 -139 7 -224q0 -7 -3 -24q-4 -15 -4 -19l-8 -8h-59l-12 -11q-9 -6 -12 -11t-3 -13q12 -21 56 -21q9 0 17 1q7 1 17 1q8 -20 56 -20q13 0 35 12q24 11 38 11 q12 0 34 -3q20 -4 34 -4q19 0 32 11.5t13 29.5q0 29 -61 29q-17 0 -30 -1t-30 -1q-45 0 -45 20l2 5q-6 9 -6 57q0 22 1 37l1 26q0 85 -7 225q-7 139 -7 224q0 81 3 244q3 162 3 243q0 91 -6 109l10 6q43 0 59 -12l47 4q5 12 5 16q0 22 -36 35q-41 15 -94 19q-88 8 -155 8 q-13 0 -31 -8.5t-18 -16.5z" />
<glyph unicode="j" horiz-adv-x="620" d="M102 -197l1 -4l1 -4l47 -47h14q49 0 91.5 34t67.5 88q24 51 37 102.5t13 93.5q0 59 12 86v225q0 154 -10 424t-10 426q0 41 18 41q22 0 56 -10q36 -11 55 -11q13 0 23 7.5t10 19.5q0 17 -66.5 37t-151 34.5t-124.5 14.5q-10 0 -26.5 -8.5t-16.5 -16.5q0 -16 30 -27 q32 -12 70 -16q41 -6 49 -10l12 -22q0 -198 10 -544q9 -363 9 -544q0 -73 -17.5 -147t-48.5 -109q-6 -7 -47 -34l-46 -30l-28 -19q-34 -22 -34 -30z" />
<glyph unicode="k" horiz-adv-x="760" d="M171 10q0 -26 9 -34.5t36 -8.5q13 0 23 7t10 18q0 22 -7 58t-7 59v262q0 19 5 74t5 73q0 37 11 81q10 39 18.5 60t36.5 78l32 66l5 -8q2 -49 24.5 -158t59 -241.5t79.5 -248.5q67 -184 115 -184q15 0 25 8.5t10 22.5q0 19 -9.5 39.5t-29.5 47.5q-16 20 -25 36 q-32 61 -77.5 202t-79 281t-33.5 199l2 65l2 66q93 194 219 379q-3 34 -55 34q-14 0 -153 -274q-140 -275 -160 -283q0 88 4 217t4 216q0 65 18 98q0 15 -12 27t-27 12q-27 0 -39 -23v-284q0 -72 -10 -198q-10 -127 -10 -198q0 -43 -9 -129q-10 -81 -10 -129v-385z" />
<glyph unicode="l" horiz-adv-x="640" d="M179 20q5 -47 34 -47q15 0 38 4q26 3 38 3l-4 2q100 0 170 -2q33 3 33 26q0 12 -10 23.5t-21 11.5h-6l-87 3q-76 3 -106 3q-9 0 -10 10q-2 12 -2 41v13l6 196q-6 12 -6 29q0 5 1 8t1 8l-2 -2l6 17l-2 87l-2 87q0 23 3 84l3 88q0 124 -1 223t-1 223q0 45 1 81t1 81 q0 -1 -5 1q-19 7 -29 7q-15 0 -15 -14l-5 -62q-5 -65 -5 -73q0 -164 -6 -533q-6 -370 -6 -559q0 -51 -4 -68z" />
<glyph unicode="m" horiz-adv-x="1160" d="M147 -10q0 -7 14 -18t21 -11q34 0 43 27q-2 36 -2 82q0 152 6.5 322.5t20.5 419.5q13 224 18 337q23 -22 83 -236t112.5 -445.5t52.5 -285.5q0 -35 14 -51t47 -16q14 0 25 12.5t17 33.5q10 34 16 83q1 15 4 30q206 832 246 863q8 -27 8 -97q0 -51 -4 -127t-4 -127 q0 -27 8 -89q5 -37 8 -76q12 -166 12 -462v-134q0 -131 41 -131q19 0 32 22t13 45q0 7 -3 19l-5 16q-16 70 -16 197l2 108l2 107q-27 45 -27 903q0 12 -18.5 24.5t-32.5 12.5q-34 0 -49 -42q-7 -20 -12 -37.5t-8 -41.5q-5 -32 -5 -31q-12 -65 -68.5 -282.5t-112.5 -411 t-71 -215.5q-1 46 -9.5 98t-26.5 123q-18 74 -23 100l-27 54q-6 34 -18 79.5t-26 96.5q-16 54 -17 59l-6 21q-15 54 -59 153q-48 107 -58 164q0 -1 -2 25q-1 30 -9 61q-4 15 -14.5 23t-25.5 8q-55 0 -55 -31q0 -7 6 -19q6 -13 6 -20q0 -209 -32 -646t-32 -646zM880 1147l3 2 h2v-4z" />
<glyph unicode="n" horiz-adv-x="1000" d="M179 829q0 -112 7 -294q6 -196 6 -295q0 -28 -4 -67q-4 -40 -4 -67q0 -110 43 -110q17 0 27.5 12.5t10.5 28.5q0 29 -8 43v184q-14 37 -14 377h6l-4 66q-4 44 -4 77l2 49l2 50l-2 80l-2 81q0 83 16 144q48 -46 232 -617q48 -145 55 -153q10 -31 38 -107q54 -145 68 -235 l-2 -6q5 -8 9 -29q5 -24 13 -36.5t23 -12.5q4 0 22 5l1 -1v1q24 7 35 9q13 26 28 250t26 492t11 380l11 17v137q0 22 -13 40.5t-32 18.5q-29 0 -29 -43l2 -26l2 -25q0 -664 -47 -1116l-4 -6q-29 50 -50.5 114.5t-41.5 154.5q-20 83 -33 126q-37 114 -146 367 q-112 260 -147 407l-2 11l-3 12q-4 11 -9 18q-9 9 -19 13l-20 -5l-6 7q-37 -31 -37 -132v-26q0 -59 -6 -181q-7 -113 -7 -182z" />
<glyph unicode="o" horiz-adv-x="820" d="M171 715q0 -754 240 -754q46 0 81 25q35 23 58.5 60.5t41.5 93.5q16 52 25.5 102.5t15.5 116.5q5 56 6 100.5t1 87.5l-2 122l-2 122l4 10q0 130 -21.5 249t-64.5 193q-38 72 -78 79q-4 1 -45 8t-84 22q-18 5 -28 5q-148 0 -148 -571v-71zM235 717q0 24 5 96t5 96 q7 32 9.5 77.5t3 82.5t0.5 47q1 44 9 88q17 90 111 90q47 0 86.5 -30.5t62.5 -81t23 -109.5l-4 -10l8 -16q0 -81 12 -242q11 -168 11 -242q0 -91 -8 -196q-9 -121 -47 -233q-18 -54 -49 -84t-70 -30q-41 0 -72 49q-29 46 -46 109.5t-29 154.5q-17 132 -17 222l-2 81z" />
<glyph unicode="p" horiz-adv-x="640" d="M171 698q0 -18 13 -47q0 -77 -4 -190q-5 -142 -5 -191q0 -169 23 -295l29 -16q39 0 39 37q0 57 -8 199q-9 134 -9 200v244q48 15 85 33q39 19 63.5 37t40.5 44q19 30 28 53t13 61t5 74.5t1 84.5q0 196 -51 242q-29 24 -70 45.5t-64 21.5h-90q-11 0 -30 -51 q12 -31 12 -397q0 -154 -21 -189zM247 1217q0 30 9.5 42.5t35.5 12.5q34 0 58 -12t37 -29t21 -45q7 -26 9 -48t2 -59v-55q-3 -86 -12 -137q-17 -86 -45 -124q-18 -24 -43.5 -39t-56.5 -15l-13 20q0 39 4 96t4 97q0 38 -5 148q-5 108 -5 147z" />
<glyph unicode="q" horiz-adv-x="840" d="M179 707q0 -245 23 -480q7 -82 23 -134.5t45 -84.5q27 -32 61 -48t92 -28l16 -80q1 -7 7 -40l9 -49q6 -33 10.5 -80t4.5 -84q14 -16 55 -24.5t80 -8.5q27 0 27 26q0 16 -11.5 23t-29.5 7h-11q-38 0 -51 13l-15 71q-13 55 -17 78q-7 31 -12 72.5t-5 73.5q0 8 6 13t19 11 l14 7q37 23 67 122.5t47 234.5q14 124 22 231t8 172v96q0 59 -1.5 99t-7.5 94q-6 55 -18.5 100.5t-33.5 94.5q-40 92 -132 136q-15 7 -43 14q-33 8 -45 13q-203 -12 -203 -652v-9zM232 702q0 68 8 203q8 139 40 272q15 64 39.5 101t56.5 37q225 0 225 -443v-358 q0 -56 -16 -168q-18 -132 -53.5 -240t-73.5 -108q-10 0 -30 -6t-30 -6q-159 0 -159 589v89q0 6 -3 19q-4 12 -4 19z" />
<glyph unicode="r" horiz-adv-x="660" d="M179 1288q0 -403 33 -1290l15 -16h30l15 34q-10 34 -17 215q-18 338 -18 449q0 29 45 29h8q22 0 47 -103q27 -110 47 -231q24 -144 52.5 -258.5t52.5 -141.5l30 -10q23 0 23 29q0 18 -16 49q-11 21 -14 27.5t-3 7.5q-6 16 -84 336t-78 327q0 3 27 52q31 59 55.5 123 t24.5 102v149q0 95 -63.5 147t-166.5 52q-19 0 -30 -14q-10 -13 -12.5 -26t-2.5 -38zM237 1260q0 18 6.5 35.5t17.5 17.5q45 0 74.5 -18.5t42.5 -53.5q12 -34 16.5 -65t4.5 -78q0 -36 -8.5 -89t-24.5 -110q-16 -60 -47.5 -99.5t-69.5 -39.5l-4 4q0 101 -4 248t-4 248z" />
<glyph unicode="s" horiz-adv-x="660" d="M179 25q3 -19 22.5 -32.5t43.5 -17.5l10 5q50 0 90 24q38 22 62.5 57.5t42.5 86.5q28 81 28 184q0 63 -7 112q-8 54 -18 91t-30 81q-19 41 -38 75t-47 81l-16 27l-36 63l-15 37l-10 36q-11 32 -12 41l-7 34q-10 40 -10 80q0 63 25 138q13 40 37 64.5t55 24.5q9 0 22 -6 q14 -6 21 -6q27 0 27 16q0 21 -26.5 39t-51.5 18q-40 0 -73 -29.5t-52 -77.5q-18 -45 -27.5 -90.5t-9.5 -82.5q0 -82 26 -163q18 -59 42 -107t67 -126l24 -43q39 -71 63 -149t24 -154q0 -98 -30 -200q-17 -58 -51.5 -93.5t-80.5 -35.5q-14 0 -38 7q-20 5 -36 7zM406 1311v2 q2 0 2 -2h-2z" />
<glyph unicode="t" horiz-adv-x="700" d="M82 1337q0 -24 42 -32q39 -7 170 -7q1 -137 22 -490q20 -343 20 -509q8 -22 8 -49l-2 -36l-2 -36l2 -74l2 -75l23 -17q16 0 34 12.5t18 26.5q0 201 -24 601q-24 401 -24 601q0 29 2 39q2 6 8 6q27 0 88 -4t87 -4q19 0 32 7t13 20q0 26 -37 26l-43 -1l-44 -1 q-54 0 -178 10q-131 9 -178 9q-30 0 -39 -23z" />
<glyph unicode="u" d="M175 1319q7 -54 10.5 -198t7.5 -418l1 -66q3 -218 20 -389t45 -207q24 -29 62 -50t71 -22q50 0 87.5 34t58.5 97q42 124 49 301q6 137 9 338q2 102 5 140q0 12 -1 21t-1 20q0 19 5 81t5 82q0 7 -2 13q13 49 13 209q0 56 -5 71q-6 13 -30 13q-35 0 -35 -23l2 -18l2 -19 q0 -332 -14 -833l-3 -42q-26 -429 -120 -429q-154 0 -154 233q0 65 -11 217t-11 217l-6 543q0 107 -47 113z" />
<glyph unicode="v" d="M123 1341q0 -9 12 -53l26 -94l17 -64q82 -361 132 -668.5t50 -467.5l23 -19q24 0 40.5 18.5t24.5 51.5q12 52 17 128q1 21 4 46q5 24 26 108q18 68 24 109t18 164q0 8 2 24q13 136 24.5 207.5t41.5 204.5l36 162l12 54q19 81 19 122q0 6 -7.5 12t-15.5 9l-27 -11 q-9 -53 -63 -321q-53 -262 -82 -510q-29 -269 -70 -406l-14 100q-13 86 -15 105l-5 34q-5 30 -12 77.5t-14 89.5l-16 96q-10 69 -18 105q-7 31 -18 97l-21 105q-26 120 -47 201q-6 31 -7 36q-14 72 -25 110q-9 29 -20.5 46t-25.5 17q-8 0 -17 -9t-9 -16zM403 137l2 4v-8z " />
<glyph unicode="w" horiz-adv-x="920" d="M115 1311q19 -52 28 -109q8 -53 12 -95t6 -106l2 -34q4 -91 8 -138.5t20 -157.5l8 -55q12 -80 16 -121t12 -185q11 -169 27 -261q17 -92 47 -92q14 0 24 25q12 28 19 65q16 85 22 151l5 44q13 91 25 169q21 139 29.5 223.5t8.5 168.5q0 53 10 139l11 111q21 -21 40 -173 q16 -128 35 -347q13 -170 17.5 -209.5t16.5 -105.5q1 -5 8 -41q17 -96 22 -154l1 -18q0 -23 6 -47q3 -12 10.5 -19t17.5 -7q18 0 31 28t17 71q7 69 7 125q0 21 11 67q11 44 12 56q8 65 24.5 313.5t16.5 320.5l6 9l-6 39q0 12 6 24l-6 14l12 41q-4 5 -4 23q0 111 18 192 l-4 13q10 34 10 88q0 15 -5 19.5t-23 4.5q-41 0 -41 -32q8 -14 8 -35q0 -56 -13 -159q-14 -110 -14 -159q0 -199 -17 -469.5t-42 -339.5q-13 34 -21 78q-8 40 -10 68t-5 90l-5 76q-27 386 -109 661q5 12 5 17q0 12 -10.5 20t-24.5 8l-37 -16q0 -23 -14 -127q-8 -55 -13 -197 q-6 -134 -14 -216l-3 -29q-9 -91 -21 -184q-9 -61 -13 -100l-31 -214h-2q-6 11 -11 55q-4 38 -11 55q-5 191 -46 534q-44 349 -48 406v27q-2 52 -6 83q-4 21 -13 33.5t-22 12.5q-24 0 -33 -16zM633 176v2q2 0 2 -2h-2z" />
<glyph unicode="x" horiz-adv-x="640" d="M147 1315q0 -7 9 -24q9 -16 9 -29q0 -4 -1 -7l-1 -8q13 -15 44 -144t58 -269t27 -175q0 -103 -57 -322t-57 -319q0 -24 38 -24q16 0 23.5 15t7.5 36q0 18 -4 25q14 42 37 224q22 179 45 214q27 -140 77 -343l38 -155q12 -6 26 -6q13 0 22 8t9 21q0 17 -15 42 q-9 15 -10 17q-16 40 -69 280t-53 273q0 89 35 255q34 160 40 224l2 2q0 7 -1 13q-1 5 -1 12q0 131 33 180l-18 25l-16 -3l-17 -3q-14 -5 -27 -170q-4 -66 -24.5 -202t-32.5 -161q-17 57 -42 191q-24 129 -52 204l-3 47q-4 28 -15 52t-27 24q-11 0 -24 -6t-13 -14z" />
<glyph unicode="y" horiz-adv-x="720" d="M155 1307q2 -26 17 -77q13 -47 39.5 -122t34.5 -97l22 -61q25 -70 50.5 -137t36.5 -96l-6 -25l13 -26l9 -145q7 -104 7 -171q0 -307 -20 -358q3 -7 13 -15t17 -8q43 0 43 139v9q0 91 -1 163t-1 162q0 28 -8 94t-8 93q0 12 6 31q6 18 6 28q0 11 -10 35q0 87 24 187 q11 50 22.5 91t27.5 96l6 22q57 189 57 220q0 9 -8.5 15t-18.5 6q-24 0 -53 -114q-27 -110 -52 -242q-26 -129 -40 -146l4 -10l-8 -37q-16 5 -54 132l-15 48q-37 123 -64 208q-40 127 -60 130z" />
<glyph unicode="z" horiz-adv-x="700" d="M163 27q0 -31 31 -31q5 0 29 11q22 11 44 11q20 0 61 -3q40 -3 60 -3q47 0 47 27t-59 27q-14 0 -43 -3q-25 -4 -43 -4q-42 0 -59 4q1 198 130 625q52 175 62 227q0 28 50 184t50 224q0 14 -8 22t-16.5 9.5t-26.5 1.5q-84 0 -153 -7q-74 -8 -74 -26q0 -12 8.5 -22.5 t20.5 -10.5q36 0 96 7q64 6 96 6q0 -83 -25 -191.5t-74 -263.5q-42 -130 -56 -185t-39 -177q-23 -113 -39 -169l-31 -114l-18 -70q-21 -81 -21 -106z" />
<glyph unicode="{" horiz-adv-x="560" d="M155 760q0 -18 8 -21q59 -5 59 -94q0 -34 -4 -103t-4 -139q0 -41 -3 -107q-3 -67 -3 -108q0 -113 35.5 -176t95.5 -63q78 0 78 22q0 10 -5 15.5t-17 8.5q-17 3 -52 3q-73 0 -73 199v223q0 38 3 108q3 71 3 103q0 52 -11.5 81.5t-42.5 45.5q31 17 42.5 47t11.5 82 q0 25 -3 77q-3 53 -3 80v252q0 199 73 199q15 0 26 -4t15 -4q13 0 16 1q6 0 11.5 5.5t5.5 15.5q0 12 -27.5 23.5t-50.5 11.5q-60 0 -95.5 -63t-35.5 -176q0 -99 7 -245q7 -147 7 -188q0 -43 -13 -69.5t-38 -26.5q-16 -3 -16 -16z" />
<glyph unicode="|" horiz-adv-x="520" d="M195 -72q0 -10 4 -13t21 -3q34 0 34 20l7 70v49q6 93 6 320q0 183 20 581q19 379 19 578q0 22 -13 22t-20 -4q-8 -4 -12 -9.5t-6 -16.5q-3 -14 -3 -35q0 -183 -16 -510t-16 -506q0 -91 -12 -271q-13 -175 -13 -272z" />
<glyph unicode="}" horiz-adv-x="640" d="M227 -23q0 -11 25.5 -19.5t52.5 -8.5q60 0 95.5 63t35.5 176q0 98 -7 245q-8 168 -8 188q0 42 13.5 69t38.5 27q16 3 16 16q0 18 -8 21q-60 5 -60 94q0 15 5 103q4 71 4 139q0 41 3 108q3 66 3 107q0 113 -35.5 176t-95.5 63q-27 0 -52.5 -8.5t-25.5 -19.5q0 -21 43 -21 h31q73 0 73 -199v-223q0 -36 -3 -107q-3 -70 -3 -104q0 -54 11 -82.5t42 -44.5q-31 -17 -42 -46t-11 -83q0 -24 3 -77q3 -52 3 -80v-252q0 -199 -73 -199q-18 0 -26 1l-15 1q-33 0 -33 -23z" />
<glyph unicode="~" d="M179 1055q0 -30 19 -30q22 0 42 26q0 7 -5 22t-5 21q0 18 21.5 37.5t44.5 19.5q13 0 24 -8q33 -39 52 -58q22 -23 59 -43t71 -20q28 0 53 15t40.5 40t15.5 53q0 29 -12 49.5t-35 20.5q-15 0 -21 -12q2 -8 7 -18q5 -15 5 -21q0 -18 -5.5 -30.5t-13.5 -17.5 q-23 -14 -28 -28l-14 4q-8 -2 -16 -2q-17 0 -39.5 18.5t-42.5 44.5q-21 26 -45.5 44t-46.5 18q-59 0 -92 -40t-33 -105z" />
<glyph unicode="&#xa1;" horiz-adv-x="560" d="M227 1483q0 -20 21 -42t41 -22q29 0 45 21t16 55q0 50 -51 53q-3 -9 -13 -10q-9 -1 -26 -12q-16 -10 -33 -43zM274 29q0 -20 21 -38t43 -18q26 0 26 27q0 165 -21 490q-22 318 -22 489l1 42q1 21 1 48q0 83 -16 121l6 10h-27l-1 -4l-1 -4v-492q0 -58 3 -175l2 -175 q0 -63 -7 -162q-8 -114 -8 -159z" />
<glyph unicode="&#xa2;" d="M179 842q0 -210 27 -330q5 -32 21 -57q16 -26 33.5 -42.5t48.5 -33.5q39 -23 85 -41q-1 0 21 -8v-127q0 -79 4 -180l4 2q0 -5 6.5 -9.5t13.5 -4.5q13 0 13 16q0 33 -3 97q-3 65 -3 97q0 29 1 52t1 53h18q30 0 75.5 20.5t79 50.5t33.5 56q0 36 -22 36q-43 -65 -80 -92.5 t-94 -27.5q-17 14 -17 32l1 14q1 7 1 15q0 131 -30 384q-31 249 -31 384l2 -4h37q7 -9 33 -17q21 -6 27 -11t13.5 -16.5t11.5 -16.5q16 -25 34 -25q6 0 12 10t6 17q0 22 -24 41q-19 15 -40 23.5t-43.5 15.5t-31.5 10l-43 14q-10 71 -10 135q0 29 2 53l-13 9q-26 0 -26 -66 q0 -17 5 -64t5 -63q-164 -89 -164 -401zM230 781v7q0 45 17 189q-3 13 9.5 58.5t33.5 83.5t45 42q20 -76 33 -291q32 -325 32 -469l-8 -4q-162 0 -162 384z" />
<glyph unicode="&#xa3;" horiz-adv-x="860" d="M123 49q0 -16 31 -22q63 38 100.5 50.5t91.5 12.5l35 -4q40 -4 83 -14t62 -21l7 4q16 0 47 -3q32 -3 47 -3q96 0 96 45l-29 21q-42 -17 -90 -17t-148 23q-97 22 -149 22q4 16 24 70q18 53 25 87t7 75q0 114 -34 266.5t-81 257.5q95 19 219 19q25 0 25 32q0 12 -8.5 19.5 t-20.5 7.5q-39 0 -107 -13q-75 -14 -108 -14q-12 0 -22.5 115t-10.5 203q0 80 26 179q12 50 36 82.5t51 32.5t50 -20t36.5 -52t13.5 -65l10 -20q7 -17 14.5 -22t22.5 -5l19 21q0 32 -15 78q-17 51 -55.5 90t-82.5 39q-34 0 -64 -14q-30 -15 -48.5 -35t-30.5 -53 q-13 -36 -19.5 -65t-9.5 -70q-3 -39 -4 -69t-1 -65q0 -49 12 -145q12 -97 12 -146q-26 0 -26 -29q0 -12 8.5 -20t20.5 -8q3 0 5 1t5 1q9 -41 44 -158q35 -114 51.5 -196t16.5 -156t-18.5 -146.5t-52.5 -97.5q-9 -6 -41 -20q-78 -35 -78 -66z" />
<glyph unicode="&#xa4;" horiz-adv-x="940" d="M115 279q0 -27 9 -39.5t32 -12.5q19 0 34 20t31 54q10 25 23 25q37 -42 85.5 -68.5t94.5 -26.5q151 0 244 103q4 -5 43 -76q0 -39 55 -39q27 0 27 29q0 14 -19 36q-26 31 -42.5 58.5t-16.5 54.5q0 32 18 93q10 34 11 40q39 156 39 244q0 81 -56 258q-34 101 -34 111 q0 23 46 81q47 59 48 74l-29 31q-21 0 -43.5 -27.5t-51.5 -74.5q-22 -36 -34 -37q-58 40 -108.5 57t-112.5 17q-8 0 -36 -26l-57 -59q-30 -32 -38 -38q-12 10 -29 36q-20 29 -38 43.5t-40 14.5q-24 0 -24 -23q0 -13 49 -63q49 -52 49 -74q-28 -29 -46 -135 q-28 -163 -28 -348q0 -53 1 -70q1 -28 10 -65.5t24 -61.5q-6 -19 -48 -66q-42 -46 -42 -50zM234 586q0 48 6 73q-4 21 -4 37q0 35 9 108.5t22 138.5t24 81q5 8 18 8q14 -1 21.5 7.5t7.5 35.5l-18 19q2 17 27 43.5t56.5 46.5t49.5 20q41 0 83 -17.5t62 -45.5q0 -19 11 -33 t28 -14q20 -13 37 -69.5t27 -127t10 -117.5q0 -86 -17 -197q-19 -114 -74 -205q-27 -45 -68 -70t-91 -25q-76 0 -125 33t-49 96q-31 28 -42 68.5t-11 105.5z" />
<glyph unicode="&#xa5;" horiz-adv-x="920" d="M43 1716q44 -36 120 -161.5t183 -319.5q77 -139 100 -152v-39q-12 -14 -110 -14q-46 0 -81 1t-79 1l-14 -22q0 -37 114 -37q30 0 74 4t74 4q22 0 22 -27q0 -66 -4 -94q-139 -8 -293 -8l-8 -27q17 -29 35 -39q165 11 256 11q4 -11 4 -23q0 -68 -8 -233q-8 -166 -8 -234 q0 -33 -10.5 -144t-16.5 -122q0 -25 41 -25q47 0 47 74q0 14 -1 26t-1 27q0 117 16 328q15 218 15 326l8 4h227q9 0 22 -4l15 -4l-4 -2h8q12 0 24.5 9.5t12.5 20.5q0 26 -10.5 35.5t-32.5 9.5q-10 0 -19 -1t-20 -1h-227l2 56l2 55h164q143 0 145 26q-25 43 -37 43 q-28 0 -110 -5t-111 -5q-26 0 -51 13q2 31 33 95q32 66 32 103q29 75 81 258q52 181 93 277q0 13 -10 21.5t-24 8.5q-20 0 -30.5 -13.5t-28.5 -59.5t-67 -198q-3 -10 -5.5 -18t-4.5 -15q-49 -158 -59 -195q-29 -97 -51 -140q-7 1 -19 16q-10 12 -29 42q-28 47 -53 94 q-3 6 -6 11.5t-5 9.5q-12 21 -32 51q-58 85 -59 102q-2 4 -8.5 13.5t-19.5 29.5q-23 36 -45 69q-62 93 -96 125q-22 21 -36 21l-26 -8v-31z" />
<glyph unicode="&#xa6;" horiz-adv-x="500" d="M203 -31q0 -10 4 -13t21 -3q8 0 10 1q3 0 6.5 5.5t3.5 13.5l7 70v49q6 48 6 176l5 151q5 157 5 185q0 14 -1 17q-1 4 -3.5 5t-7.5 1q-30 0 -36 -23q-5 -20 -5 -43l-2 -86l-2 -106q0 -55 -5 -200q-6 -130 -6 -200zM228 874q0 -10 4 -13t21 -3q10 0 15 4.5t5 16.5l6 69v49 q6 60 6 217l6 142q5 148 5 174q0 22 -13 22t-20 -4q-8 -4 -12 -9.5t-6 -16.5q-3 -14 -3 -35l-2 -77l-2 -95q0 -60 -5 -220q-5 -162 -5 -221z" />
<glyph unicode="&#xa7;" horiz-adv-x="660" d="M171 784q0 -60 18 -115.5t46 -96.5l71 -106q56 -85 83 -145t27 -131q0 -51 -24 -113q-13 -32 -37 -52.5t-55 -20.5q-7 0 -21 6q-13 6 -22 6q-27 0 -27 -16q0 -21 26.5 -39t51.5 -18q40 0 73 29.5t52 77.5q18 45 27.5 90.5t9.5 82.5q0 65 -31 131q47 77 47 183 q0 55 -18.5 106t-46.5 88q-49 66 -70 96q-56 78 -83.5 135t-27.5 128q0 63 25 138q13 40 37 64.5t55 24.5q8 0 22 -6q13 -6 21 -6q27 0 27 16q0 21 -26.5 39t-51.5 18q-40 0 -73 -29.5t-52 -77.5q-18 -45 -27.5 -90.5t-9.5 -82.5q0 -70 29 -137q-45 -70 -45 -177zM224 760 q0 77 25 137q23 -37 58 -87l63 -91q26 -40 44.5 -94.5t18.5 -104.5q0 -66 -27 -129q-21 33 -58 85q-30 40 -62 89q-25 39 -43.5 92t-18.5 103z" />
<glyph unicode="&#xa8;" horiz-adv-x="920" d="M179 1132q0 -19 11.5 -35t27.5 -16q20 0 35.5 9.5t15.5 25.5q0 28 -10.5 47.5t-30.5 19.5q-18 0 -33.5 -16.5t-15.5 -34.5zM639 1134q0 -16 13 -30.5t28 -14.5q54 0 54 47q0 16 -14 32.5t-31 16.5q-19 0 -34.5 -16t-15.5 -35z" />
<glyph unicode="&#xa9;" horiz-adv-x="1240" d="M115 924q0 -70 11 -230l2 -32q6 -121 9 -159q13 -168 51 -274t131.5 -166.5t262.5 -60.5q500 0 500 754q0 133 -23 300q-24 161 -86 340q-59 163 -168 277q-52 55 -122.5 85t-149.5 30q-77 0 -138 -34q-61 -33 -103.5 -87.5t-76.5 -135.5q-32 -74 -50.5 -150.5 t-30.5 -169.5q-11 -81 -15 -147.5t-4 -139.5zM187 940q0 58 3 119q3 65 13.5 146t26.5 149q17 75 46 146t65 121q39 53 95 84.5t122 31.5q17 0 33 -4q4 -1 12 -4t18 -8q22 -13 28 -17q7 -5 13 -8q6 -4 14.5 -10t12.5 -9q222 -153 286 -553q1 -9 21 -97q18 -88 18 -134v-305 q0 -16 -11 -55t-11 -58q0 -4 2 -10q-24 -99 -56 -169t-81 -125q-102 -114 -301 -114q-68 0 -119 19q-55 19 -89.5 45t-59.5 72q-28 50 -41 88.5t-22 101.5q-9 62 -12.5 99t-7.5 112l-4 61l-3 48q-11 148 -11 237zM328 793q0 -85 3 -134t13 -115q20 -130 101 -233 q20 -9 43 -21q30 -16 43 -21q17 -8 42.5 -13.5t49.5 -5.5q35 0 84 18.5t84 47t35 57.5q0 45 -31 45q-9 0 -22.5 -13.5t-36.5 -40.5q-19 -23 -52 -39t-71 -16q-32 0 -61 15q-27 14 -39.5 24.5t-40.5 42.5v6q-30 39 -47 117q-15 70 -19 124t-4 148v37q0 57 8 86l-4 9 q2 12 7 79l9 106q5 52 17.5 111t29.5 98q19 44 52.5 71.5t75.5 27.5q35 0 64 -24t45 -58q16 -35 35 -58.5t38 -23.5q12 0 19 8.5t7 20.5q0 27 -57 104q-36 49 -60.5 69.5t-42.5 24t-57 3.5q-42 0 -77 -18t-60 -45.5t-45 -71.5q-21 -45 -33 -86.5t-21 -97.5q-9 -55 -13.5 -97 t-6.5 -101q-4 -76 -4 -159v-8z" />
<glyph unicode="&#xaa;" horiz-adv-x="740" d="M131 539q0 -7 8.5 -17.5t18.5 -16t14 -1.5q14 14 50 148l52 175q50 -6 64 -12l54 2q56 0 92 -10q1 -12 9 -52l4 -24q11 -62 15.5 -104t4.5 -82q0 -31 12 -41t49 -10q16 9 16 46q0 30 -17 126l-134 679q0 13 -11.5 22t-25.5 9q-12 -12 -37 -12l-28 2q-10 -15 -25 -155 q-144 -602 -185 -672zM189 410q0 -14 14 -24.5t30 -10.5q97 0 224.5 5t127.5 13q0 14 -15 24.5t-31 10.5q-86 0 -218 -5.5t-132 -12.5zM290 892q40 140 96 390l98 -420h-21q-14 6 -99 14z" />
<glyph unicode="&#xab;" d="M123 698q0 -13 36 -93q32 -70 89 -183q92 -183 151 -295l13 -26q13 -27 22 -43q29 -55 50 -79q12 -14 20 -14q11 0 26 7.5t15 15.5q0 14 -88 168q-110 192 -189 343.5t-82 192.5q12 18 68 176q75 205 137 367l19 50q8 23 13.5 36t8.5 20q31 71 49 97q-3 28 -41 28 q-17 0 -57 -106v-2q-12 -34 -78 -194q-52 -127 -124 -309q-58 -144 -58 -157zM297 698q0 -30 38 -80q38 -52 44 -69q9 -20 24 -50l21 -44l102 -213l36 -78q48 -111 81 -160h4l14 -2l13 -2q8 0 17.5 13.5t11.5 25.5l-19 14q-35 58 -175 344.5t-140 302.5q0 53 34 147t83 192 q51 103 90.5 202t48.5 160l-27 20q-13 -1 -27 -26q-12 -22 -20.5 -45.5t-18.5 -62.5l-12 -40q-11 -36 -69 -166q-54 -120 -106 -244q-48 -114 -48 -139z" />
<glyph unicode="&#xac;" d="M147 768q0 -13 7 -29q2 -6 1 -6h162q23 0 63 3q41 3 64 3h33q30 0 42 -2q9 -1 9 -10q0 -31 3 -97t3 -102q0 -10 12 -20t23 -10q10 0 18 8t8 24q-2 70 -2 170l5 30q4 19 4 36q0 14 -14.5 23t-33.5 12q-17 -4 -67 -4q-35 0 -95 -3q-61 -3 -96 -3q-21 0 -73 -4l-62 -5 q-14 0 -14 -14z" />
<glyph unicode="&#xad;" horiz-adv-x="720" d="M155 756q0 -15 13.5 -25t29.5 -10q97 0 224.5 6t127.5 12q0 14 -14.5 24.5t-30.5 10.5q-93 0 -221.5 -6t-128.5 -12z" />
<glyph unicode="&#xae;" horiz-adv-x="1300" d="M163 715q0 -51 2 -125q2 -62 8 -135t16 -128q12 -66 31 -131.5t43 -112.5q28 -55 67 -102t85 -77q50 -33 115.5 -51.5t140.5 -18.5q86 0 153 36t146 118q38 39 66.5 103t43.5 147q19 100 28.5 170.5t12.5 162.5q5 168 5 283v66q0 73 -9.5 155t-31.5 204q-55 308 -55 353 q-20 17 -28 57q-3 16 -13.5 28.5t-26.5 17.5q-54 77 -135.5 128.5t-159.5 51.5q-502 0 -502 -930q0 -75 -1 -135t-1 -135zM233 1042q0 62 5 137t17.5 157t32.5 149q21 75 56.5 144t79.5 117q46 51 113 80t145 29q41 0 83 -21q38 -20 62 -40t65 -63q38 -14 58 -64l-15 -16 q123 -355 123 -944q0 -82 -1 -115q-2 -57 -7.5 -125t-13.5 -118q-11 -61 -28 -121.5t-39 -103.5q-26 -50 -61.5 -94t-77.5 -72q-47 -30 -107 -47t-130 -17l-18 8q-32 0 -68 14q-11 11 -57 38q-46 24 -72 58q-131 170 -131 604q0 80 -7 213t-7 213zM423 1454q0 -71 13 -191 q12 -124 12 -188v-399q0 -41 13 -107q13 -75 14 -96q8 -94 8 -264q0 -18 14 -29.5t35 -11.5q19 0 27 11q6 11 6 32q0 104 -22 293q-23 198 -23 293q0 24 1 37l3 57q2 18 2 22q18 0 46 14q25 13 42 13q10 0 29 -69q12 -44 44 -175q27 -109 40 -151q5 -13 15 -61 q14 -66 22 -99q33 -135 64 -184q20 -33 40 -33q39 17 39 31q0 5 -7 23l-15 41l-9 26v2q-2 0 -49 161q-46 160 -93 330q-46 168 -46 187q0 14 11.5 27t38.5 36q18 16 41 43q22 27 36 78t14 117q0 80 -12 155q-7 40 -21 71.5t-38 59.5q-23 27 -59 41.5t-83 14.5 q-57 0 -88.5 -5t-56.5 -21q-26 -16 -37 -48t-11 -84zM499 1415q0 58 8.5 85t34 37.5t80.5 10.5q25 0 49 -11q21 -11 34.5 -27t23.5 -42q9 -28 13.5 -48.5t7.5 -52.5q3 -44 3 -95q0 -79 -18 -135q-8 -23 -48.5 -62t-85.5 -69.5t-67 -30.5q-11 0 -18 55q-8 61 -11 138 q-6 165 -6 247z" />
<glyph unicode="&#xaf;" horiz-adv-x="720" d="M155 1136q0 -7 5 -14q6 -8 39 -15q19 -4 65 -4h40h115q129 0 131 17q0 12 -10 19t-34 10q-23 3 -46 3.5t-58 0.5h-116q-129 0 -131 -17z" />
<glyph unicode="&#xb0;" horiz-adv-x="720" d="M179 1133q0 -34 23.5 -74t62 -67t80.5 -27q190 0 190 225q0 51 -26.5 94.5t-72.5 68.5t-101 25q-52 0 -89 -43q-35 -40 -51 -93t-16 -109zM224 1122q0 47 13 92q13 49 41 83t63 34q70 0 112.5 -44.5t42.5 -112.5q0 -53 -26 -105q-16 -30 -47 -47.5t-74 -17.5 q-34 0 -62.5 18.5t-45.5 46.5t-17 53z" />
<glyph unicode="&#xb1;" d="M131 655q0 -43 60 -43q15 0 45 6q33 5 45 5q29 0 42 -2.5t19 -12.5t7 -18.5t1 -34.5l-2 -54l-2 -52v-64q0 -11 15 -20t28 -9q18 0 30.5 9t12.5 24q0 28 -9 77q-9 50 -9 87q0 31 6 45t21 18.5t47 4.5h10q22 0 64 -3q36 -4 61 -4q35 0 35 33q0 37 -64 37q-20 0 -61 -3 q-40 -3 -62 -3q-31 0 -44 10.5t-13 38.5q0 33 -4 81t-4 81l8 20q0 35 -37 35q-23 0 -32 -10t-9 -35q0 -27 5 -102q5 -77 5 -103q0 -16 -84 -16q-20 0 -54 3q-36 3 -54 3q-14 0 -18.5 -6.5t-4.5 -22.5zM176 252q0 -15 13.5 -25t29.5 -10q94 0 223.5 6.5t129.5 12.5 q0 14 -14.5 24t-30.5 10q-93 0 -222 -6t-129 -12z" />
<glyph unicode="&#xb4;" horiz-adv-x="620" d="M187 1139q0 -14 10.5 -22t26.5 -8q151 129 256 176l6 31q0 32 -45 32q-7 -7 -76 -60q-77 -59 -122 -96q-56 -45 -56 -53z" />
<glyph unicode="&#xb6;" horiz-adv-x="1040" d="M131 1389q7 -10 9 -34l3 -30q24 -95 82 -130q28 -17 53.5 -26.5t74.5 -23.5q52 -16 73 -25h172l2 -78l2 -79q0 -151 -21 -454q-22 -296 -22 -454q0 -41 39 -41q13 0 26 10t13 21q0 5 -4 12q3 55 8.5 151t10.5 162q7 112 14 307q6 158 6 302q0 127 -13 355 q-14 244 -14 354q0 104 23 104q54 0 74 -25t20 -79q0 -18 -1 -32q-1 -15 -1 -34q0 -84 7 -223t7 -223q0 -178 -9 -537q-9 -358 -9 -537q0 -100 51 -100q14 0 24.5 9.5t10.5 23.5q0 39 -6 115q-7 71 -7 114q0 165 7 438q6 293 6 439q0 119 -7 312q-8 221 -8 312q21 -4 39 -4 q41 0 41 29q0 15 -18 21t-58 11q-31 5 -41 17q-15 -4 -47 -4q-14 0 -41 8t-39 8q-38 0 -49 -20q-15 -2 -56 -4q-81 -2 -122 -19q-17 -7 -71 -21q-42 -12 -69.5 -24.5t-53 -36.5t-48.5 -66q-35 -63 -49 -129.5t-14 -141.5zM195 1454q0 78 38.5 152t103 120t138.5 46 q88 0 107 -19q0 -15 -1 -28t-1 -29q0 -81 9 -242q9 -160 9 -242q0 -25 -11 -33t-48 -8q-83 0 -141.5 13t-105.5 43q-97 61 -97 227z" />
<glyph unicode="&#xb7;" horiz-adv-x="520" d="M203 745q0 -18 13.5 -33.5t31.5 -15.5q57 0 57 52q0 18 -15.5 35.5t-33.5 17.5q-20 0 -36.5 -17.5t-16.5 -38.5z" />
<glyph unicode="&#xb8;" horiz-adv-x="620" d="M230 -394q0 -25 28 -40t60 -15q39 0 75 26.5t58 65t22 70.5q0 195 -149 206q0 53 8 103l-59 -8v-23q0 -77 -17 -117q26 -41 56 -41q11 0 28 4q18 3 27 3q31 -24 31 -91q0 -57 -22.5 -100t-57.5 -43q-11 0 -33 11q-20 10 -33 10q-22 0 -22 -21z" />
<glyph unicode="&#xba;" d="M163 887q0 -349 242 -349q44 0 81 25q148 100 148 263q-5 288 -86 417q-23 44 -52.5 63.5t-57 23t-77.5 3.5q-66 0 -106.5 -29.5t-49.5 -83.5l-13 -72q-6 -30 -13 -77l-4 -25q-7 -42 -9 -75q-3 -43 -3 -84zM184 466q0 -15 13.5 -25t29.5 -10q97 0 224.5 5t127.5 13 q0 14 -14.5 24.5t-30.5 10.5q-86 0 -218 -5.5t-132 -12.5zM229 954q18 340 143 340q51 0 135 -84q64 -65 64 -368q0 -244 -175 -244q-162 0 -167 356z" />
<glyph unicode="&#xbb;" d="M99 39q2 -12 11.5 -25.5t17.5 -13.5l14 2l16 2l32 64l11 22l176 365l21 43q17 32 24 51q8 18 45 69q37 50 37 80q0 26 -48 140t-105 243q-57 126 -70 166l-11 41l-17 58q-8 27 -22.5 49.5t-27.5 25.5l-26 -20q9 -61 49 -161t91 -201q49 -99 82.5 -192.5t33.5 -146.5 q0 -16 -136.5 -292t-179.5 -355zM257 -12q0 -8 15 -15.5t26 -7.5q8 0 20 14q22 24 49 79l35 69l61 118q119 228 179 360q36 80 36 93q0 12 -57 157l-125 309q-66 160 -78 194v2q-40 106 -57 106q-38 0 -41 -28q18 -28 28 -49q17 -37 36 -85l7 -19l19 -50q62 -162 137 -367 q56 -158 68 -176q-5 -71 -270 -536q-88 -154 -88 -168z" />
<glyph unicode="&#xbc;" horiz-adv-x="1580" d="M-12 1501q0 -22 33 -22l24 2l23 2q53 0 73.5 -32t20.5 -97q0 -21 -1 -36t-1 -34l40 -597q7 -129 13 -290.5t6 -285.5q0 -31 -11 -43.5t-40 -12.5q-15 0 -27 1q-13 1 -28 1l-10 -20q0 -13 9 -22t23 -9q51 0 126 4t126 4q45 0 45 29t-63 29q-14 0 -46 -3q-31 -3 -46 -3 l-9 6l2 15q1 7 1 15q0 51 -4 132t-9 100q4 15 4 26q0 108 -17 344q-17 235 -17 343q0 65 -15 194q-16 125 -16 193q0 33 6 63h-4q0 13 -9.5 23t-23.5 10q-178 0 -178 -29zM598 31q0 -23 21 -37q24 2 37 35q9 24 16 64l6 28l41 178l231 1018l12 52l20 87q9 42 9 49 q0 27 -30 27q-5 0 -9 -7q-3 -5 -9 -19q-11 -36 -13 -45l-4 -13q-115 -441 -256 -1061q-8 -38 -28 -114q-24 -91 -34 -145t-10 -97zM1163 653l19 -41q-10 -47 -10 -65v-6q3 -3 6.5 -5.5t7.5 -5.5q6 -5 10 -7t7 -2.5t5 -0.5q10 -2 19 -2q20 0 61 6q40 6 60 6q20 -11 20 -90 l-2 -46l-2 -46q0 -30 8 -104q7 -66 7 -105q0 -35 -9 -73l2 -5v-73l31 -13l33 25v29l-6 14l6 25q-8 14 -8 49q0 25 2 35q-6 14 -12.5 147t-6.5 199q0 25 17 35.5t41 8.5q5 -1 14 -1q19 0 31 6.5t12 19.5q0 23 -39 23q-16 0 -39 -4t-37 -4q-8 8 -14 123.5t-6 195.5 q0 48 -6 145q-6 96 -6 144l-19 22q-16 0 -27.5 -6.5t-11.5 -17.5q0 -25 8 -84q8 -56 9 -80q14 -356 14 -442q-12 -6 -47.5 -12.5t-55.5 -6.5t-20 39q0 11 7 28q7 15 7 27t-7 30t-7 30q0 92 13 258q12 173 12 258q0 7 -5 57l5 6q-7 38 -7 70q0 22 5 82q4 48 4 82 q0 14 -11 21.5t-26 7.5q-25 0 -25 -27q0 -10 4 -25q4 -16 4 -26v-326q0 -74 -10 -201t-10 -200q0 -18 -9 -51q-10 -31 -10 -50z" />
<glyph unicode="&#xbd;" horiz-adv-x="1640" d="M-12 1501q0 -22 33 -22l24 2l23 2q53 0 73.5 -32t20.5 -97q0 -21 -1 -36t-1 -34l40 -597q7 -129 13 -290.5t6 -285.5q0 -31 -11 -43.5t-40 -12.5q-15 0 -27 1q-13 1 -28 1l-10 -20q0 -13 9 -22t23 -9q51 0 126 4t126 4q45 0 45 29t-63 29q-14 0 -46 -3q-31 -3 -46 -3 l-9 6l2 15q1 7 1 15q0 51 -4 132t-9 100q4 15 4 26q0 108 -17 344q-17 235 -17 343q0 65 -15 194q-16 125 -16 193q0 33 6 63h-4q0 13 -9.5 23t-23.5 10q-178 0 -178 -29zM598 31q0 -23 21 -37q24 2 37 35q9 24 16 64l6 28l41 178l231 1018l12 52l20 87q9 42 9 49 q0 27 -30 27q-5 0 -9 -7q-3 -5 -9 -19q-11 -36 -13 -45l-4 -13q-115 -441 -256 -1061q-8 -38 -28 -114q-24 -91 -34 -145t-10 -97zM1149 25q0 -18 15 -29.5t36 -11.5q50 0 150 9q99 9 149 9l19 27l-31 32q-179 -9 -246 -22l-16 2q1 25 33 100q26 60 79 170l52 109 q41 93 77 236.5t57 294t21 261.5q0 24 -3 75t-3 75l4 4q-2 60 -26.5 110t-68 79.5t-99.5 29.5q-34 0 -60 -33q-25 -31 -37 -69.5t-12 -75.5q0 -15 1 -20q1 -8 7.5 -14.5t18.5 -6.5q27 0 35 74q3 32 20.5 62t44.5 42q127 0 127 -295q0 -250 -56.5 -482t-176.5 -493 q-8 -16 -41 -108q-34 -95 -70 -141z" />
<glyph unicode="&#xbe;" horiz-adv-x="1480" d="M-100 1403q1 -12 12 -20.5t23 -8.5q25 0 47 59q9 24 31 41t52 17q34 0 60 -30q25 -29 38.5 -69t21.5 -99q11 -81 11 -163q0 -48 -20 -99q-15 -37 -33 -63t-34 -44t-22 -25q-20 -23 -22 -31l10 -10v-8q18 -8 39 -8q6 0 11 1q4 1 9 1q38 -41 67 -96q27 -55 41.5 -104.5 t21.5 -116.5q7 -62 8.5 -104.5t1.5 -125.5q0 -260 -156 -260q-10 5 -26 18q-20 14 -34 21t-28 8l-16 -10q0 -34 40.5 -55t86.5 -21q37 0 68 14q30 14 49 35.5t33 55.5q14 33 21 62.5t11 71.5q6 66 6 130q0 54 -2 70.5t-14 70.5q-7 30 -14 80q-10 63 -18 99.5t-22 77.5 q-32 92 -112 124q7 8 34 51q24 41 33 47q37 64 37 115q0 269 -82 387l-6 2q-16 22 -41 35.5t-51 13.5q-58 0 -97.5 -33.5t-73.5 -103.5zM495 31q0 -23 20 -37q25 2 37 35q11 31 17 64l6 28l41 178l231 1018l12 52l20 87q9 42 9 49q0 12 -9 19.5t-22 7.5q-5 0 -9 -7 q-3 -5 -9 -19q-8 -27 -12 -45l-4 -13q-115 -441 -256 -1061q-8 -38 -28 -114q-24 -91 -34 -145t-10 -97zM1060 653l19 -41q-11 -58 -11 -65v-6q5 -4 12 -9q8 -7 17 -11q7 -3 27 -3t60 6q41 6 60 6q21 -10 21 -90l-2 -46l-2 -46q0 -40 7 -104q7 -66 7 -105q0 -38 -8 -73l2 -5 v-73l31 -13l32 25v29l-6 14l6 25q-8 14 -8 49q0 25 2 35q-6 14 -12 145.5t-6 200.5q0 25 17 35.5t41 8.5q5 -1 14 -1q19 0 31 6.5t12 19.5q0 23 -39 23q-16 0 -39 -4t-37 -4q-8 8 -14.5 125.5t-6.5 193.5q0 48 -6 145q-6 96 -6 144l-18 22q-16 0 -27.5 -6.5t-11.5 -17.5 q0 -25 8 -84q6 -43 8 -80q15 -367 15 -442q-12 -6 -47.5 -12.5t-55.5 -6.5t-20 39q0 11 7 28q7 15 7 27t-7 30t-7 30q0 86 12 258q12 173 12 258q0 25 -4 57l4 6q-6 35 -6 70q0 34 4 82t4 82q0 14 -11 21.5t-26 7.5q-24 0 -24 -27q0 -10 4 -25q4 -16 4 -26v-326 q0 -74 -10 -201t-10 -200q0 -18 -9 -51q-10 -31 -10 -50z" />
<glyph unicode="&#xbf;" horiz-adv-x="640" d="M187 79q0 -58 11.5 -122.5t31.5 -105.5q24 -45 111 -45q32 0 56.5 15t37.5 41q25 50 25 112q0 51 -15 127q-1 10 -15 10q-13 0 -36 -10q15 -94 15 -123q0 -127 -72 -127h-23q-30 0 -48 52q-16 45 -20.5 86t-4.5 92q0 70 13 148.5t39 186.5q24 105 32 149q39 252 39 559 q-5 24 -23 24q-5 0 -11.5 -2t-9.5 -4q-3 -1 -4 0l2 -115q0 -156 -19 -301t-46 -239q-28 -96 -47 -203t-19 -205zM284 1341q0 -18 15.5 -35.5t33.5 -17.5q20 0 36.5 17.5t16.5 37.5q0 18 -13.5 33.5t-31.5 15.5q-57 0 -57 -51z" />
<glyph unicode="&#xc0;" d="M123 39q0 -14 13 -24t29 -10q18 0 22 15q6 31 26 118t37 154q20 77 26 77q38 0 105.5 -9.5t119 -25t51.5 -31.5v-268q0 -15 12 -25t27 -10q32 0 39 17q6 13 6 40v9q0 80 -11 267q-12 179 -12 267l-28 340q-16 184 -37.5 371t-32.5 205q-15 20 -47 20q-13 0 -29 -34 q-17 -36 -30 -83q-20 -69 -37 -145q-23 -104 -74 -397q-47 -273 -78 -406l-30 -135l-42 -189l-24 -102v-3q-1 -1 -1 -3zM178 1988q0 -41 70 -41q16 0 33 4q8 -5 105.5 -39.5t101.5 -34.5q7 0 15.5 5.5t8.5 11.5q0 17 -39 39q-34 19 -84 39q-54 21 -81 30q-10 3 -16.5 5 t-8.5 3q-18 23 -79 23h-13q-13 -9 -13 -45zM277 426v12q0 31 7.5 67.5t22.5 88.5q14 47 18 70q37 157 84 458q21 134 34.5 201t29.5 113q0 -10 4 -25l4 -22q17 -150 25 -238q16 -168 30 -388t14 -347q0 -20 -40 -20q-8 0 -14 1h-12q-120 0 -207 29z" />
<glyph unicode="&#xc1;" d="M123 39q0 -14 13 -24t29 -10q18 0 22 15q6 31 26 118t37 154q20 77 26 77q38 0 105.5 -9.5t119 -25t51.5 -31.5v-268q0 -15 12 -25t27 -10q32 0 39 17q6 13 6 40v9q0 80 -11 267q-12 179 -12 267l-28 340q-16 184 -37.5 371t-32.5 205q-15 20 -47 20q-13 0 -29 -34 q-17 -36 -30 -83q-20 -69 -37 -145q-23 -104 -74 -397q-47 -273 -78 -406l-30 -135l-42 -189l-24 -102v-3q-1 -1 -1 -3zM277 426v12q0 31 7.5 67.5t22.5 88.5q14 47 18 70q37 157 84 458q21 134 34.5 201t29.5 113q0 -10 4 -25l4 -22q17 -150 25 -238q16 -168 30 -388 t14 -347q0 -20 -40 -20q-8 0 -14 1h-12q-120 0 -207 29zM353 1870q0 -14 10.5 -22t26.5 -8q151 129 256 176l6 31q0 32 -45 32q-7 -7 -76 -60q-77 -59 -122 -96q-56 -45 -56 -53z" />
<glyph unicode="&#xc2;" d="M123 39q0 -14 13 -24t29 -10q18 0 22 15q6 31 26 118t37 154q20 77 26 77q38 0 105.5 -9.5t119 -25t51.5 -31.5v-268q0 -15 12 -25t27 -10q32 0 39 17q6 13 6 40v9q0 80 -11 267q-12 179 -12 267l-28 340q-16 184 -37.5 371t-32.5 205q-15 20 -47 20q-13 0 -29 -34 q-17 -36 -30 -83q-20 -69 -37 -145q-23 -104 -74 -397q-47 -273 -78 -406l-30 -135l-42 -189l-24 -102v-3q-1 -1 -1 -3zM277 426v12q0 31 7.5 67.5t22.5 88.5q14 47 18 70q37 157 84 458q21 134 34.5 201t29.5 113q0 -10 4 -25l4 -22q17 -150 25 -238q16 -168 30 -388 t14 -347q0 -20 -40 -20q-8 0 -14 1h-12q-120 0 -207 29zM337 1718l37 -26l35 47q2 21 18 70q14 44 36.5 108t31.5 88q48 -178 59 -307l27 -17q37 6 37 25q0 4 -8 22l2 11l-15 30l2 13q-9 29 -24 74q-19 51 -28 89t-9 76q0 43 -29 43q-19 0 -59.5 -72t-76 -158t-36.5 -116z " />
<glyph unicode="&#xc3;" d="M123 39q0 -14 13 -24t29 -10q18 0 22 15q6 31 26 118t37 154q20 77 26 77q38 0 105.5 -9.5t119 -25t51.5 -31.5v-268q0 -15 12 -25t27 -10q32 0 39 17q6 13 6 40v9q0 80 -11 267q-12 179 -12 267l-28 340q-16 184 -37.5 371t-32.5 205q-15 20 -47 20q-13 0 -29 -34 q-17 -36 -30 -83q-20 -69 -37 -145q-23 -104 -74 -397q-47 -273 -78 -406l-30 -135l-42 -189l-24 -102v-3q-1 -1 -1 -3zM245 1786q0 -12 13 -23.5t26 -11.5l22 31q-10 33 -10 43q0 23 23 39t53 16l14 -6q33 -39 52 -58q22 -23 59 -43t71 -20q28 0 53 15t40.5 40t15.5 53 q0 29 -12 49.5t-35 20.5q-15 0 -21 -12q2 -8 7 -18q5 -15 5 -21q0 -73 -53 -73q-30 0 -66 24.5t-51 54.5q-36 42 -87 42q-50 0 -84.5 -39t-34.5 -103zM277 426v12q0 31 7.5 67.5t22.5 88.5q14 47 18 70q37 157 84 458q21 134 34.5 201t29.5 113q0 -10 4 -25l4 -22 q17 -150 25 -238q16 -168 30 -388t14 -347q0 -20 -40 -20q-8 0 -14 1h-12q-120 0 -207 29z" />
<glyph unicode="&#xc4;" d="M123 39q0 -14 13 -24t29 -10q18 0 22 15q6 31 26 118t37 154q20 77 26 77q38 0 105.5 -9.5t119 -25t51.5 -31.5v-268q0 -15 12 -25t27 -10q32 0 39 17q6 13 6 40v9q0 80 -11 267q-12 179 -12 267l-28 340q-16 184 -37.5 371t-32.5 205q-15 20 -47 20q-13 0 -29 -34 q-17 -36 -30 -83q-20 -69 -37 -145q-23 -104 -74 -397q-47 -273 -78 -406l-30 -135l-42 -189l-24 -102v-3q-1 -1 -1 -3zM205 1863q0 -19 11.5 -35t27.5 -16q20 0 35.5 9.5t15.5 25.5q0 28 -10.5 47.5t-30.5 19.5q-18 0 -33.5 -16.5t-15.5 -34.5zM277 426v12q0 31 7.5 67.5 t22.5 88.5q14 47 18 70q37 157 84 458q21 134 34.5 201t29.5 113q0 -10 4 -25l4 -22q17 -150 25 -238q16 -168 30 -388t14 -347q0 -20 -40 -20q-8 0 -14 1h-12q-120 0 -207 29zM665 1865q0 -16 13 -30.5t28 -14.5q54 0 54 47q0 16 -14 32.5t-31 16.5q-19 0 -34.5 -16 t-15.5 -35z" />
<glyph unicode="&#xc5;" d="M123 39q0 -14 13 -24t29 -10q18 0 22 15q6 31 26 118t37 154q20 77 26 77q38 0 105.5 -9.5t119 -25t51.5 -31.5v-268q0 -15 12 -25t27 -10q32 0 39 17q6 13 6 40v9q0 80 -11 267q-12 179 -12 267l-28 340q-16 184 -37.5 371t-32.5 205q-15 20 -47 20q-13 0 -29 -34 q-17 -36 -30 -83q-20 -69 -37 -145q-23 -104 -74 -397q-47 -273 -78 -406l-30 -135l-42 -189l-24 -102v-3q-1 -1 -1 -3zM277 426v12q0 31 7.5 67.5t22.5 88.5q14 47 18 70q37 157 84 458q21 134 34.5 201t29.5 113q0 -10 4 -25l4 -22q17 -150 25 -238q16 -168 30 -388 t14 -347q0 -20 -40 -20q-8 0 -14 1h-12q-120 0 -207 29zM363 1896q0 -27 14 -52t37 -40.5t49 -15.5q59 0 95 30.5t36 86.5q0 25 -17 53t-43.5 46.5t-51.5 18.5q-29 0 -56.5 -19t-45 -48.5t-17.5 -59.5zM410 1907q0 27 23.5 52t48.5 25q28 0 43.5 -30t15.5 -70 q0 -22 -29.5 -39.5t-56.5 -17.5q-19 0 -29 16q-10 14 -13 28.5t-3 35.5z" />
<glyph unicode="&#xc6;" horiz-adv-x="940" d="M99 27q0 -8 5 -16.5t11 -8.5q17 0 32 41q12 34 24.5 90.5t15.5 75.5l102 391q3 10 47 18q32 5 100 11q57 5 64 6l11 -14q0 -50 5 -195t5 -197q0 -125 -17 -241l29 -29q12 2 28 13l19 14q11 5 85 7q71 1 133 9q61 7 61 29q0 12 -14 19t-31 7q-36 0 -116 -11t-116 -11 q-18 0 -18 35q0 23 1 42t1 42q0 100 -4 244t-4 243h54q146 0 146 35l-28 35q-31 0 -81 -10q-55 -11 -81 -11l-10 12q0 80 3 239t3 239q0 58 -7 153t-7 152q102 12 202 12l13 25q0 32 -64 32q-22 0 -80 -5t-78 -5q-24 0 -45 -29t-49 -122q-143 -462 -268 -961 q-81 -312 -82 -405zM304 664q3 33 49 210t93 341t58 178q13 -97 13 -240q0 -89 -3 -250l-5 -215q-76 -19 -205 -24z" />
<glyph unicode="&#xc7;" horiz-adv-x="780" d="M171 1090q0 65 3 112t10 98q7 52 20.5 89t37.5 72q23 35 55 56.5t80 34.5q45 13 106 13q24 0 52 -10.5t47 -28t19 -37.5q0 -23 -32 -23q-12 0 -47 15q-37 14 -56 14q-58 0 -103.5 -23t-72.5 -62q-24 -35 -39.5 -91t-20.5 -114q-5 -60 -5 -124l2 -114l2 -107 q0 -84 13 -252t32.5 -310.5t38.5 -170.5q25 -38 72.5 -59t101.5 -21q93 0 143 59q17 26 38 26q19 0 19 -30q0 -36 -23 -63.5t-60 -42.5q-61 -25 -125 -28q-2 -32 -2 -49q149 -11 149 -206q0 -32 -22 -70.5t-58 -65t-75 -26.5q-32 0 -60 15t-28 40q0 21 22 21q13 0 33 -10 q22 -11 33 -11q35 0 57.5 43t22.5 100q0 67 -31 91q-9 0 -27 -3q-17 -4 -28 -4q-30 0 -56 41q14 32 17 97q-53 13 -103.5 54.5t-73.5 89.5q-16 35 -34 184t-30 321.5t-12 256.5q0 61 -1 109q-1 47 -1 104z" />
<glyph unicode="&#xc8;" horiz-adv-x="620" d="M26 1988q0 -41 70 -41q16 0 33 4q8 -5 105.5 -39.5t101.5 -34.5q7 0 15.5 5.5t8.5 11.5q0 17 -39 39q-34 19 -84 39q-54 21 -81 30q-10 3 -16.5 5t-8.5 3q-18 23 -79 23h-13q-13 -9 -13 -45zM187 1485q4 -128 4 -228l2 -845l-2 -299v-4q0 -21 1 -38v-38q0 -28 20 -36.5 t68 -8.5h87q79 0 100 8q19 7 19 39q0 27 -38 27h-18h-87l-87 -1v76q0 137 -4 325q-4 187 -4 304q0 10 8 10h117q17 0 24 7.5t7 26.5q0 30 -34 30q-42 0 -111 -4h-2h-2q-4 0 -4 4v256v174q-1 77 -1 174q0 15 4.5 19.5t19.5 4.5l33 -2l33 -2q25 0 34 1q14 1 27 11.5t13 26.5 q0 28 -21 35q-10 3 -19.5 3.5t-22.5 0.5h-127q-17 0 -27 -16t-10 -41z" />
<glyph unicode="&#xc9;" horiz-adv-x="620" d="M187 1485q4 -128 4 -228l2 -845l-2 -299v-4q0 -21 1 -38v-38q0 -28 20 -36.5t68 -8.5h87q79 0 100 8q19 7 19 39q0 27 -38 27h-18h-87l-87 -1v76q0 137 -4 325q-4 187 -4 304q0 10 8 10h117q17 0 24 7.5t7 26.5q0 30 -34 30q-42 0 -111 -4h-2h-2q-4 0 -4 4v256v174 q-1 77 -1 174q0 15 4.5 19.5t19.5 4.5l33 -2l33 -2q25 0 34 1q14 1 27 11.5t13 26.5q0 28 -21 35q-10 3 -19.5 3.5t-22.5 0.5h-127q-17 0 -27 -16t-10 -41zM201 1870q0 -14 10.5 -22t26.5 -8q151 129 256 176l6 31q0 32 -45 32q-7 -7 -76 -60q-77 -59 -122 -96 q-56 -45 -56 -53z" />
<glyph unicode="&#xca;" horiz-adv-x="620" d="M185 1718l37 -26l35 47q2 21 18 70q14 44 36.5 108t31.5 88q48 -178 59 -307l27 -17q37 6 37 25q0 4 -8 22l2 11l-15 30l2 13q-9 29 -24 74q-19 51 -28 89t-9 76q0 43 -29 43q-19 0 -59.5 -72t-76 -158t-36.5 -116zM187 1485q4 -128 4 -228l2 -845l-2 -299v-4 q0 -21 1 -38v-38q0 -28 20 -36.5t68 -8.5h87q79 0 100 8q19 7 19 39q0 27 -38 27h-18h-87l-87 -1v76q0 137 -4 325q-4 187 -4 304q0 10 8 10h117q17 0 24 7.5t7 26.5q0 30 -34 30q-42 0 -111 -4h-2h-2q-4 0 -4 4v256v174q-1 77 -1 174q0 15 4.5 19.5t19.5 4.5l33 -2l33 -2 q25 0 34 1q14 1 27 11.5t13 26.5q0 28 -21 35q-10 3 -19.5 3.5t-22.5 0.5h-127q-17 0 -27 -16t-10 -41z" />
<glyph unicode="&#xcb;" horiz-adv-x="620" d="M53 1863q0 -19 11.5 -35t27.5 -16q20 0 35.5 9.5t15.5 25.5q0 28 -10.5 47.5t-30.5 19.5q-18 0 -33.5 -16.5t-15.5 -34.5zM187 1485q4 -128 4 -228l2 -845l-2 -299v-4q0 -21 1 -38v-38q0 -28 20 -36.5t68 -8.5h87q79 0 100 8q19 7 19 39q0 27 -38 27h-18h-87l-87 -1v76 q0 137 -4 325q-4 187 -4 304q0 10 8 10h117q17 0 24 7.5t7 26.5q0 30 -34 30q-42 0 -111 -4h-2h-2q-4 0 -4 4v256v174q-1 77 -1 174q0 15 4.5 19.5t19.5 4.5l33 -2l33 -2q25 0 34 1q14 1 27 11.5t13 26.5q0 28 -21 35q-10 3 -19.5 3.5t-22.5 0.5h-127q-17 0 -27 -16t-10 -41 zM513 1865q0 -16 13 -30.5t28 -14.5q54 0 54 47q0 16 -14 32.5t-31 16.5q-19 0 -34.5 -16t-15.5 -35z" />
<glyph unicode="&#xcc;" horiz-adv-x="660" d="M-4 1988q0 -41 70 -41q16 0 33 4q8 -5 105.5 -39.5t101.5 -34.5q7 0 15.5 5.5t8.5 11.5q0 17 -39 39q-34 19 -84 39q-54 21 -81 30q-10 3 -16.5 5t-8.5 3q-18 23 -79 23h-13q-13 -9 -13 -45zM163 1513q0 -29 22 -29h70q6 -19 6 -130q0 -78 -1 -136l-1 -104l7 -195l9 -256 q14 -397 14 -593h-80q-34 0 -34 -26q0 -13 10.5 -23.5t25.5 -10.5q76 0 124 -1q47 -1 112 -1q10 0 19 11t9 23q0 29 -46 29h-74q0 30 1 56t1 57q0 206 -25 646q-26 457 -26 644q0 5 3 8q2 2 9.5 3.5t14.5 1.5h22q12 0 23 -1t26 -1q11 0 18 10t7 23q0 14 -10.5 21.5 t-26.5 7.5q-48 0 -78 1h-58q-59 0 -76 -6q-17 -8 -17 -29z" />
<glyph unicode="&#xcd;" horiz-adv-x="660" d="M163 1513q0 -29 22 -29h70q6 -19 6 -130q0 -78 -1 -136l-1 -104l7 -195l9 -256q14 -397 14 -593h-80q-34 0 -34 -26q0 -13 10.5 -23.5t25.5 -10.5q76 0 124 -1q47 -1 112 -1q10 0 19 11t9 23q0 29 -46 29h-74q0 30 1 56t1 57q0 206 -25 646q-26 457 -26 644q0 5 3 8 q2 2 9.5 3.5t14.5 1.5h22q12 0 23 -1t26 -1q11 0 18 10t7 23q0 14 -10.5 21.5t-26.5 7.5q-48 0 -78 1h-58q-59 0 -76 -6q-17 -8 -17 -29zM171 1870q0 -14 10.5 -22t26.5 -8q151 129 256 176l6 31q0 32 -45 32q-7 -7 -76 -60q-77 -59 -122 -96q-56 -45 -56 -53z" />
<glyph unicode="&#xce;" horiz-adv-x="660" d="M155 1718l37 -26l35 47q2 21 18 70q14 44 36.5 108t31.5 88q48 -178 59 -307l27 -17q37 6 37 25q0 4 -8 22l2 11l-15 30l2 13q-9 29 -24 74q-19 51 -28 89t-9 76q0 43 -29 43q-19 0 -59.5 -72t-76 -158t-36.5 -116zM163 1513q0 -29 22 -29h70q6 -19 6 -130q0 -78 -1 -136 l-1 -104l7 -195l9 -256q14 -397 14 -593h-80q-34 0 -34 -26q0 -13 10.5 -23.5t25.5 -10.5q76 0 124 -1q47 -1 112 -1q10 0 19 11t9 23q0 29 -46 29h-74q0 30 1 56t1 57q0 206 -25 646q-26 457 -26 644q0 5 3 8q2 2 9.5 3.5t14.5 1.5h22q12 0 23 -1t26 -1q11 0 18 10t7 23 q0 14 -10.5 21.5t-26.5 7.5q-48 0 -78 1h-58q-59 0 -76 -6q-17 -8 -17 -29z" />
<glyph unicode="&#xcf;" horiz-adv-x="660" d="M23 1863q0 -19 11.5 -35t27.5 -16q20 0 35.5 9.5t15.5 25.5q0 28 -10.5 47.5t-30.5 19.5q-18 0 -33.5 -16.5t-15.5 -34.5zM163 1513q0 -29 22 -29h70q6 -19 6 -130q0 -78 -1 -136l-1 -104l7 -195l9 -256q14 -397 14 -593h-80q-34 0 -34 -26q0 -13 10.5 -23.5t25.5 -10.5 q76 0 124 -1q47 -1 112 -1q10 0 19 11t9 23q0 29 -46 29h-74q0 30 1 56t1 57q0 206 -25 646q-26 457 -26 644q0 5 3 8q2 2 9.5 3.5t14.5 1.5h22q12 0 23 -1t26 -1q11 0 18 10t7 23q0 14 -10.5 21.5t-26.5 7.5q-48 0 -78 1h-58q-59 0 -76 -6q-17 -8 -17 -29zM483 1865 q0 -16 13 -30.5t28 -14.5q54 0 54 47q0 16 -14 32.5t-31 16.5q-19 0 -34.5 -16t-15.5 -35z" />
<glyph unicode="&#xd0;" horiz-adv-x="880" d="M51 776q0 -19 5.5 -27t22.5 -8q23 0 62 7q41 6 63 6q6 -21 17 -152q18 -379 18 -651h2q7 -15 14.5 -21t22.5 -10q21 -7 23 -8q117 52 216 181q94 125 144.5 272t50.5 284q0 317 -96 588v4q-68 126 -171 235q-56 60 -122.5 95t-128.5 35q-8 0 -20.5 -17t-12.5 -26 q0 -61 9 -183q8 -130 8 -184q0 -57 14 -185t14 -184l-1 -5l-1 -5l-8 -4h-18q-127 0 -127 -37zM231 1534l4 4q140 -41 233 -162.5t127 -288.5q20 -75 30 -162q9 -82 11 -135.5t2 -173.5q0 -87 -35 -191t-94 -201.5t-127 -164.5l-13 -13q-17 -19 -26 -25q-14 -10 -34 -15 q0 81 -10 222q-11 156 -11 221l2 2q-3 11 -8.5 140t-5.5 165q67 14 168 14l20 25q-2 19 -14.5 34t-28.5 15q-21 0 -70 -11q-46 -12 -71 -12q-12 17 -23.5 151.5t-18.5 301.5t-7 260z" />
<glyph unicode="&#xd1;" horiz-adv-x="900" d="M179 1509q0 -12 1 -21q1 -10 1 -22l2 -193q1 -86 1 -194v-268q0 -119 3 -356l2 -357q0 -67 -4 -82l6 -16h47l14 16q0 77 -5 292t-5 292v741q0 59 2 85q73 -362 84 -410q26 -109 252 -922l6 -30q6 -34 8 -40q4 -18 16 -32.5t27 -14.5q52 0 52 60q0 40 5 162t5 161 q0 162 3 483l2 486v131l2 33q1 17 1 42q0 60 -16 60q-35 0 -42 -28l2 -289q0 -88 -1 -158l-2 -159q0 -145 -4 -356q-4 -212 -4 -357q0 -71 -13 -98q-44 133 -106 389q-142 530 -148 557q-17 73 -48 217l-10 47q-29 132 -34 153q-4 14 -19 26.5t-28 12.5q-29 0 -42 -9 t-13 -34zM233 1786q0 -12 13 -23.5t26 -11.5l22 31q-10 33 -10 43q0 23 23 39t53 16l14 -6q33 -39 52 -58q22 -23 59 -43t71 -20q28 0 53 15t40.5 40t15.5 53q0 29 -12 49.5t-35 20.5q-15 0 -21 -12q2 -8 7 -18q5 -15 5 -21q0 -73 -53 -73q-30 0 -66 24.5t-51 54.5 q-36 42 -87 42q-50 0 -84.5 -39t-34.5 -103z" />
<glyph unicode="&#xd2;" horiz-adv-x="840" d="M86 1988q0 -41 70 -41q16 0 33 4q8 -5 105.5 -39.5t101.5 -34.5q7 0 15.5 5.5t8.5 11.5q0 17 -39 39q-34 19 -84 39q-54 21 -81 30q-10 3 -16.5 5t-8.5 3q-18 23 -79 23h-13q-13 -9 -13 -45zM171 942q0 -985 284 -985q78 0 122 74q24 42 39 81.5t24 95.5q11 69 15.5 112 t7.5 103q3 87 3 189v6q0 275 -49 621q-5 39 -16 97q-10 45 -28.5 91t-41.5 74q-26 32 -67 51t-91 19q-53 0 -90 -34q-37 -33 -58.5 -83.5t-33.5 -130.5q-12 -73 -16 -139t-4 -159v-83zM232 831v100q0 87 6 208q4 70 14 129.5t27 124.5q15 60 42 92.5t62 32.5q40 0 73 -28.5 t55 -81.5q25 -62 41.5 -121t25.5 -133l3 -27q17 -148 22 -260q3 -105 3 -205v-9q0 -83 -6 -214q-6 -138 -39 -282q-15 -67 -42 -105t-60 -38q-52 0 -94 72q-40 67 -64 164.5t-42 233.5q-27 208 -27 347z" />
<glyph unicode="&#xd3;" horiz-adv-x="840" d="M171 942q0 -985 284 -985q78 0 122 74q24 42 39 81.5t24 95.5q11 69 15.5 112t7.5 103q3 87 3 189v6q0 275 -49 621q-5 39 -16 97q-10 45 -28.5 91t-41.5 74q-26 32 -67 51t-91 19q-53 0 -90 -34q-37 -33 -58.5 -83.5t-33.5 -130.5q-12 -73 -16 -139t-4 -159v-83z M232 831v100q0 87 6 208q4 70 14 129.5t27 124.5q15 60 42 92.5t62 32.5q40 0 73 -28.5t55 -81.5q25 -62 41.5 -121t25.5 -133l3 -27q17 -148 22 -260q3 -105 3 -205v-9q0 -83 -6 -214q-6 -138 -39 -282q-15 -67 -42 -105t-60 -38q-52 0 -94 72q-40 67 -64 164.5t-42 233.5 q-27 208 -27 347zM261 1870q0 -14 10.5 -22t26.5 -8q151 129 256 176l6 31q0 32 -45 32q-7 -7 -76 -60q-77 -59 -122 -96q-56 -45 -56 -53z" />
<glyph unicode="&#xd4;" horiz-adv-x="840" d="M171 942q0 -985 284 -985q78 0 122 74q24 42 39 81.5t24 95.5q11 69 15.5 112t7.5 103q3 87 3 189v6q0 275 -49 621q-5 39 -16 97q-10 45 -28.5 91t-41.5 74q-26 32 -67 51t-91 19q-53 0 -90 -34q-37 -33 -58.5 -83.5t-33.5 -130.5q-12 -73 -16 -139t-4 -159v-83z M232 831v100q0 87 6 208q4 70 14 129.5t27 124.5q15 60 42 92.5t62 32.5q40 0 73 -28.5t55 -81.5q25 -62 41.5 -121t25.5 -133l3 -27q17 -148 22 -260q3 -105 3 -205v-9q0 -83 -6 -214q-6 -138 -39 -282q-15 -67 -42 -105t-60 -38q-52 0 -94 72q-40 67 -64 164.5t-42 233.5 q-27 208 -27 347zM245 1718l37 -26l35 47q2 21 18 70q14 44 36.5 108t31.5 88q48 -178 59 -307l27 -17q37 6 37 25q0 4 -8 22l2 11l-15 30l2 13q-9 29 -24 74q-19 51 -28 89t-9 76q0 43 -29 43q-19 0 -59.5 -72t-76 -158t-36.5 -116z" />
<glyph unicode="&#xd5;" horiz-adv-x="840" d="M153 1786q0 -12 13 -23.5t26 -11.5l22 31q-10 33 -10 43q0 23 23 39t53 16l14 -6q33 -39 52 -58q22 -23 59 -43t71 -20q28 0 53 15t40.5 40t15.5 53q0 29 -12 49.5t-35 20.5q-15 0 -21 -12q2 -8 7 -18q5 -15 5 -21q0 -73 -53 -73q-30 0 -66 24.5t-51 54.5q-36 42 -87 42 q-50 0 -84.5 -39t-34.5 -103zM171 942q0 -985 284 -985q78 0 122 74q24 42 39 81.5t24 95.5q11 69 15.5 112t7.5 103q3 87 3 189v6q0 275 -49 621q-5 39 -16 97q-10 45 -28.5 91t-41.5 74q-26 32 -67 51t-91 19q-53 0 -90 -34q-37 -33 -58.5 -83.5t-33.5 -130.5 q-12 -73 -16 -139t-4 -159v-83zM232 831v100q0 87 6 208q4 70 14 129.5t27 124.5q15 60 42 92.5t62 32.5q40 0 73 -28.5t55 -81.5q25 -62 41.5 -121t25.5 -133l3 -27q17 -148 22 -260q3 -105 3 -205v-9q0 -83 -6 -214q-6 -138 -39 -282q-15 -67 -42 -105t-60 -38 q-52 0 -94 72q-40 67 -64 164.5t-42 233.5q-27 208 -27 347z" />
<glyph unicode="&#xd6;" horiz-adv-x="840" d="M113 1863q0 -19 11.5 -35t27.5 -16q20 0 35.5 9.5t15.5 25.5q0 28 -10.5 47.5t-30.5 19.5q-18 0 -33.5 -16.5t-15.5 -34.5zM171 942q0 -985 284 -985q78 0 122 74q24 42 39 81.5t24 95.5q11 69 15.5 112t7.5 103q3 87 3 189v6q0 275 -49 621q-5 39 -16 97 q-10 45 -28.5 91t-41.5 74q-26 32 -67 51t-91 19q-53 0 -90 -34q-37 -33 -58.5 -83.5t-33.5 -130.5q-12 -73 -16 -139t-4 -159v-83zM232 831v100q0 87 6 208q4 70 14 129.5t27 124.5q15 60 42 92.5t62 32.5q40 0 73 -28.5t55 -81.5q25 -62 41.5 -121t25.5 -133l3 -27 q17 -148 22 -260q3 -105 3 -205v-9q0 -83 -6 -214q-6 -138 -39 -282q-15 -67 -42 -105t-60 -38q-52 0 -94 72q-40 67 -64 164.5t-42 233.5q-27 208 -27 347zM573 1865q0 -16 13 -30.5t28 -14.5q54 0 54 47q0 16 -14 32.5t-31 16.5q-19 0 -34.5 -16t-15.5 -35z" />
<glyph unicode="&#xd7;" horiz-adv-x="740" d="M139 817q0 -16 31 -46q35 -35 76 -68q43 -36 63 -56q0 -10 -16 -32t-26 -32t-36 -32q-34 -30 -42 -38q-17 -17 -17 -26t14.5 -19.5t26.5 -10.5q19 0 40 18.5t39 45.5q17 26 36.5 44.5t35.5 18.5q13 0 32 -18q29 -29 47 -50q27 -31 40 -43l45 -43q6 -6 14 -6q22 0 37 14.5 t15 32.5q0 15 -24 37.5t-59 45.5t-59 47.5t-24 41.5t36 50l21 19q43 39 65.5 63t22.5 38q0 11 -10.5 21t-20.5 10q-19 0 -44.5 -23.5t-61.5 -66.5l-16 -18q-31 -36 -52 -36q-26 0 -153 127l-10 21q-10 10 -25 10q-13 0 -27 -15t-14 -26z" />
<glyph unicode="&#xd8;" horiz-adv-x="760" d="M179 952q0 -503 43 -768q1 -8 11 -34q8 -27 8 -39q-15 -102 -30 -177l-10 -48q-11 -51 -15 -75.5t-5 -50.5l31 -24q42 211 53 284h2q30 -40 101 -40q75 0 117 54q23 29 37.5 58t22.5 68q10 48 15 79.5t8 73.5q3 60 3 131q0 64 -3 193q-4 115 -4 194l-4 7v12q0 62 -15 189 q-15 128 -15 188l4 2q0 80 -23 137q-1 3 -4 7t-6 10q-16 23 -21 44l2 5q-30 35 -30 59l43 248l2 59h-37l-19 -109q-16 -94 -34 -149l-11 10l-8 -4q-9 0 -28 12q-20 11 -31 11q-150 0 -150 -488v-129zM222 839v13q0 614 64 653l12 -4l10 4l15 6l8 2q26 0 45.5 -16.5 t19.5 -40.5q0 -32 -4 -72.5t-10 -84.5q-6 -35 -10 -72l-13 -138l-23 -241l-7 -71q-31 -305 -45 -406q-14 -91 -19 -97q0 72 -12 216t-12 215q-19 42 -19 134zM294 119q0 17 14 96q39 197 74 602q32 389 62 572q73 -145 73 -990q0 -376 -133 -376q-49 0 -69.5 22.5 t-20.5 73.5z" />
<glyph unicode="&#xd9;" horiz-adv-x="860" d="M106 1988q0 -41 70 -41q16 0 33 4q8 -5 105.5 -39.5t101.5 -34.5q7 0 15.5 5.5t8.5 11.5q0 17 -39 39q-34 19 -84 39q-54 21 -81 30q-10 3 -16.5 5t-8.5 3q-18 23 -79 23h-13q-13 -9 -13 -45zM155 1479q0 -10 1 -17v-14q0 -192 15.5 -535t25.5 -440l2 -34q2 -42 4 -65 q3 -35 11 -85t19 -89q12 -45 33 -90t47 -76q27 -33 68 -53t88 -20q48 0 86 23q36 22 57 55.5t34 83.5q12 45 16 84t4 88q0 113 -3 339q-4 201 -4 349v184q-1 82 -1 185v155q0 22 -11.5 35t-28.5 13t-28.5 -13t-11.5 -35q0 -46 5 -174q4 -103 4 -174l9 -262q9 -253 9 -383 v-233q0 -28 -2 -68q-3 -35 -12 -70.5t-23 -57.5q-16 -26 -43.5 -42t-62.5 -16q-38 0 -70 32q-31 30 -51 72.5t-36 105.5q-26 96 -34 185q-15 142 -29 466t-14 564q0 9 1 16v15q0 25 -9 37t-33 12q-32 0 -32 -53z" />
<glyph unicode="&#xda;" horiz-adv-x="860" d="M155 1479q0 -10 1 -17v-14q0 -192 15.5 -535t25.5 -440l2 -34q2 -42 4 -65q3 -35 11 -85t19 -89q12 -45 33 -90t47 -76q27 -33 68 -53t88 -20q48 0 86 23q36 22 57 55.5t34 83.5q12 45 16 84t4 88q0 113 -3 339q-4 201 -4 349v184q-1 82 -1 185v155q0 22 -11.5 35 t-28.5 13t-28.5 -13t-11.5 -35q0 -46 5 -174q4 -103 4 -174l9 -262q9 -253 9 -383v-233q0 -28 -2 -68q-3 -35 -12 -70.5t-23 -57.5q-16 -26 -43.5 -42t-62.5 -16q-38 0 -70 32q-31 30 -51 72.5t-36 105.5q-26 96 -34 185q-15 142 -29 466t-14 564q0 9 1 16v15q0 25 -9 37 t-33 12q-32 0 -32 -53zM281 1870q0 -14 10.5 -22t26.5 -8q151 129 256 176l6 31q0 32 -45 32q-7 -7 -76 -60q-77 -59 -122 -96q-56 -45 -56 -53z" />
<glyph unicode="&#xdb;" horiz-adv-x="860" d="M155 1479q0 -10 1 -17v-14q0 -192 15.5 -535t25.5 -440l2 -34q2 -42 4 -65q3 -35 11 -85t19 -89q12 -45 33 -90t47 -76q27 -33 68 -53t88 -20q48 0 86 23q36 22 57 55.5t34 83.5q12 45 16 84t4 88q0 113 -3 339q-4 201 -4 349v184q-1 82 -1 185v155q0 22 -11.5 35 t-28.5 13t-28.5 -13t-11.5 -35q0 -46 5 -174q4 -103 4 -174l9 -262q9 -253 9 -383v-233q0 -28 -2 -68q-3 -35 -12 -70.5t-23 -57.5q-16 -26 -43.5 -42t-62.5 -16q-38 0 -70 32q-31 30 -51 72.5t-36 105.5q-26 96 -34 185q-15 142 -29 466t-14 564q0 9 1 16v15q0 25 -9 37 t-33 12q-32 0 -32 -53zM265 1718l37 -26l35 47q2 21 18 70q14 44 36.5 108t31.5 88q48 -178 59 -307l27 -17q37 6 37 25q0 4 -8 22l2 11l-15 30l2 13q-9 29 -24 74q-19 51 -28 89t-9 76q0 43 -29 43q-19 0 -59.5 -72t-76 -158t-36.5 -116z" />
<glyph unicode="&#xdc;" horiz-adv-x="860" d="M133 1863q0 -19 11.5 -35t27.5 -16q20 0 35.5 9.5t15.5 25.5q0 28 -10.5 47.5t-30.5 19.5q-18 0 -33.5 -16.5t-15.5 -34.5zM155 1479q0 -10 1 -17v-14q0 -192 15.5 -535t25.5 -440l2 -34q2 -42 4 -65q3 -35 11 -85t19 -89q12 -45 33 -90t47 -76q27 -33 68 -53t88 -20 q48 0 86 23q36 22 57 55.5t34 83.5q12 45 16 84t4 88q0 113 -3 339q-4 201 -4 349v184q-1 82 -1 185v155q0 22 -11.5 35t-28.5 13t-28.5 -13t-11.5 -35q0 -46 5 -174q4 -103 4 -174l9 -262q9 -253 9 -383v-233q0 -28 -2 -68q-3 -35 -12 -70.5t-23 -57.5q-16 -26 -43.5 -42 t-62.5 -16q-38 0 -70 32q-31 30 -51 72.5t-36 105.5q-26 96 -34 185q-15 142 -29 466t-14 564q0 9 1 16v15q0 25 -9 37t-33 12q-32 0 -32 -53zM593 1865q0 -16 13 -30.5t28 -14.5q54 0 54 47q0 16 -14 32.5t-31 16.5q-19 0 -34.5 -16t-15.5 -35z" />
<glyph unicode="&#xdd;" horiz-adv-x="620" d="M139 1513q0 -35 30 -133q17 -59 32 -126.5t36 -174.5l27 -141q1 -3 3 -13.5t8 -32.5q21 -89 21 -116q0 -33 13 -94q12 -63 12 -96q0 -31 7 -83t7 -83q0 -51 -5 -198t-5 -197q0 -19 7.5 -34.5t21.5 -15.5q21 0 33 17.5t12 42.5q0 4 -1 7t-1 7l-6 6q4 121 4 414 q0 46 -7 123q-8 88 -8 123v16l13 31q0 12 -3 34q-3 23 -3 33q0 66 8.5 151.5t18.5 148.5q16 96 54 305q2 13 9 40q8 30 8 44q0 11 -5 16q-4 4 -8.5 5t-9.5 1h-8q-34 0 -60 -135q-27 -141 -41 -298q-17 -168 -20 -177q-17 23 -46 145t-54 260.5t-29 194.5l-24 16 q-17 0 -29 -9t-12 -24zM201 1870q0 -14 10.5 -22t26.5 -8q151 129 256 176l6 31q0 32 -45 32q-7 -7 -76 -60q-77 -59 -122 -96q-56 -45 -56 -53z" />
<glyph unicode="&#xde;" horiz-adv-x="700" d="M163 1395q0 -15 2 -29q0 -59 7 -147q0 -6 8 -119l7 -164q11 -237 11 -367q0 -32 2 -126t2 -126q0 -84 -1 -129t-1 -129q0 -71 25 -71q26 0 35.5 15t9.5 48q0 105 -5 188q-6 75 -6 188q92 20 110 32q14 9 26 14q18 7 27 15q43 34 78 103t55 149t20 147q0 58 -10 107 q-11 52 -37.5 102t-64.5 86q-40 38 -102 60.5t-138 23.5v2q-3 54 -4 136q-2 87 -5 136q0 -1 -5 1q-20 5 -29 5q-15 -4 -15 -16l1 -5v-10q0 -33 -1 -64zM231 1154v53q287 0 287 -324q0 -201 -133 -334q-14 -14 -57 -29.5t-69 -17.5q-1 93 -14 322q-12 197 -14 330z" />
<glyph unicode="&#xdf;" horiz-adv-x="720" d="M180 1266q0 -140 7 -365t7 -366q0 -67 -5 -259q-5 -193 -5 -260q0 -28 37 -28h2q38 0 38 61q0 98 -5 380t-5 380v78q0 75 -4 184t-4 184q0 211 94 211q45 0 77 -77q32 -78 32 -199q0 -52 -18.5 -120.5t-47 -120.5t-55.5 -60l-14 -4q-7 -2 -12 -9t-5 -18q0 -13 10 -27 t23 -20q50 -23 88 -73.5t57 -117.5q35 -122 35 -249v-11q0 -111 -28 -163q-6 -24 -47 -56.5t-82 -52.5q-25 -18 -25 -35q0 -12 13.5 -21t29.5 -9q7 0 18 4q121 62 153 173q16 54 21 101t5 125v47q0 133 -51 233t-146 148q65 62 98 156t33 204q0 95 -19.5 167.5t-56.5 113.5 t-88 41q-155 0 -155 -270z" />
<glyph unicode="&#xe0;" horiz-adv-x="740" d="M116 1808q0 -41 70 -41q16 0 33 4q8 -5 105.5 -39.5t101.5 -34.5q7 0 15.5 5.5t8.5 11.5q0 17 -39 39q-34 19 -84 39q-54 21 -81 30q-10 3 -16.5 5t-8.5 3q-18 23 -79 23h-13q-13 -9 -13 -45zM123 25q0 -12 14 -23.5t27 -11.5q16 0 31 35q13 34 24 86q18 95 23 147l4 41 q1 1 1 3t1 4q1 5 4 7t10 2q19 0 71 -5t75 -5q64 0 101 -10l34 -268q3 -22 7 -31t13 -11.5t31 -2.5q16 9 16 30v6q-89 703 -114 992l-12 108q-8 70 -11.5 118.5t-3.5 106.5q0 13 -11.5 22t-25.5 9q-12 -12 -37 -12q-8 0 -14 1l-14 1q-5 -9 -13 -61q-5 -28 -10 -83l-4 -33 l-8 -75q-10 -65 -36 -190q-27 -122 -36 -179l-22 -135l-12 -72q-7 -46 -14 -83l-23 -127q-28 -158 -62 -289l-2 -6zM264 376q0 65 47 298q5 20 111 547q63 -656 78 -871h-21q-57 0 -136 8t-79 18z" />
<glyph unicode="&#xe1;" horiz-adv-x="740" d="M123 25q0 -12 14 -23.5t27 -11.5q16 0 31 35q13 34 24 86q18 95 23 147l4 41q1 1 1 3t1 4q1 5 4 7t10 2q19 0 71 -5t75 -5q64 0 101 -10l34 -268q3 -22 7 -31t13 -11.5t31 -2.5q16 9 16 30v6q-89 703 -114 992l-12 108q-8 70 -11.5 118.5t-3.5 106.5q0 13 -11.5 22 t-25.5 9q-12 -12 -37 -12q-8 0 -14 1l-14 1q-5 -9 -13 -61q-5 -28 -10 -83l-4 -33l-8 -75q-10 -65 -36 -190q-27 -122 -36 -179l-22 -135l-12 -72q-7 -46 -14 -83l-23 -127q-28 -158 -62 -289l-2 -6zM264 376q0 65 47 298q5 20 111 547q63 -656 78 -871h-21q-57 0 -136 8 t-79 18zM291 1690q0 -14 10.5 -22t26.5 -8q151 129 256 176l6 31q0 32 -45 32q-7 -7 -76 -60q-77 -59 -122 -96q-56 -45 -56 -53z" />
<glyph unicode="&#xe2;" horiz-adv-x="740" d="M123 25q0 -12 14 -23.5t27 -11.5q16 0 31 35q13 34 24 86q18 95 23 147l4 41q1 1 1 3t1 4q1 5 4 7t10 2q19 0 71 -5t75 -5q64 0 101 -10l34 -268q3 -22 7 -31t13 -11.5t31 -2.5q16 9 16 30v6q-89 703 -114 992l-12 108q-8 70 -11.5 118.5t-3.5 106.5q0 13 -11.5 22 t-25.5 9q-12 -12 -37 -12q-8 0 -14 1l-14 1q-5 -9 -13 -61q-5 -28 -10 -83l-4 -33l-8 -75q-10 -65 -36 -190q-27 -122 -36 -179l-22 -135l-12 -72q-7 -46 -14 -83l-23 -127q-28 -158 -62 -289l-2 -6zM264 376q0 65 47 298q5 20 111 547q63 -656 78 -871h-21q-57 0 -136 8 t-79 18zM275 1538l37 -26l35 47q2 21 18 70q14 44 36.5 108t31.5 88q48 -178 59 -307l27 -17q37 6 37 25q0 4 -8 22l2 11l-15 30l2 13q-9 29 -24 74q-19 51 -28 89t-9 76q0 43 -29 43q-19 0 -59.5 -72t-76 -158t-36.5 -116z" />
<glyph unicode="&#xe3;" horiz-adv-x="740" d="M123 25q0 -12 14 -23.5t27 -11.5q16 0 31 35q13 34 24 86q18 95 23 147l4 41q1 1 1 3t1 4q1 5 4 7t10 2q19 0 71 -5t75 -5q64 0 101 -10l34 -268q3 -22 7 -31t13 -11.5t31 -2.5q16 9 16 30v6q-89 703 -114 992l-12 108q-8 70 -11.5 118.5t-3.5 106.5q0 13 -11.5 22 t-25.5 9q-12 -12 -37 -12q-8 0 -14 1l-14 1q-5 -9 -13 -61q-5 -28 -10 -83l-4 -33l-8 -75q-10 -65 -36 -190q-27 -122 -36 -179l-22 -135l-12 -72q-7 -46 -14 -83l-23 -127q-28 -158 -62 -289l-2 -6zM183 1606q0 -12 13 -23.5t26 -11.5l22 31q-10 33 -10 43q0 23 23 39 t53 16l14 -6q33 -39 52 -58q22 -23 59 -43t71 -20q28 0 53 15t40.5 40t15.5 53q0 29 -12 49.5t-35 20.5q-15 0 -21 -12q2 -8 7 -18q5 -15 5 -21q0 -73 -53 -73q-30 0 -66 24.5t-51 54.5q-36 42 -87 42q-50 0 -84.5 -39t-34.5 -103zM264 376q0 65 47 298q5 20 111 547 q63 -656 78 -871h-21q-57 0 -136 8t-79 18z" />
<glyph unicode="&#xe4;" horiz-adv-x="740" d="M123 25q0 -12 14 -23.5t27 -11.5q16 0 31 35q13 34 24 86q18 95 23 147l4 41q1 1 1 3t1 4q1 5 4 7t10 2q19 0 71 -5t75 -5q64 0 101 -10l34 -268q3 -22 7 -31t13 -11.5t31 -2.5q16 9 16 30v6q-89 703 -114 992l-12 108q-8 70 -11.5 118.5t-3.5 106.5q0 13 -11.5 22 t-25.5 9q-12 -12 -37 -12q-8 0 -14 1l-14 1q-5 -9 -13 -61q-5 -28 -10 -83l-4 -33l-8 -75q-10 -65 -36 -190q-27 -122 -36 -179l-22 -135l-12 -72q-7 -46 -14 -83l-23 -127q-28 -158 -62 -289l-2 -6zM143 1683q0 -19 11.5 -35t27.5 -16q20 0 35.5 9.5t15.5 25.5 q0 28 -10.5 47.5t-30.5 19.5q-18 0 -33.5 -16.5t-15.5 -34.5zM264 376q0 65 47 298q5 20 111 547q63 -656 78 -871h-21q-57 0 -136 8t-79 18zM603 1685q0 -16 13 -30.5t28 -14.5q54 0 54 47q0 16 -14 32.5t-31 16.5q-19 0 -34.5 -16t-15.5 -35z" />
<glyph unicode="&#xe5;" horiz-adv-x="740" d="M123 25q0 -12 14 -23.5t27 -11.5q16 0 31 35q13 34 24 86q18 95 23 147l4 41q1 1 1 3t1 4q1 5 4 7t10 2q19 0 71 -5t75 -5q64 0 101 -10l34 -268q3 -22 7 -31t13 -11.5t31 -2.5q16 9 16 30v6q-89 703 -114 992l-12 108q-8 70 -11.5 118.5t-3.5 106.5q0 13 -11.5 22 t-25.5 9q-12 -12 -37 -12q-8 0 -14 1l-14 1q-5 -9 -13 -61q-5 -28 -10 -83l-4 -33l-8 -75q-10 -65 -36 -190q-27 -122 -36 -179l-22 -135l-12 -72q-7 -46 -14 -83l-23 -127q-28 -158 -62 -289l-2 -6zM264 376q0 65 47 298q5 20 111 547q63 -656 78 -871h-21q-57 0 -136 8 t-79 18zM301 1716q0 -27 14 -52t37 -40.5t49 -15.5q59 0 95 30.5t36 86.5q0 25 -17 53t-43.5 46.5t-51.5 18.5q-29 0 -56.5 -19t-45 -48.5t-17.5 -59.5zM348 1727q0 27 23.5 52t48.5 25q28 0 43.5 -30t15.5 -70q0 -22 -29.5 -39.5t-56.5 -17.5q-19 0 -29 16q-10 14 -13 28.5 t-3 35.5z" />
<glyph unicode="&#xe6;" horiz-adv-x="940" d="M107 27q0 -8 5 -16.5t11 -8.5q17 0 32 41q12 34 24.5 90.5t15.5 75.5l102 371q3 11 48 18q32 5 100 11q52 3 63 5l11 -14q0 -47 5 -184q5 -138 5 -187q0 -116 -17 -215l29 -28q10 0 17 1l14 1q8 0 16 -2q11 5 85 7q71 1 133 9q61 7 61 29q0 12 -14 19t-31 7 q-36 0 -116 -11t-116 -11q-18 0 -18 35q0 23 1 42t1 42q0 97 -4 234t-4 233h55q145 0 145 34l-28 35q-105 0 -162 -20l-10 12q0 83 -1 147q-1 63 -1 146q0 51 -3 157q-3 107 -3 156q29 4 100 4h102l13 25q0 33 -64 33q-45 0 -80 -1t-78 -1q-50 0 -88 -131l-1 -4l-1 -5 l-4 -12q-162 -427 -268 -764q-81 -312 -82 -405zM312 643q3 26 50 170t95.5 278t59.5 146q2 -34 2 -74v-78q0 -38 -1 -69t-1 -68v-280q-113 -25 -205 -25z" />
<glyph unicode="&#xe7;" horiz-adv-x="720" d="M171 446v234q0 80 1.5 125.5t7.5 131.5q6 94 18.5 157t38.5 126q26 65 63 93q19 14 56 29q32 12 51 22h82l6 -1q2 -1 5 -1q9 -3 11 -3q8 -4 9 -5q5 -5 6 -8q2 -8 2 -13l-27 -30h-86q-40 0 -71 -37.5t-49 -95.5q-15 -50 -25.5 -120t-13.5 -123q-3 -48 -3 -89l-4 -11 q0 -84 -4 -207t-4 -206q0 -48 2.5 -84t8.5 -82q6 -45 21 -79.5t39 -68.5q23 -32 60 -48.5t86 -16.5q30 0 51 18q31 0 31 -22q0 -15 -26 -34.5t-52 -29.5h-58q-2 -30 -2 -48q149 -11 149 -206q0 -32 -22 -70.5t-58 -65t-75 -26.5q-32 0 -60 15t-28 40q0 21 22 21q13 0 33 -10 q22 -11 33 -11q35 0 57.5 43t22.5 100q0 67 -31 91q-9 0 -27 -3q-17 -4 -28 -4q-30 0 -56 41q16 39 17 109l-5 2q-39 12 -67 35t-53 69q-42 80 -51 234q-4 47 -4 123z" />
<glyph unicode="&#xe8;" horiz-adv-x="640" d="M56 1808q0 -41 70 -41q16 0 33 4q8 -5 105.5 -39.5t101.5 -34.5q7 0 15.5 5.5t8.5 11.5q0 17 -39 39q-34 19 -84 39q-54 21 -81 30q-10 3 -16.5 5t-8.5 3q-18 23 -79 23h-13q-13 -9 -13 -45zM179 76l7 -8q0 -14 -1 -26t-1 -26q3 -43 41 -43h169q89 0 89 37q0 27 -60 27 l-39 -2l-37 -2q-49 0 -67 15.5t-21 62.5q-6 83 -6 163l2 146l2 145q0 115 -4 162v6l10 10h9l67 -10q13 -16 47 -16q19 0 30 15.5t11 37.5q-1 37 -80 37q-5 0 -35 -2l-34 -2q-29 0 -29 57q0 64 4 159t4 159q0 50 -2 88l10 12q54 -2 166 -39q38 22 38 41t-38 31t-89 18 q-47 5 -60 8q-10 13 -33 13q-32 0 -45.5 -14t-13.5 -44q0 -50 4 -122q4 -73 4 -123q0 -117 -7 -309t-7 -308q0 -35 5 -135t5 -135q0 -43 -15 -84z" />
<glyph unicode="&#xe9;" horiz-adv-x="640" d="M179 76l7 -8q0 -14 -1 -26t-1 -26q3 -43 41 -43h169q89 0 89 37q0 27 -60 27l-39 -2l-37 -2q-49 0 -67 15.5t-21 62.5q-6 83 -6 163l2 146l2 145q0 115 -4 162v6l10 10h9l67 -10q13 -16 47 -16q19 0 30 15.5t11 37.5q-1 37 -80 37q-5 0 -35 -2l-34 -2q-29 0 -29 57 q0 64 4 159t4 159q0 50 -2 88l10 12q54 -2 166 -39q38 22 38 41t-38 31t-89 18q-47 5 -60 8q-10 13 -33 13q-32 0 -45.5 -14t-13.5 -44q0 -50 4 -122q4 -73 4 -123q0 -117 -7 -309t-7 -308q0 -35 5 -135t5 -135q0 -43 -15 -84zM231 1690q0 -14 10.5 -22t26.5 -8 q151 129 256 176l6 31q0 32 -45 32q-7 -7 -76 -60q-77 -59 -122 -96q-56 -45 -56 -53z" />
<glyph unicode="&#xea;" horiz-adv-x="640" d="M179 76l7 -8q0 -14 -1 -26t-1 -26q3 -43 41 -43h169q89 0 89 37q0 27 -60 27l-39 -2l-37 -2q-49 0 -67 15.5t-21 62.5q-6 83 -6 163l2 146l2 145q0 115 -4 162v6l10 10h9l67 -10q13 -16 47 -16q19 0 30 15.5t11 37.5q-1 37 -80 37q-5 0 -35 -2l-34 -2q-29 0 -29 57 q0 64 4 159t4 159q0 50 -2 88l10 12q54 -2 166 -39q38 22 38 41t-38 31t-89 18q-47 5 -60 8q-10 13 -33 13q-32 0 -45.5 -14t-13.5 -44q0 -50 4 -122q4 -73 4 -123q0 -117 -7 -309t-7 -308q0 -35 5 -135t5 -135q0 -43 -15 -84zM215 1538l37 -26l35 47q2 21 18 70 q14 44 36.5 108t31.5 88q48 -178 59 -307l27 -17q37 6 37 25q0 4 -8 22l2 11l-15 30l2 13q-9 29 -24 74q-19 51 -28 89t-9 76q0 43 -29 43q-19 0 -59.5 -72t-76 -158t-36.5 -116z" />
<glyph unicode="&#xeb;" horiz-adv-x="640" d="M83 1683q0 -19 11.5 -35t27.5 -16q20 0 35.5 9.5t15.5 25.5q0 28 -10.5 47.5t-30.5 19.5q-18 0 -33.5 -16.5t-15.5 -34.5zM179 76l7 -8q0 -14 -1 -26t-1 -26q3 -43 41 -43h169q89 0 89 37q0 27 -60 27l-39 -2l-37 -2q-49 0 -67 15.5t-21 62.5q-6 83 -6 163l2 146l2 145 q0 115 -4 162v6l10 10h9l67 -10q13 -16 47 -16q19 0 30 15.5t11 37.5q-1 37 -80 37q-5 0 -35 -2l-34 -2q-29 0 -29 57q0 64 4 159t4 159q0 50 -2 88l10 12q54 -2 166 -39q38 22 38 41t-38 31t-89 18q-47 5 -60 8q-10 13 -33 13q-32 0 -45.5 -14t-13.5 -44q0 -50 4 -122 q4 -73 4 -123q0 -117 -7 -309t-7 -308q0 -35 5 -135t5 -135q0 -43 -15 -84zM543 1685q0 -16 13 -30.5t28 -14.5q54 0 54 47q0 16 -14 32.5t-31 16.5q-19 0 -34.5 -16t-15.5 -35z" />
<glyph unicode="&#xec;" horiz-adv-x="700" d="M28 1808q0 -41 70 -41q16 0 33 4q8 -5 105.5 -39.5t101.5 -34.5q7 0 15.5 5.5t8.5 11.5q0 17 -39 39q-34 19 -84 39q-54 21 -81 30q-10 3 -16.5 5t-8.5 3q-18 23 -79 23h-13q-13 -9 -13 -45zM147 1325q0 -35 39 -35l25 2l24 2q42 0 61 -6q10 -93 10 -237q0 -61 -5 -238 q-5 -178 -5 -240q0 -66 8 -224q7 -139 7 -224q0 -7 -3 -24q-4 -15 -4 -19l-8 -8h-59l-12 -11q-9 -6 -12 -11t-3 -13q12 -21 56 -21q9 0 17 1q7 1 17 1q8 -20 56 -20q13 0 35 12q24 11 38 11q12 0 34 -3q20 -4 34 -4q19 0 32 11.5t13 29.5q0 29 -61 29q-17 0 -30 -1t-30 -1 q-45 0 -45 20l2 5q-6 9 -6 57q0 22 1 37l1 26q0 85 -7 225q-7 139 -7 224q0 81 3 244q3 162 3 243q0 91 -6 109l10 6q43 0 59 -12l47 4q5 12 5 16q0 22 -36 35q-41 15 -94 19q-88 8 -155 8q-13 0 -31 -8.5t-18 -16.5z" />
<glyph unicode="&#xed;" horiz-adv-x="700" d="M147 1325q0 -35 39 -35l25 2l24 2q42 0 61 -6q10 -93 10 -237q0 -61 -5 -238q-5 -178 -5 -240q0 -66 8 -224q7 -139 7 -224q0 -7 -3 -24q-4 -15 -4 -19l-8 -8h-59l-12 -11q-9 -6 -12 -11t-3 -13q12 -21 56 -21q9 0 17 1q7 1 17 1q8 -20 56 -20q13 0 35 12q24 11 38 11 q12 0 34 -3q20 -4 34 -4q19 0 32 11.5t13 29.5q0 29 -61 29q-17 0 -30 -1t-30 -1q-45 0 -45 20l2 5q-6 9 -6 57q0 22 1 37l1 26q0 85 -7 225q-7 139 -7 224q0 81 3 244q3 162 3 243q0 91 -6 109l10 6q43 0 59 -12l47 4q5 12 5 16q0 22 -36 35q-41 15 -94 19q-88 8 -155 8 q-13 0 -31 -8.5t-18 -16.5zM203 1690q0 -14 10.5 -22t26.5 -8q151 129 256 176l6 31q0 32 -45 32q-7 -7 -76 -60q-77 -59 -122 -96q-56 -45 -56 -53z" />
<glyph unicode="&#xee;" horiz-adv-x="700" d="M147 1325q0 -35 39 -35l25 2l24 2q42 0 61 -6q10 -93 10 -237q0 -61 -5 -238q-5 -178 -5 -240q0 -66 8 -224q7 -139 7 -224q0 -7 -3 -24q-4 -15 -4 -19l-8 -8h-59l-12 -11q-9 -6 -12 -11t-3 -13q12 -21 56 -21q9 0 17 1q7 1 17 1q8 -20 56 -20q13 0 35 12q24 11 38 11 q12 0 34 -3q20 -4 34 -4q19 0 32 11.5t13 29.5q0 29 -61 29q-17 0 -30 -1t-30 -1q-45 0 -45 20l2 5q-6 9 -6 57q0 22 1 37l1 26q0 85 -7 225q-7 139 -7 224q0 81 3 244q3 162 3 243q0 91 -6 109l10 6q43 0 59 -12l47 4q5 12 5 16q0 22 -36 35q-41 15 -94 19q-88 8 -155 8 q-13 0 -31 -8.5t-18 -16.5zM187 1538l37 -26l35 47q2 21 18 70q14 44 36.5 108t31.5 88q48 -178 59 -307l27 -17q37 6 37 25q0 4 -8 22l2 11l-15 30l2 13q-9 29 -24 74q-19 51 -28 89t-9 76q0 43 -29 43q-19 0 -59.5 -72t-76 -158t-36.5 -116z" />
<glyph unicode="&#xef;" horiz-adv-x="700" d="M55 1683q0 -19 11.5 -35t27.5 -16q20 0 35.5 9.5t15.5 25.5q0 28 -10.5 47.5t-30.5 19.5q-18 0 -33.5 -16.5t-15.5 -34.5zM147 1325q0 -35 39 -35l25 2l24 2q42 0 61 -6q10 -93 10 -237q0 -61 -5 -238q-5 -178 -5 -240q0 -66 8 -224q7 -139 7 -224q0 -7 -3 -24 q-4 -15 -4 -19l-8 -8h-59l-12 -11q-9 -6 -12 -11t-3 -13q12 -21 56 -21q9 0 17 1q7 1 17 1q8 -20 56 -20q13 0 35 12q24 11 38 11q12 0 34 -3q20 -4 34 -4q19 0 32 11.5t13 29.5q0 29 -61 29q-17 0 -30 -1t-30 -1q-45 0 -45 20l2 5q-6 9 -6 57q0 22 1 37l1 26q0 85 -7 225 q-7 139 -7 224q0 81 3 244q3 162 3 243q0 91 -6 109l10 6q43 0 59 -12l47 4q5 12 5 16q0 22 -36 35q-41 15 -94 19q-88 8 -155 8q-13 0 -31 -8.5t-18 -16.5zM515 1685q0 -16 13 -30.5t28 -14.5q54 0 54 47q0 16 -14 32.5t-31 16.5q-19 0 -34.5 -16t-15.5 -35z" />
<glyph unicode="&#xf0;" horiz-adv-x="680" d="M179 170q0 -33 3 -59q2 -28 11 -55t23 -44q16 -19 42.5 -30t61.5 -11q38 0 67.5 21.5t45.5 56.5q14 31 23.5 77.5t12.5 89.5q7 127 11 153q10 230 10 438v8q0 288 -35 481q88 10 88 17l2 10q0 10 -12 10q-34 0 -82 -4q-53 240 -158 240q-7 0 -15.5 -6.5t-8.5 -12.5 q0 -12 11.5 -21.5t33.5 -18.5q16 -6 25 -13q37 -31 61 -174q-69 -10 -131 -10q-23 0 -23 -29q0 -8 11 -8q33 0 147 12q26 -165 33 -391q-23 16 -45 16q-38 0 -69.5 -24t-52.5 -70q-24 -50 -39.5 -101t-23.5 -116q-11 -79 -16.5 -131t-7.5 -116q-4 -93 -4 -185zM228 174 q0 69 7 231q6 147 40 308q15 72 41 113.5t59 41.5q41 -8 62 -24v-117q0 -294 -33 -561q-2 -6 -3 -28q-3 -30 -9 -59q-3 -17 -8.5 -25t-18.5 -22q-19 -20 -61 -20q-76 0 -76 162z" />
<glyph unicode="&#xf1;" horiz-adv-x="1000" d="M179 829q0 -112 7 -294q6 -196 6 -295q0 -28 -4 -67q-4 -40 -4 -67q0 -110 43 -110q17 0 27.5 12.5t10.5 28.5q0 29 -8 43v184q-14 37 -14 377h6l-4 66q-4 44 -4 77l2 49l2 50l-2 80l-2 81q0 83 16 144q48 -46 232 -617q48 -145 55 -153q10 -31 38 -107q54 -145 68 -235 l-2 -6q5 -8 9 -29q5 -24 13 -36.5t23 -12.5q4 0 22 5l1 -1v1q24 7 35 9q13 26 28 250t26 492t11 380l11 17v137q0 22 -13 40.5t-32 18.5q-29 0 -29 -43l2 -26l2 -25q0 -664 -47 -1116l-4 -6q-29 50 -50.5 114.5t-41.5 154.5q-20 83 -33 126q-37 114 -146 367 q-112 260 -147 407l-2 11l-3 12q-4 11 -9 18q-9 9 -19 13l-20 -5l-6 7q-37 -31 -37 -132v-26q0 -59 -6 -181q-7 -113 -7 -182zM273 1606q0 -12 13 -23.5t26 -11.5l22 31q-10 33 -10 43q0 23 23 39t53 16l14 -6q33 -39 52 -58q22 -23 59 -43t71 -20q28 0 53 15t40.5 40 t15.5 53q0 29 -12 49.5t-35 20.5q-15 0 -21 -12q2 -8 7 -18q5 -15 5 -21q0 -73 -53 -73q-30 0 -66 24.5t-51 54.5q-36 42 -87 42q-50 0 -84.5 -39t-34.5 -103z" />
<glyph unicode="&#xf2;" horiz-adv-x="820" d="M116 1808q0 -41 70 -41q16 0 33 4q8 -5 105.5 -39.5t101.5 -34.5q7 0 15.5 5.5t8.5 11.5q0 17 -39 39q-34 19 -84 39q-54 21 -81 30q-10 3 -16.5 5t-8.5 3q-18 23 -79 23h-13q-13 -9 -13 -45zM171 715q0 -754 240 -754q46 0 81 25q35 23 58.5 60.5t41.5 93.5 q16 52 25.5 102.5t15.5 116.5q5 56 6 100.5t1 87.5l-2 122l-2 122l4 10q0 130 -21.5 249t-64.5 193q-38 72 -78 79q-4 1 -45 8t-84 22q-18 5 -28 5q-148 0 -148 -571v-71zM235 717q0 24 5 96t5 96q7 32 9.5 77.5t3 82.5t0.5 47q1 44 9 88q17 90 111 90q47 0 86.5 -30.5 t62.5 -81t23 -109.5l-4 -10l8 -16q0 -81 12 -242q11 -168 11 -242q0 -91 -8 -196q-9 -121 -47 -233q-18 -54 -49 -84t-70 -30q-41 0 -72 49q-29 46 -46 109.5t-29 154.5q-17 132 -17 222l-2 81z" />
<glyph unicode="&#xf3;" horiz-adv-x="820" d="M171 715q0 -754 240 -754q46 0 81 25q35 23 58.5 60.5t41.5 93.5q16 52 25.5 102.5t15.5 116.5q5 56 6 100.5t1 87.5l-2 122l-2 122l4 10q0 130 -21.5 249t-64.5 193q-38 72 -78 79q-4 1 -45 8t-84 22q-18 5 -28 5q-148 0 -148 -571v-71zM235 717q0 24 5 96t5 96 q7 32 9.5 77.5t3 82.5t0.5 47q1 44 9 88q17 90 111 90q47 0 86.5 -30.5t62.5 -81t23 -109.5l-4 -10l8 -16q0 -81 12 -242q11 -168 11 -242q0 -91 -8 -196q-9 -121 -47 -233q-18 -54 -49 -84t-70 -30q-41 0 -72 49q-29 46 -46 109.5t-29 154.5q-17 132 -17 222l-2 81z M291 1690q0 -14 10.5 -22t26.5 -8q151 129 256 176l6 31q0 32 -45 32q-7 -7 -76 -60q-77 -59 -122 -96q-56 -45 -56 -53z" />
<glyph unicode="&#xf4;" horiz-adv-x="820" d="M171 715q0 -754 240 -754q46 0 81 25q35 23 58.5 60.5t41.5 93.5q16 52 25.5 102.5t15.5 116.5q5 56 6 100.5t1 87.5l-2 122l-2 122l4 10q0 130 -21.5 249t-64.5 193q-38 72 -78 79q-4 1 -45 8t-84 22q-18 5 -28 5q-148 0 -148 -571v-71zM235 717q0 24 5 96t5 96 q7 32 9.5 77.5t3 82.5t0.5 47q1 44 9 88q17 90 111 90q47 0 86.5 -30.5t62.5 -81t23 -109.5l-4 -10l8 -16q0 -81 12 -242q11 -168 11 -242q0 -91 -8 -196q-9 -121 -47 -233q-18 -54 -49 -84t-70 -30q-41 0 -72 49q-29 46 -46 109.5t-29 154.5q-17 132 -17 222l-2 81z M275 1538l37 -26l35 47q2 21 18 70q14 44 36.5 108t31.5 88q48 -178 59 -307l27 -17q37 6 37 25q0 4 -8 22l2 11l-15 30l2 13q-9 29 -24 74q-19 51 -28 89t-9 76q0 43 -29 43q-19 0 -59.5 -72t-76 -158t-36.5 -116z" />
<glyph unicode="&#xf5;" horiz-adv-x="820" d="M171 715q0 -754 240 -754q46 0 81 25q35 23 58.5 60.5t41.5 93.5q16 52 25.5 102.5t15.5 116.5q5 56 6 100.5t1 87.5l-2 122l-2 122l4 10q0 130 -21.5 249t-64.5 193q-38 72 -78 79q-4 1 -45 8t-84 22q-18 5 -28 5q-148 0 -148 -571v-71zM183 1606q0 -12 13 -23.5 t26 -11.5l22 31q-10 33 -10 43q0 23 23 39t53 16l14 -6q33 -39 52 -58q22 -23 59 -43t71 -20q28 0 53 15t40.5 40t15.5 53q0 29 -12 49.5t-35 20.5q-15 0 -21 -12q2 -8 7 -18q5 -15 5 -21q0 -73 -53 -73q-30 0 -66 24.5t-51 54.5q-36 42 -87 42q-50 0 -84.5 -39t-34.5 -103z M235 717q0 24 5 96t5 96q7 32 9.5 77.5t3 82.5t0.5 47q1 44 9 88q17 90 111 90q47 0 86.5 -30.5t62.5 -81t23 -109.5l-4 -10l8 -16q0 -81 12 -242q11 -168 11 -242q0 -91 -8 -196q-9 -121 -47 -233q-18 -54 -49 -84t-70 -30q-41 0 -72 49q-29 46 -46 109.5t-29 154.5 q-17 132 -17 222l-2 81z" />
<glyph unicode="&#xf6;" horiz-adv-x="820" d="M143 1683q0 -19 11.5 -35t27.5 -16q20 0 35.5 9.5t15.5 25.5q0 28 -10.5 47.5t-30.5 19.5q-18 0 -33.5 -16.5t-15.5 -34.5zM171 715q0 -754 240 -754q46 0 81 25q35 23 58.5 60.5t41.5 93.5q16 52 25.5 102.5t15.5 116.5q5 56 6 100.5t1 87.5l-2 122l-2 122l4 10 q0 130 -21.5 249t-64.5 193q-38 72 -78 79q-4 1 -45 8t-84 22q-18 5 -28 5q-148 0 -148 -571v-71zM235 717q0 24 5 96t5 96q7 32 9.5 77.5t3 82.5t0.5 47q1 44 9 88q17 90 111 90q47 0 86.5 -30.5t62.5 -81t23 -109.5l-4 -10l8 -16q0 -81 12 -242q11 -168 11 -242 q0 -91 -8 -196q-9 -121 -47 -233q-18 -54 -49 -84t-70 -30q-41 0 -72 49q-29 46 -46 109.5t-29 154.5q-17 132 -17 222l-2 81zM603 1685q0 -16 13 -30.5t28 -14.5q54 0 54 47q0 16 -14 32.5t-31 16.5q-19 0 -34.5 -16t-15.5 -35z" />
<glyph unicode="&#xf7;" horiz-adv-x="720" d="M155 756q0 -15 12.5 -25t30.5 -10h219q48 0 113 4q39 0 39 16q0 7 -7.5 14t-15.5 7h-190q-201 0 -201 -6zM348 977q0 -19 16 -34t35 -15q16 0 30.5 13t14.5 28q0 53 -47 53q-16 0 -32.5 -14t-16.5 -31zM350 516q0 -18 16.5 -33.5t34.5 -15.5q19 0 35 11.5t16 27.5 q0 20 -9.5 35.5t-25.5 15.5q-28 0 -47.5 -10.5t-19.5 -30.5z" />
<glyph unicode="&#xf8;" horiz-adv-x="720" d="M179 870q0 -450 41 -698q3 -15 8 -31q7 -22 7 -37q-6 -65 -25 -161q-18 -95 -25 -162q0 -29 19 -29q23 0 53 256l2 15h2q25 -37 90 -37q38 0 68 18q30 17 49.5 42.5t33.5 66.5q14 40 20.5 74.5t10.5 83.5q5 63 5 139q0 60 -3 177t-3 177l-5 6v10q0 51 -13 145 q-13 92 -13 144l4 2q0 74 -23 125q-1 3 -14 24t-14 31l2 4l-8 13l-9 14q-4 6 -7 14.5t-3 14.5q0 12 21 132q20 123 20 130v18h-33q-7 -28 -22 -113l-4 -23l-19 -105l-14 14l-6 -4q-1 1 -26 15q-19 7 -30 7q-137 0 -137 -389v-123zM220 768v14q0 510 58 541l10 -2 q29 10 31 10q23 0 41 -15t18 -36q0 -51 -13 -145q-5 -31 -10 -66q-5 -33 -23 -209q-57 -511 -73 -606q0 67 -12 197q-12 131 -12 196q-15 39 -15 121zM284 111q0 34 14 90q8 32 28 215q58 580 95 801q30 -58 46 -244q15 -168 18.5 -297t3.5 -307q0 -344 -121 -344 q-45 0 -64.5 20t-19.5 66z" />
<glyph unicode="&#xf9;" d="M106 1808q0 -41 70 -41q16 0 33 4q8 -5 105.5 -39.5t101.5 -34.5q7 0 15.5 5.5t8.5 11.5q0 17 -39 39q-34 19 -84 39q-54 21 -81 30q-10 3 -16.5 5t-8.5 3q-18 23 -79 23h-13q-13 -9 -13 -45zM175 1319q7 -54 10.5 -198t7.5 -418l1 -66q3 -218 20 -389t45 -207 q24 -29 62 -50t71 -22q50 0 87.5 34t58.5 97q42 124 49 301q6 137 9 338q2 102 5 140q0 12 -1 21t-1 20q0 19 5 81t5 82q0 7 -2 13q13 49 13 209q0 56 -5 71q-6 13 -30 13q-35 0 -35 -23l2 -18l2 -19q0 -332 -14 -833l-3 -42q-26 -429 -120 -429q-154 0 -154 233 q0 65 -11 217t-11 217l-6 543q0 107 -47 113z" />
<glyph unicode="&#xfa;" d="M175 1319q7 -54 10.5 -198t7.5 -418l1 -66q3 -218 20 -389t45 -207q24 -29 62 -50t71 -22q50 0 87.5 34t58.5 97q42 124 49 301q6 137 9 338q2 102 5 140q0 12 -1 21t-1 20q0 19 5 81t5 82q0 7 -2 13q13 49 13 209q0 56 -5 71q-6 13 -30 13q-35 0 -35 -23l2 -18l2 -19 q0 -332 -14 -833l-3 -42q-26 -429 -120 -429q-154 0 -154 233q0 65 -11 217t-11 217l-6 543q0 107 -47 113zM281 1690q0 -14 10.5 -22t26.5 -8q151 129 256 176l6 31q0 32 -45 32q-7 -7 -76 -60q-77 -59 -122 -96q-56 -45 -56 -53z" />
<glyph unicode="&#xfb;" d="M175 1319q7 -54 10.5 -198t7.5 -418l1 -66q3 -218 20 -389t45 -207q24 -29 62 -50t71 -22q50 0 87.5 34t58.5 97q42 124 49 301q6 137 9 338q2 102 5 140q0 12 -1 21t-1 20q0 19 5 81t5 82q0 7 -2 13q13 49 13 209q0 56 -5 71q-6 13 -30 13q-35 0 -35 -23l2 -18l2 -19 q0 -332 -14 -833l-3 -42q-26 -429 -120 -429q-154 0 -154 233q0 65 -11 217t-11 217l-6 543q0 107 -47 113zM265 1538l37 -26l35 47q2 21 18 70q14 44 36.5 108t31.5 88q48 -178 59 -307l27 -17q37 6 37 25q0 4 -8 22l2 11l-15 30l2 13q-9 29 -24 74q-19 51 -28 89t-9 76 q0 43 -29 43q-19 0 -59.5 -72t-76 -158t-36.5 -116z" />
<glyph unicode="&#xfc;" d="M133 1683q0 -19 11.5 -35t27.5 -16q20 0 35.5 9.5t15.5 25.5q0 28 -10.5 47.5t-30.5 19.5q-18 0 -33.5 -16.5t-15.5 -34.5zM175 1319q7 -54 10.5 -198t7.5 -418l1 -66q3 -218 20 -389t45 -207q24 -29 62 -50t71 -22q50 0 87.5 34t58.5 97q42 124 49 301q6 137 9 338 q2 102 5 140q0 12 -1 21t-1 20q0 19 5 81t5 82q0 7 -2 13q13 49 13 209q0 56 -5 71q-6 13 -30 13q-35 0 -35 -23l2 -18l2 -19q0 -332 -14 -833l-3 -42q-26 -429 -120 -429q-154 0 -154 233q0 65 -11 217t-11 217l-6 543q0 107 -47 113zM593 1685q0 -16 13 -30.5t28 -14.5 q54 0 54 47q0 16 -14 32.5t-31 16.5q-19 0 -34.5 -16t-15.5 -35z" />
<glyph unicode="&#xfd;" horiz-adv-x="720" d="M155 1307q2 -26 17 -77q13 -47 39.5 -122t34.5 -97l22 -61q25 -70 50.5 -137t36.5 -96l-6 -25l13 -26l9 -145q7 -104 7 -171q0 -307 -20 -358q3 -7 13 -15t17 -8q43 0 43 139v9q0 91 -1 163t-1 162q0 28 -8 94t-8 93q0 12 6 31q6 18 6 28q0 11 -10 35q0 87 24 187 q11 50 22.5 91t27.5 96l6 22q57 189 57 220q0 9 -8.5 15t-18.5 6q-24 0 -53 -114q-27 -110 -52 -242q-26 -129 -40 -146l4 -10l-8 -37q-16 5 -54 132l-15 48q-37 123 -64 208q-40 127 -60 130zM241 1690q0 -14 10.5 -22t26.5 -8q151 129 256 176l6 31q0 32 -45 32 q-7 -7 -76 -60q-77 -59 -122 -96q-56 -45 -56 -53z" />
<glyph unicode="&#xfe;" horiz-adv-x="660" d="M203 1487q0 22 7 31t23 9q26 0 40 -36.5t14 -110.5q0 -33 -3 -86q-2 -23 -3.5 -40.5t-0.5 -23.5v-16q78 -4 142.5 -61t94.5 -148q25 -76 25 -160q0 -124 -66 -217t-190 -142q-1 -58 8 -211q8 -142 8 -201q0 -34 -11.5 -49t-35.5 -15q-12 0 -20 13t-8 35q0 171 -11 562 t-11 558zM277 1150l2 -300l2 -318q102 63 149.5 134t47.5 162q0 74 -6 113t-26 74q-20 36 -45.5 60.5t-89.5 74.5h-34z" />
<glyph unicode="&#xff;" horiz-adv-x="720" d="M93 1683q0 -19 11.5 -35t27.5 -16q20 0 35.5 9.5t15.5 25.5q0 28 -10.5 47.5t-30.5 19.5q-18 0 -33.5 -16.5t-15.5 -34.5zM155 1307q2 -26 17 -77q13 -47 39.5 -122t34.5 -97l22 -61q25 -70 50.5 -137t36.5 -96l-6 -25l13 -26l9 -145q7 -104 7 -171q0 -307 -20 -358 q3 -7 13 -15t17 -8q43 0 43 139v9q0 91 -1 163t-1 162q0 28 -8 94t-8 93q0 12 6 31q6 18 6 28q0 11 -10 35q0 87 24 187q11 50 22.5 91t27.5 96l6 22q57 189 57 220q0 9 -8.5 15t-18.5 6q-24 0 -53 -114q-27 -110 -52 -242q-26 -129 -40 -146l4 -10l-8 -37q-16 5 -54 132 l-15 48q-37 123 -64 208q-40 127 -60 130zM553 1685q0 -16 13 -30.5t28 -14.5q54 0 54 47q0 16 -14 32.5t-31 16.5q-19 0 -34.5 -16t-15.5 -35z" />
<glyph unicode="&#x152;" horiz-adv-x="1200" d="M171 965q0 -53 5 -210t5 -210q0 -112 30.5 -208.5t89.5 -169.5q60 -74 151.5 -115.5t204.5 -41.5q27 0 76 15q48 15 69 18l-12 -33q3 -30 49 -30q53 0 156 3q104 3 155 3l12 18q0 39 -141 39q-29 0 -85 -3l-73 -5q0 138 -7 366q-7 227 -7 365q0 18 59 18q16 0 47 -3 q32 -3 46 -3q19 0 25.5 7t6.5 26q-19 25 -49 25l-26 -2q-18 -3 -27 -3l-80 3q-10 33 -10 84l2 53l2 53q0 71 -14 228q-15 152 -15 227q49 0 121 -4q90 -5 121 -5q37 0 37 23q0 8 -10 19t-21 18l-22 -2l-23 -2h-151q-15 0 -40 6q-27 6 -40 6l-31 -43l6 -22q-72 79 -295 79 q-58 0 -106 -30t-80 -82q-65 -107 -89 -242q-22 -126 -22 -233zM220 748q2 34 2 73t-1 72t-1 74q0 108 17 219q18 119 81 215q30 45 78 70.5t107 25.5q87 0 158 -23.5t108 -72.5q0 -47 7 -124q6 -82 6 -124q0 -155 14 -499q14 -345 14 -500q0 -25 -22.5 -43t-60.5 -26 q-64 -13 -120 -13q-146 0 -262 125q-33 5 -59 77t-38 169q-24 197 -24 298z" />
<glyph unicode="&#x153;" horiz-adv-x="980" d="M163 715q0 -754 240 -754q115 0 172 156q-3 -20 -10 -41l6 -8q0 -14 -1 -26t-1 -26q3 -43 41 -43h170q88 0 88 37q0 27 -60 27l-38 -2l-37 -2q-49 0 -67.5 15.5t-21.5 62.5q-6 83 -6 163l2 146l2 145q0 115 -4 162l11 16h8l67 -10q13 -16 47 -16q19 0 30 15.5t11 37.5 q-1 37 -79 37l-36 -2l-34 -2q-29 0 -29 57q0 64 4 159t4 159q0 50 -2 88l11 12q54 -2 166 -39q37 22 37 41t-38 31t-89 18q-47 5 -60 8q-10 13 -33 13q-32 0 -45.5 -14t-13.5 -44q0 -49 4 -118l-17 34q-10 18 -16 35q-21 62 -57.5 97t-79.5 35q-45 0 -87 -38.5t-78 -113.5 q-38 -77 -59.5 -210t-21.5 -298zM227 717q0 24 5 96t5 96q0 108 29.5 203t76.5 151t94 56q46 0 76 -61q29 -63 29 -185l-4 -10l8 -16q0 -81 12 -242q11 -168 11 -242q0 -91 -8 -196q-9 -121 -47 -233q-18 -54 -49 -84t-70 -30q-41 0 -72 49q-29 46 -46 109.5t-29 154.5 q-17 132 -17 222l-2 81z" />
<glyph unicode="&#x178;" horiz-adv-x="620" d="M53 1863q0 -19 11.5 -35t27.5 -16q20 0 35.5 9.5t15.5 25.5q0 28 -10.5 47.5t-30.5 19.5q-18 0 -33.5 -16.5t-15.5 -34.5zM139 1513q0 -35 30 -133q17 -59 32 -126.5t36 -174.5l27 -141q1 -3 3 -13.5t8 -32.5q21 -89 21 -116q0 -33 13 -94q12 -63 12 -96q0 -31 7 -83 t7 -83q0 -51 -5 -198t-5 -197q0 -19 7.5 -34.5t21.5 -15.5q21 0 33 17.5t12 42.5q0 4 -1 7t-1 7l-6 6q4 121 4 414q0 46 -7 123q-8 88 -8 123v16l13 31q0 12 -3 34q-3 23 -3 33q0 66 8.5 151.5t18.5 148.5q16 96 54 305q2 13 9 40q8 30 8 44q0 11 -5 16q-4 4 -8.5 5t-9.5 1 h-8q-34 0 -60 -135q-27 -141 -41 -298q-17 -168 -20 -177q-17 23 -46 145t-54 260.5t-29 194.5l-24 16q-17 0 -29 -9t-12 -24zM513 1865q0 -16 13 -30.5t28 -14.5q54 0 54 47q0 16 -14 32.5t-31 16.5q-19 0 -34.5 -16t-15.5 -35z" />
<glyph unicode="&#x2c6;" horiz-adv-x="640" d="M171 987l37 -26l35 47q2 21 18 70q14 44 36.5 108t31.5 88q48 -178 59 -307l27 -17q37 6 37 25q0 4 -8 22l2 11l-15 30l2 13q-9 29 -24 74q-19 51 -28 89t-9 76q0 43 -29 43q-19 0 -59.5 -72t-76 -158t-36.5 -116z" />
<glyph unicode="&#x2dc;" d="M179 1055q0 -12 13 -23.5t26 -11.5l22 31q-10 33 -10 43q0 23 23 39t53 16l14 -6q33 -39 52 -58q22 -23 59 -43t71 -20q28 0 53 15t40.5 40t15.5 53q0 29 -12 49.5t-35 20.5q-15 0 -21 -12q2 -8 7 -18q5 -15 5 -21q0 -73 -53 -73q-30 0 -66 24.5t-51 54.5q-36 42 -87 42 q-50 0 -84.5 -39t-34.5 -103z" />
<glyph unicode="&#x2000;" horiz-adv-x="1039" />
<glyph unicode="&#x2001;" horiz-adv-x="2079" />
<glyph unicode="&#x2002;" horiz-adv-x="1039" />
<glyph unicode="&#x2003;" horiz-adv-x="2079" />
<glyph unicode="&#x2004;" horiz-adv-x="693" />
<glyph unicode="&#x2005;" horiz-adv-x="519" />
<glyph unicode="&#x2006;" horiz-adv-x="346" />
<glyph unicode="&#x2007;" horiz-adv-x="346" />
<glyph unicode="&#x2008;" horiz-adv-x="259" />
<glyph unicode="&#x2009;" horiz-adv-x="415" />
<glyph unicode="&#x200a;" horiz-adv-x="115" />
<glyph unicode="&#x2010;" horiz-adv-x="720" d="M155 715q0 -15 13.5 -25t29.5 -10q57 0 142 9t147.5 23t62.5 27q0 14 -14.5 24.5t-30.5 10.5q-55 0 -139.5 -9t-147.5 -23t-63 -27z" />
<glyph unicode="&#x2011;" horiz-adv-x="720" d="M155 715q0 -15 13.5 -25t29.5 -10q57 0 142 9t147.5 23t62.5 27q0 14 -14.5 24.5t-30.5 10.5q-55 0 -139.5 -9t-147.5 -23t-63 -27z" />
<glyph unicode="&#x2012;" horiz-adv-x="720" d="M155 715q0 -15 13.5 -25t29.5 -10q57 0 142 9t147.5 23t62.5 27q0 14 -14.5 24.5t-30.5 10.5q-55 0 -139.5 -9t-147.5 -23t-63 -27z" />
<glyph unicode="&#x2013;" horiz-adv-x="880" d="M123 756q0 -15 12.5 -25t30.5 -10h301q215 0 215 6h62q0 14 -14.5 24.5t-30.5 10.5h-293q-283 0 -283 -6z" />
<glyph unicode="&#x2014;" horiz-adv-x="1060" d="M75 756q0 -15 12.5 -25t30.5 -10h588q215 0 215 6h62q0 14 -15 24.5t-31 10.5h-292q-570 0 -570 -6z" />
<glyph unicode="&#x2018;" horiz-adv-x="560" d="M187 1276q21 -59 68 -59q30 0 54 18t24 45q0 25 -17 49.5t-43 40.5q0 19 6 35q9 26 45 62q13 13 29.5 29t26.5 24l4 18l-33 16q-34 -1 -74 -49q-38 -46 -64 -104.5t-26 -93.5q0 -18 4 -25z" />
<glyph unicode="&#x2019;" horiz-adv-x="390" d="M99 1233l33 -16q34 1 74 49q38 46 64 104.5t26 93.5q0 18 -4 25l4 6q-21 59 -68 59q-30 0 -54 -18t-24 -45q0 -25 17 -49.5t43 -40.5q0 -18 -6 -35q-8 -23 -44 -62q-13 -13 -30 -29t-27 -24z" />
<glyph unicode="&#x201a;" horiz-adv-x="560" d="M163 -162l33 -16q34 1 74 50q38 46 64 104.5t26 93.5q0 17 -4 24l4 6q-22 60 -68 60q-29 0 -53 -18.5t-24 -45.5q0 -26 17 -50.5t42 -39.5q0 -19 -6 -35q-11 -28 -45 -62q-24 -24 -56 -52z" />
<glyph unicode="&#x201c;" horiz-adv-x="700" d="M155 1276q21 -59 68 -59q30 0 54 18t24 45q0 25 -17 49.5t-43 40.5q0 19 6 35q9 26 45 62q13 13 29.5 29t26.5 24l4 18l-33 16q-34 -1 -74 -49q-38 -46 -64 -104.5t-26 -93.5q0 -18 4 -25zM368 1276q21 -59 68 -59q30 0 54 18t24 45q0 25 -17 49.5t-43 40.5q0 19 6 35 q9 26 45 62q13 13 29.5 29t26.5 24l4 18l-33 16q-34 -1 -74 -49q-38 -46 -64 -104.5t-26 -93.5q0 -18 4 -25z" />
<glyph unicode="&#x201d;" horiz-adv-x="720" d="M147 1233l33 -16q34 1 74 49q38 46 64 104.5t26 93.5q0 18 -4 25l4 6q-21 59 -68 59q-30 0 -54 -18t-24 -45q0 -25 17 -49.5t43 -40.5q0 -18 -6 -35q-8 -23 -44 -62q-13 -13 -30 -29t-27 -24zM393 1233l33 -16q34 1 74 49q38 46 64 104.5t26 93.5q0 18 -4 25l4 6 q-21 59 -68 59q-30 0 -54 -18t-24 -45q0 -25 17 -49.5t43 -40.5q0 -18 -6 -35q-8 -23 -44 -62q-13 -13 -30 -29t-27 -24z" />
<glyph unicode="&#x201e;" horiz-adv-x="720" d="M123 -158l25 -16q42 0 85 48q41 46 66 105.5t25 102.5q0 32 -19.5 55t-48.5 23t-53 -18.5t-24 -45.5q0 -26 17 -50.5t42 -39.5q0 -30 -19 -56t-56 -58q-29 -26 -40 -50zM353 -162l32 -16q38 2 78 52q38 48 62 108t24 100q0 32 -19 55t-48 23q-30 0 -54 -18.5t-24 -45.5 q0 -26 17 -50.5t42 -39.5q0 -38 -26 -69q-13 -16 -24 -28t-30 -28l-26 -24z" />
<glyph unicode="&#x2022;" horiz-adv-x="620" d="M171 690q0 -25 17 -53t45.5 -47t62.5 -19q43 0 74 17.5t47 47.5q26 52 26 105q0 51 -42 84t-113 33q-34 0 -61 -25t-41.5 -64t-14.5 -79z" />
<glyph unicode="&#x2026;" horiz-adv-x="1120" d="M171 41q0 -18 13.5 -33.5t31.5 -15.5q57 0 57 51q0 18 -15.5 35.5t-33.5 17.5q-20 0 -36.5 -17.5t-16.5 -37.5zM498 41q0 -18 13.5 -33.5t31.5 -15.5q58 0 58 51q0 18 -15.5 35.5t-33.5 17.5q-20 0 -37 -17.5t-17 -37.5zM826 41q0 -18 13.5 -33.5t31.5 -15.5q57 0 57 51 q0 18 -15.5 35.5t-33.5 17.5q-20 0 -36.5 -17.5t-16.5 -37.5z" />
<glyph unicode="&#x202f;" horiz-adv-x="415" />
<glyph unicode="&#x2039;" horiz-adv-x="700" d="M147 698q0 -30 38 -80q38 -52 44 -69q9 -20 24 -50l21 -44l102 -213l36 -78q48 -111 81 -160h4l14 -2l13 -2q8 0 16.5 13t11.5 26l-18 14q-35 58 -175 344.5t-140 302.5q0 53 34 147t83 192q51 103 90.5 202t48.5 160l-27 20q-13 -1 -27 -26q-12 -22 -20.5 -45.5 t-18.5 -62.5l-12 -40q-11 -36 -69 -166q-54 -120 -106 -244q-48 -114 -48 -139z" />
<glyph unicode="&#x203a;" horiz-adv-x="700" d="M139 39q2 -12 11.5 -25.5t17.5 -13.5l14 2l16 2l32 64l11 22l176 365l21 43q16 31 24 51q7 18 45 69q37 50 37 80q0 26 -48 140t-105 243q-57 126 -70 166l-11 41l-17 58q-8 27 -22.5 49.5t-27.5 25.5l-26 -20q9 -61 49 -161t91 -201q49 -99 82.5 -192.5t33.5 -146.5 q0 -16 -136.5 -292t-179.5 -355z" />
<glyph unicode="&#x205f;" horiz-adv-x="519" />
<glyph unicode="&#x20ac;" horiz-adv-x="820" d="M43 839q0 -15 13 -25t36 -10q77 0 111 1l7 -99l7 -101q-131 -5 -131 -10q0 -17 15 -37.5t28 -20.5q64 0 91 1q22 -347 58 -423q17 -37 52.5 -71.5t78 -55.5t80.5 -21q73 0 144 29q37 15 60 42.5t23 63.5l-10 11q-27 -7 -47 -7q-50 -59 -143 -59q-54 0 -101.5 21t-72.5 59 q-40 61 -66 412q379 7 379 16q0 15 -16 36.5t-29 21.5q-140 0 -337 -6l-7 103l-7 96q365 8 365 16q0 15 -16 35t-29 20q-131 0 -321 -6q12 218 12 282q0 116 17 174q11 36 23 57.5t33 36.5q25 17 46 25.5t55 12.5t66.5 5.5t87.5 1.5q32 0 32 23q0 20 -19 37.5t-47 28 t-52 10.5q-61 0 -106 -13q-48 -13 -80 -34.5t-55 -56.5q-24 -35 -37.5 -72t-20.5 -89q-7 -51 -10 -98t-3 -112q0 -57 1 -104q1 -48 1 -109v-8q-118 -4 -147 -10q-12 -4 -12 -20z" />
<glyph unicode="&#x2122;" horiz-adv-x="1040" d="M11 1513q0 -20 57 -20q25 0 58 4t55 4q10 -10 10 -98q0 -35 -3 -106q-3 -70 -3 -107q0 -46 4 -114t4 -115q0 -34 -4 -82q6 -12 6 -64q0 -59 -6 -65v-11q0 -15 1 -26t1 -25q0 -16 -2 -26l29 -15q14 4 28.5 15.5t14.5 21.5l-8 25q6 80 6 161q0 93 -7 246t-7 246q0 66 6 133 l6 8q18 0 35 -1t39 -1q38 0 56.5 7.5t18.5 27.5l-24 25l-28 2l-28 2q-71 0 -208 -12q-69 -7 -93 -9l-14 -24v-7zM425 690q0 -49 24 -49q19 0 29.5 4.5t15.5 16.5q5 11 6 21t1 34v16q-11 20 -11 144q0 339 15 538q9 -49 39 -169q31 -122 38 -183q8 -15 13 -69q3 -61 16 -95.5 t41 -34.5q18 0 32 32q11 26 23 82l11 52l-2 4l6 6q0 44 12 68q14 11 27 55q12 41 25 106l14 70q4 -5 4 -20q0 -20 -3 -64q-4 -39 -4 -63q0 -47 6 -145q5 -108 5 -146q0 -39 -6 -117q-7 -74 -7 -118q0 -15 7 -20t24 -5q53 0 53 145q0 71 -7 184t-7 183q0 73 12 217 q11 151 11 217q0 12 -10 20.5t-23 8.5q-27 0 -39 -24q-6 -12 -9 -22.5t-5 -25.5l-5 -22l-41 -165q-17 -65 -45 -153t-55 -151q-7 3 -11 28q-5 29 -8 57q-5 37 -5 36q-8 40 -51 177q-44 138 -44 195q0 13 2 21q-22 22 -34 22q-17 0 -37 -26q-8 -12 -13 -17q-18 -213 -18 -639 q0 -36 -6 -108q-6 -73 -6 -109z" />
<glyph unicode="&#x25fc;" horiz-adv-x="1355" d="M0 0v1355h1355v-1355h-1355z" />
<glyph unicode="&#xfb03;" horiz-adv-x="1940" d="M163 2l41 -31q49 0 49 82q0 50 -6 147q-6 98 -6 146v232q0 100 37 100q12 0 34 -6q23 -6 34 -6q18 0 33.5 11.5t15.5 27.5q0 32 -103 32h-11q-23 0 -23 6v72q0 78 10 215q10 136 10 217q6 14 8 22q3 11 5 14t9 5q10 2 25 2q75 0 113 -20q73 0 73 35q0 18 -42.5 31.5 t-101 20.5t-101.5 7q-22 0 -39 -10.5t-17 -28.5q0 -127 -14 -412q-14 -286 -14 -413q0 -307 -19 -498zM783 2l41 -31q49 0 49 82q0 50 -6 147q-6 98 -6 146v232q0 100 37 100q11 0 34 -6q22 -6 34 -6q18 0 33.5 11.5t15.5 27.5q0 32 -103 32h-11q-23 0 -23 6v72q0 78 10 215 q10 136 10 217q6 14 8 22q3 11 5 14t9 5q10 2 25 2q75 0 113 -20q73 0 73 35q0 18 -42.5 31.5t-101 20.5t-101.5 7q-22 0 -39 -10.5t-17 -28.5q0 -127 -14 -412q-14 -286 -14 -413q0 -307 -19 -498zM1387 1325q0 -35 39 -35l25 2l24 2q42 0 61 -6q10 -93 10 -237 q0 -61 -5 -238q-5 -178 -5 -240q0 -66 8 -224q7 -139 7 -224q0 -7 -3 -24q-4 -15 -4 -19l-8 -8h-59l-12 -11q-9 -6 -12 -11t-3 -13q12 -21 56 -21q9 0 17 1q7 1 17 1q8 -20 56 -20q13 0 35 12q24 11 38 11q12 0 34 -3q20 -4 34 -4q19 0 32 11.5t13 29.5q0 29 -61 29 q-17 0 -30 -1t-30 -1q-45 0 -45 20l2 5q-6 9 -6 57q0 22 1 37l1 26q0 85 -7 225q-7 139 -7 224q0 81 3 244q3 162 3 243q0 91 -6 109l10 6q43 0 59 -12l47 4q5 12 5 16q0 22 -36 35q-41 15 -94 19q-88 8 -155 8q-13 0 -31 -8.5t-18 -16.5z" />
<glyph unicode="&#xfb04;" horiz-adv-x="1880" d="M163 2l41 -31q49 0 49 82q0 50 -6 147q-6 98 -6 146v232q0 100 37 100q12 0 34 -6q23 -6 34 -6q18 0 33.5 11.5t15.5 27.5q0 32 -103 32h-11q-23 0 -23 6v72q0 78 10 215q10 136 10 217q6 14 8 22q3 11 5 14t9 5q10 2 25 2q75 0 113 -20q73 0 73 35q0 18 -42.5 31.5 t-101 20.5t-101.5 7q-22 0 -39 -10.5t-17 -28.5q0 -127 -14 -412q-14 -286 -14 -413q0 -307 -19 -498zM783 2l41 -31q49 0 49 82q0 50 -6 147q-6 98 -6 146v232q0 100 37 100q11 0 34 -6q22 -6 34 -6q18 0 33.5 11.5t15.5 27.5q0 32 -103 32h-11q-23 0 -23 6v72q0 78 10 215 q10 136 10 217q6 14 8 22q3 11 5 14t9 5q10 2 25 2q75 0 113 -20q73 0 73 35q0 18 -42.5 31.5t-101 20.5t-101.5 7q-22 0 -39 -10.5t-17 -28.5q0 -127 -14 -412q-14 -286 -14 -413q0 -307 -19 -498zM1419 20q5 -47 34 -47q15 0 38 4q26 3 38 3l-4 2q100 0 170 -2q33 3 33 26 q0 12 -10 23.5t-21 11.5h-6l-87 3q-76 3 -106 3q-9 0 -10 10q-2 12 -2 41v13l6 196q-6 12 -6 29q0 5 1 8t1 8l-2 -2l6 17l-2 87l-2 87q0 23 3 84l3 88q0 124 -1 223t-1 223q0 45 1 81t1 81q0 -1 -5 1q-19 7 -29 7q-15 0 -15 -14l-5 -62q-5 -65 -5 -73q0 -164 -6 -533 q-6 -370 -6 -559q0 -51 -4 -68z" />
</font>
</defs>
</svg>
