<?xml version="1.0" standalone="no"?>
<!DOCTYPE svg PUBLIC "-//W3C//DTD SVG 20010904//EN"
 "http://www.w3.org/TR/2001/REC-SVG-20010904/DTD/svg10.dtd">
<svg version="1.0" xmlns="http://www.w3.org/2000/svg"
 width="512.000000pt" height="512.000000pt" viewBox="0 0 512.000000 512.000000"
 preserveAspectRatio="xMidYMid meet">
<metadata>
Created by potrace 1.11, written by Peter Selinger 2001-2013
</metadata>
<g transform="translate(0.000000,512.000000) scale(0.100000,-0.100000)"
fill="#000000" stroke="none">
<path d="M2880 5103 c-47 -24 -186 -164 -235 -238 -110 -165 -176 -361 -202
-601 -10 -86 -10 -359 -1 -439 10 -87 20 -149 24 -154 2 -2 39 29 82 70 l79
73 2 65 c4 136 63 362 131 506 79 165 156 224 243 184 94 -43 69 -294 -50
-509 -86 -154 -184 -266 -346 -396 -209 -168 -495 -438 -617 -583 -178 -211
-308 -468 -337 -666 -10 -65 -10 -276 -1 -341 21 -144 90 -319 181 -456 71
-108 89 -129 170 -209 139 -138 316 -227 488 -245 49 -5 177 -8 219 -5 13 1
14 11 7 74 -15 123 -8 113 -79 112 -132 -3 -301 48 -415 126 -121 83 -233 224
-273 344 -51 154 -17 388 83 575 120 222 266 383 562 619 262 209 377 343 495
580 67 134 123 300 146 431 2 14 6 34 8 45 31 143 27 370 -9 555 -21 102 -22
107 -39 172 -67 250 -192 373 -316 311z"/>
<path d="M2656 2953 l-88 -67 6 -60 c4 -34 9 -84 12 -113 l6 -52 -43 -22
c-146 -73 -262 -195 -330 -344 -39 -86 -51 -144 -51 -245 0 -100 19 -184 63
-275 35 -71 120 -167 185 -209 73 -47 194 -46 194 2 0 10 -24 53 -54 96 -30
43 -61 96 -69 119 -43 130 9 283 122 361 47 33 60 27 62 -29 0 -16 2 -39 4
-50 4 -22 16 -105 20 -145 5 -42 17 -136 29 -228 5 -33 9 -69 31 -242 3 -25 7
-54 9 -66 2 -11 7 -45 10 -75 10 -93 16 -130 42 -279 13 -80 28 -170 32 -200
12 -91 8 -311 -7 -355 -44 -134 -116 -221 -214 -258 -14 -5 -12 2 10 30 142
183 100 452 -90 582 -132 89 -309 92 -447 6 -76 -47 -157 -160 -176 -245 -10
-45 -12 -152 -2 -194 39 -180 211 -334 427 -380 87 -19 248 -13 321 11 150 51
275 152 335 272 40 78 52 159 49 311 -3 164 -15 270 -59 540 -4 25 -34 240
-41 295 -2 17 -8 62 -13 100 -6 39 -13 90 -16 115 -17 127 -34 253 -45 325 -5
33 -12 85 -15 115 -3 30 -8 62 -11 72 -9 29 12 28 74 -3 121 -60 184 -169 181
-310 -2 -91 -36 -235 -73 -307 -25 -49 -26 -55 -15 -120 6 -37 13 -80 15 -97
3 -16 8 -45 12 -62 l7 -33 65 39 c150 90 273 250 324 421 25 82 31 133 31 260
-1 133 -21 228 -70 337 -110 240 -297 381 -533 401 -64 5 -86 11 -87 22 -2 8
-8 56 -14 105 -7 50 -15 108 -18 130 -3 22 -6 46 -6 53 0 6 -1 12 -1 12 -1 0
-41 -31 -90 -67z"/>
</g>
</svg>
